STARTFONT 2.1
FONT -HP-Song-Medium-R-Normal--32-320-75-75-C-320-GB2312.1980-1
SIZE 32 75 75
FONTBOUNDINGBOX 32 32 0 -2

STARTPROPERTIES 23
FONTNAME_REGISTRY ""
FOUNDRY "HP"
FAMILY_NAME "Song"
WEIGHT_NAME "Medium"
SLANT "R"
SETWIDTH_NAME "Normal"
ADD_STYLE_NAME ""
PIXEL_SIZE 32
POINT_SIZE 320
RESOLUTION_X 75
RESOLUTION_Y 75
SPACING "C"
AVERAGE_WIDTH 320
CHARSET_REGISTRY "GB2312.1980"
CHARSET_ENCODING "1"
COPYRIGHT "Copyright (c) 1988, 1989, 1990, 1994 Hewlett-Packard Company."
_HP_ASXVERSION "@(#) ASX 3.00 $Revision: 13.9 $ song32h"
WEIGHT 10
X_HEIGHT 30
QUAD_WIDTH 32
DEFAULT_CHAR 41633
FONT_DESCENT 2
FONT_ASCENT 30
ENDPROPERTIES

CHARS 7546

STARTCHAR chs_A1A1
ENCODING 41377
SWIDTH 960 0
DWIDTH 32 0
BBX 32 32 0 -2
BITMAP
00000000
00000000
00000000
00000000
00000000
00000000
00000000
00000000
00000000
00000000
00000000
00000000
00000000
00000000
00000000
00000000
00000000
00000000
00000000
00000000
00000000
00000000
00000000
00000000
00000000
00000000
00000000
00000000
00000000
00000000
00000000
00000000
ENDCHAR

STARTCHAR chs_A1A2
ENCODING 41378
SWIDTH 960 0
DWIDTH 32 0
BBX 32 32 0 -2
BITMAP
00000000
00000000
00000000
00000000
00000000
00000000
00000000
00000000
00000000
00000000
00000000
00000000
00000000
00000000
00000000
00000000
00000000
00000000
00000000
00000000
0C000000
03000000
01C00000
00E00000
00700000
00700000
00300000
00200000
00000000
00000000
00000000
00000000
ENDCHAR

STARTCHAR chs_A1A3
ENCODING 41379
SWIDTH 960 0
DWIDTH 32 0
BBX 32 32 0 -2
BITMAP
00000000
00000000
00000000
00000000
00000000
00000000
00000000
00000000
00000000
00000000
00000000
00000000
00000000
00000000
00000000
00000000
00000000
00000000
00000000
00000000
03C00000
06600000
0C300000
08100000
08100000
0C300000
06600000
03C00000
00000000
00000000
00000000
00000000
ENDCHAR

STARTCHAR chs_A1A4
ENCODING 41380
SWIDTH 960 0
DWIDTH 32 0
BBX 32 32 0 -2
BITMAP
00000000
00000000
00000000
00000000
00000000
00000000
00000000
00000000
00000000
00000000
00000000
00000000
00000000
0003C000
0007E000
0007E000
0007E000
0007E000
0003C000
00000000
00000000
00000000
00000000
00000000
00000000
00000000
00000000
00000000
00000000
00000000
00000000
00000000
ENDCHAR

STARTCHAR chs_A1A5
ENCODING 41381
SWIDTH 960 0
DWIDTH 32 0
BBX 32 32 0 -2
BITMAP
00000000
00000000
00000000
00000000
00000000
001FF000
00000000
00000000
00000000
00000000
00000000
00000000
00000000
00000000
00000000
00000000
00000000
00000000
00000000
00000000
00000000
00000000
00000000
00000000
00000000
00000000
00000000
00000000
00000000
00000000
00000000
00000000
ENDCHAR

STARTCHAR chs_A1A6
ENCODING 41382
SWIDTH 960 0
DWIDTH 32 0
BBX 32 32 0 -2
BITMAP
00000000
00000000
00000000
00101000
00082000
000C6000
00044000
0006C000
00028000
00038000
00010000
00000000
00000000
00000000
00000000
00000000
00000000
00000000
00000000
00000000
00000000
00000000
00000000
00000000
00000000
00000000
00000000
00000000
00000000
00000000
00000000
00000000
ENDCHAR

STARTCHAR chs_A1A7
ENCODING 41383
SWIDTH 960 0
DWIDTH 32 0
BBX 32 32 0 -2
BITMAP
00000000
00000000
00000000
00000000
00300C00
00781E00
00781E00
00300C00
00000000
00000000
00000000
00000000
00000000
00000000
00000000
00000000
00000000
00000000
00000000
00000000
00000000
00000000
00000000
00000000
00000000
00000000
00000000
00000000
00000000
00000000
00000000
00000000
ENDCHAR

STARTCHAR chs_A1A8
ENCODING 41384
SWIDTH 960 0
DWIDTH 32 0
BBX 32 32 0 -2
BITMAP
00000000
00000000
00000000
00000000
00000000
00000000
00000000
00000000
00000000
00000000
00060600
000F0F00
000F0F00
001E1E00
001C1C00
00383800
00383800
00707000
0060C000
00C18000
00810000
00000000
00000000
00000000
00000000
00000000
00000000
00000000
00000000
00000000
00000000
00000000
ENDCHAR

STARTCHAR chs_A1A9
ENCODING 41385
SWIDTH 960 0
DWIDTH 32 0
BBX 32 32 0 -2
BITMAP
00000000
00000000
00000000
00020000
00038000
00070000
00060000
000E0000
000C0000
001C0000
00180200
003FFF00
00600380
00C00700
00800600
01000E00
02000C00
04101C00
00081800
000C3000
00062000
00034000
0001C000
0000E000
0000F000
00007800
00003800
00001800
00001000
00000000
00000000
00000000
ENDCHAR

STARTCHAR chs_A1AA
ENCODING 41386
SWIDTH 960 0
DWIDTH 32 0
BBX 32 32 0 -2
BITMAP
00000000
00000000
00000000
00000000
00000000
00000000
00000000
00000000
00000000
00000000
00000000
00000000
00000000
00000000
00000000
1FFFFFF8
00000000
00000000
00000000
00000000
00000000
00000000
00000000
00000000
00000000
00000000
00000000
00000000
00000000
00000000
00000000
00000000
ENDCHAR

STARTCHAR chs_A1AB
ENCODING 41387
SWIDTH 960 0
DWIDTH 32 0
BBX 32 32 0 -2
BITMAP
00000000
00000000
00000000
00000000
00000000
00000000
00000000
00000000
00000000
00000000
00000000
00000000
00000000
00000000
00F00000
03FC0010
070F8020
0803F0C0
10007F80
00000F00
00000000
00000000
00000000
00000000
00000000
00000000
00000000
00000000
00000000
00000000
00000000
00000000
ENDCHAR

STARTCHAR chs_A1AC
ENCODING 41388
SWIDTH 960 0
DWIDTH 32 0
BBX 32 32 0 -2
BITMAP
00000000
00044000
00044000
00044000
00044000
00044000
00044000
00044000
00044000
00044000
00044000
00044000
00044000
00044000
00044000
00044000
00044000
00044000
00044000
00044000
00044000
00044000
00044000
00044000
00044000
00044000
00044000
00044000
00044000
00044000
00044000
00000000
ENDCHAR

STARTCHAR chs_A1AD
ENCODING 41389
SWIDTH 960 0
DWIDTH 32 0
BBX 32 32 0 -2
BITMAP
00000000
00000000
00000000
00000000
00000000
00000000
00000000
00000000
00000000
00000000
00000000
00000000
00000000
00000000
0C018030
1E03C078
1E03C078
0C018030
00000000
00000000
00000000
00000000
00000000
00000000
00000000
00000000
00000000
00000000
00000000
00000000
00000000
00000000
ENDCHAR

STARTCHAR chs_A1AE
ENCODING 41390
SWIDTH 960 0
DWIDTH 32 0
BBX 32 32 0 -2
BITMAP
00000000
00000008
00000010
00000020
00000060
000000C0
000000C0
000001E0
000001F0
000001F0
000000E0
00000000
00000000
00000000
00000000
00000000
00000000
00000000
00000000
00000000
00000000
00000000
00000000
00000000
00000000
00000000
00000000
00000000
00000000
00000000
00000000
00000000
ENDCHAR

STARTCHAR chs_A1AF
ENCODING 41391
SWIDTH 960 0
DWIDTH 32 0
BBX 32 32 0 -2
BITMAP
00000000
07000000
0F800000
0F800000
07800000
03000000
03000000
06000000
04000000
08000000
10000000
00000000
00000000
00000000
00000000
00000000
00000000
00000000
00000000
00000000
00000000
00000000
00000000
00000000
00000000
00000000
00000000
00000000
00000000
00000000
00000000
00000000
ENDCHAR

STARTCHAR chs_A1B0
ENCODING 41392
SWIDTH 960 0
DWIDTH 32 0
BBX 32 32 0 -2
BITMAP
00000000
00000208
00000410
00000820
00001040
00001040
000030C0
000038E0
00003CF0
00003CF0
00001860
00000000
00000000
00000000
00000000
00000000
00000000
00000000
00000000
00000000
00000000
00000000
00000000
00000000
00000000
00000000
00000000
00000000
00000000
00000000
00000000
00000000
ENDCHAR

STARTCHAR chs_A1B1
ENCODING 41393
SWIDTH 960 0
DWIDTH 32 0
BBX 32 32 0 -2
BITMAP
00000000
06180000
0F3C0000
0F3C0000
071C0000
030C0000
02080000
02080000
04100000
08200000
10400000
00000000
00000000
00000000
00000000
00000000
00000000
00000000
00000000
00000000
00000000
00000000
00000000
00000000
00000000
00000000
00000000
00000000
00000000
00000000
00000000
00000000
ENDCHAR

STARTCHAR chs_A1B2
ENCODING 41394
SWIDTH 960 0
DWIDTH 32 0
BBX 32 32 0 -2
BITMAP
00000000
00000010
00000020
00000040
00000080
00000100
00000100
00000100
00000100
00000100
00000100
00000100
00000100
00000100
00000100
00000100
00000100
00000100
00000100
00000100
00000100
00000100
00000100
00000100
00000100
00000100
00000100
00000080
00000040
00000020
00000010
00000000
ENDCHAR

STARTCHAR chs_A1B3
ENCODING 41395
SWIDTH 960 0
DWIDTH 32 0
BBX 32 32 0 -2
BITMAP
00000000
08000000
04000000
02000000
01000000
00800000
00800000
00800000
00800000
00800000
00800000
00800000
00800000
00800000
00800000
00800000
00800000
00800000
00800000
00800000
00800000
00800000
00800000
00800000
00800000
00800000
00800000
01000000
02000000
04000000
08000000
00000000
ENDCHAR

STARTCHAR chs_A1B4
ENCODING 41396
SWIDTH 960 0
DWIDTH 32 0
BBX 32 32 0 -2
BITMAP
00000000
00000010
00000010
00000020
00000020
00000040
00000040
00000080
00000080
00000100
00000100
00000200
00000200
00000400
00000400
00000800
00000800
00000400
00000400
00000200
00000200
00000100
00000100
00000080
00000080
00000040
00000040
00000020
00000020
00000010
00000010
00000000
ENDCHAR

STARTCHAR chs_A1B5
ENCODING 41397
SWIDTH 960 0
DWIDTH 32 0
BBX 32 32 0 -2
BITMAP
00000000
08000000
08000000
04000000
04000000
02000000
02000000
01000000
01000000
00800000
00800000
00400000
00400000
00200000
00200000
00100000
00100000
00200000
00200000
00400000
00400000
00800000
00800000
01000000
01000000
02000000
02000000
04000000
04000000
08000000
08000000
00000000
ENDCHAR

STARTCHAR chs_A1B6
ENCODING 41398
SWIDTH 960 0
DWIDTH 32 0
BBX 32 32 0 -2
BITMAP
00000000
00000410
00000410
00000820
00000820
00001040
00001040
00002080
00002080
00004100
00004100
00008200
00008200
00010400
00010400
00020800
00020800
00010400
00010400
00008200
00008200
00004100
00004100
00002080
00002080
00001040
00001040
00000820
00000820
00000410
00000410
00000000
ENDCHAR

STARTCHAR chs_A1B7
ENCODING 41399
SWIDTH 960 0
DWIDTH 32 0
BBX 32 32 0 -2
BITMAP
00000000
08200000
08200000
04100000
04100000
02080000
02080000
01040000
01040000
00820000
00820000
00410000
00410000
00208000
00208000
00104000
00104000
00208000
00208000
00410000
00410000
00820000
00820000
01040000
01040000
02080000
02080000
04100000
04100000
08200000
08200000
00000000
ENDCHAR

STARTCHAR chs_A1B8
ENCODING 41400
SWIDTH 960 0
DWIDTH 32 0
BBX 32 32 0 -2
BITMAP
00000000
00003FF0
00002000
00002000
00002000
00002000
00002000
00002000
00002000
00002000
00002000
00002000
00002000
00002000
00002000
00002000
00002000
00002000
00002000
00002000
00002000
00002000
00002000
00002000
00000000
00000000
00000000
00000000
00000000
00000000
00000000
00000000
ENDCHAR

STARTCHAR chs_A1B9
ENCODING 41401
SWIDTH 960 0
DWIDTH 32 0
BBX 32 32 0 -2
BITMAP
00000000
00000000
00000000
00000000
00000000
00000000
00000000
00000000
00040000
00040000
00040000
00040000
00040000
00040000
00040000
00040000
00040000
00040000
00040000
00040000
00040000
00040000
00040000
00040000
00040000
00040000
00040000
00040000
00040000
00040000
0FFC0000
00000000
ENDCHAR

STARTCHAR chs_A1BA
ENCODING 41402
SWIDTH 960 0
DWIDTH 32 0
BBX 32 32 0 -2
BITMAP
00000000
00003FF0
00002010
00002010
000027F0
00002400
00002400
00002400
00002400
00002400
00002400
00002400
00002400
00002400
00002400
00002400
00002400
00002400
00002400
00002400
00002400
00002400
00002400
00003C00
00000000
00000000
00000000
00000000
00000000
00000000
00000000
00000000
ENDCHAR

STARTCHAR chs_A1BB
ENCODING 41403
SWIDTH 960 0
DWIDTH 32 0
BBX 32 32 0 -2
BITMAP
00000000
00000000
00000000
00000000
00000000
00000000
00000000
00000000
003C0000
00240000
00240000
00240000
00240000
00240000
00240000
00240000
00240000
00240000
00240000
00240000
00240000
00240000
00240000
00240000
00240000
00240000
00240000
0FE40000
08040000
08040000
0FFC0000
00000000
ENDCHAR

STARTCHAR chs_A1BC
ENCODING 41404
SWIDTH 960 0
DWIDTH 32 0
BBX 32 32 0 -2
BITMAP
00000000
00003FF0
00002020
00002020
00002040
00002040
00002080
00002080
00002100
00002100
00002100
00002200
00002200
00002200
00002200
00002200
00002200
00002200
00002200
00002200
00002200
00002100
00002100
00002100
00002080
00002080
00002040
00002040
00002020
00002020
00003FF0
00000000
ENDCHAR

STARTCHAR chs_A1BD
ENCODING 41405
SWIDTH 960 0
DWIDTH 32 0
BBX 32 32 0 -2
BITMAP
00000000
0FFC0000
04040000
04040000
02040000
02040000
01040000
01040000
00840000
00840000
00840000
00440000
00440000
00440000
00440000
00440000
00440000
00440000
00440000
00440000
00440000
00840000
00840000
00840000
01040000
01040000
02040000
02040000
04040000
04040000
0FFC0000
00000000
ENDCHAR

STARTCHAR chs_A1BE
ENCODING 41406
SWIDTH 960 0
DWIDTH 32 0
BBX 32 32 0 -2
BITMAP
00000000
00003FF0
00003FE0
00003FE0
00003FC0
00003FC0
00003F80
00003F80
00003F00
00003F00
00003F00
00003E00
00003E00
00003E00
00003E00
00003E00
00003E00
00003E00
00003E00
00003E00
00003E00
00003F00
00003F00
00003F00
00003F80
00003F80
00003FC0
00003FC0
00003FE0
00003FE0
00003FF0
00000000
ENDCHAR

STARTCHAR chs_A1BF
ENCODING 41407
SWIDTH 960 0
DWIDTH 32 0
BBX 32 32 0 -2
BITMAP
00000000
0FFC0000
07FC0000
07FC0000
03FC0000
03FC0000
01FC0000
01FC0000
00FC0000
00FC0000
00FC0000
007C0000
007C0000
007C0000
007C0000
007C0000
007C0000
007C0000
007C0000
007C0000
007C0000
00FC0000
00FC0000
00FC0000
01FC0000
01FC0000
03FC0000
03FC0000
07FC0000
07FC0000
0FFC0000
00000000
ENDCHAR

STARTCHAR chs_A1C0
ENCODING 41408
SWIDTH 960 0
DWIDTH 32 0
BBX 32 32 0 -2
BITMAP
00000000
00000000
00000000
00010000
00010000
00010000
00010000
00010000
00010000
00010000
00010000
07FFFFC0
00010000
00010000
00010000
00010000
00010000
00010000
00010000
00010000
00000000
00000000
00000000
00000000
07FFFFC0
00000000
00000000
00000000
00000000
00000000
00000000
00000000
ENDCHAR

STARTCHAR chs_A1C1
ENCODING 41409
SWIDTH 960 0
DWIDTH 32 0
BBX 32 32 0 -2
BITMAP
00000000
00000000
00000000
00000000
00000000
04000040
02000080
01000100
00800200
00400400
00200800
00101000
00082000
00044000
00028000
00010000
00028000
00044000
00082000
00101000
00200800
00400400
00800200
01000100
02000080
04000040
00000000
00000000
00000000
00000000
00000000
00000000
ENDCHAR

STARTCHAR chs_A1C2
ENCODING 41410
SWIDTH 960 0
DWIDTH 32 0
BBX 32 32 0 -2
BITMAP
00000000
00000000
00000000
00000000
00000000
00018000
0003C000
0003C000
00018000
00000000
00000000
00000000
00000000
00000000
00000000
0FFFFFF0
00000000
00000000
00000000
00000000
00000000
00000000
00018000
0003C000
0003C000
00018000
00000000
00000000
00000000
00000000
00000000
00000000
ENDCHAR

STARTCHAR chs_A1C3
ENCODING 41411
SWIDTH 960 0
DWIDTH 32 0
BBX 32 32 0 -2
BITMAP
00000000
00000000
00000000
00000000
00000000
00000000
00000000
00038000
0007C000
0007C000
0007C000
00038000
00000000
00000000
00000000
00000000
00000000
00000000
00000000
00000000
00038000
0007C000
0007C000
0007C000
00038000
00000000
00000000
00000000
00000000
00000000
00000000
00000000
ENDCHAR

STARTCHAR chs_A1C4
ENCODING 41412
SWIDTH 960 0
DWIDTH 32 0
BBX 32 32 0 -2
BITMAP
00000000
00000000
00000000
00010000
00028000
00028000
00044000
00044000
00082000
00082000
00101000
00101000
00200800
00200800
00400400
00400400
00800200
00800200
01000100
01000100
02000080
02000080
04000040
04000040
08000020
08000020
10000010
10000010
20000008
00000000
00000000
00000000
ENDCHAR

STARTCHAR chs_A1C5
ENCODING 41413
SWIDTH 960 0
DWIDTH 32 0
BBX 32 32 0 -2
BITMAP
00000000
00000000
00000000
20000008
10000010
10000010
08000020
08000020
04000040
04000040
02000080
02000080
01000100
01000100
00800200
00800200
00400400
00400400
00200800
00200800
00101000
00101000
00082000
00082000
00044000
00044000
00028000
00028000
00010000
00000000
00000000
00000000
ENDCHAR

STARTCHAR chs_A1C6
ENCODING 41414
SWIDTH 960 0
DWIDTH 32 0
BBX 32 32 0 -2
BITMAP
00000000
00000000
00000000
1FFFFFF8
0F000008
07000008
03800008
03800000
01C00000
00E00000
00E00000
00700000
00380000
003C0000
001E0000
000C0000
000C0000
00080000
00080000
00100000
00200000
00400000
00400000
00800000
01000000
02000008
04000008
0FFFFFF8
1FFFFFF8
00000000
00000000
00000000
ENDCHAR

STARTCHAR chs_A1C7
ENCODING 41415
SWIDTH 960 0
DWIDTH 32 0
BBX 32 32 0 -2
BITMAP
00000000
00000000
00000000
0FFFFFF0
01C00380
01C00380
01C00380
01C00380
01C00380
01C00380
01C00380
01C00380
01C00380
01C00380
01C00380
01C00380
01C00380
01C00380
01C00380
01C00380
01C00380
01C00380
01C00380
01C00380
01C00380
01C00380
01C00380
01C00380
07F00FE0
00000000
00000000
00000000
ENDCHAR

STARTCHAR chs_A1C8
ENCODING 41416
SWIDTH 960 0
DWIDTH 32 0
BBX 32 32 0 -2
BITMAP
00000000
00000000
00000000
01000080
01000080
01000080
01000080
01000080
01000080
01000080
01000080
01000080
01000080
01000080
01000080
01000080
01000080
01000080
01000080
01000080
01000080
01000080
01800180
00800100
00C00300
00600600
00300C00
001C3800
0007E000
00000000
00000000
00000000
ENDCHAR

STARTCHAR chs_A1C9
ENCODING 41417
SWIDTH 960 0
DWIDTH 32 0
BBX 32 32 0 -2
BITMAP
00000000
00000000
00000000
0007E000
001C3800
00300C00
00600600
00C00300
00800100
01800180
01000080
01000080
01000080
01000080
01000080
01000080
01000080
01000080
01000080
01000080
01000080
01000080
01000080
01000080
01000080
01000080
01000080
01000080
01000080
00000000
00000000
00000000
ENDCHAR

STARTCHAR chs_A1CA
ENCODING 41418
SWIDTH 960 0
DWIDTH 32 0
BBX 32 32 0 -2
BITMAP
00000000
00000000
00000000
00003F00
0000C000
00030000
00040000
00080000
00100000
00100000
00200000
00200000
00200000
00400000
00400000
007FFF00
00400000
00400000
00200000
00200000
00200000
00100000
00100000
00080000
000C0000
00040000
00030000
0000C000
00003F00
00000000
00000000
00000000
ENDCHAR

STARTCHAR chs_A1CB
ENCODING 41419
SWIDTH 960 0
DWIDTH 32 0
BBX 32 32 0 -2
BITMAP
00000000
00000000
00000000
00000000
00000000
00000000
01800180
03C003C0
03C003C0
01800180
00000000
00000000
00000000
00000000
00000000
00000000
00000000
00000000
00000000
00000000
00000000
00000000
01800180
03C003C0
03C003C0
01800180
00000000
00000000
00000000
00000000
00000000
00000000
ENDCHAR

STARTCHAR chs_A1CC
ENCODING 41420
SWIDTH 960 0
DWIDTH 32 0
BBX 32 32 0 -2
BITMAP
00000001
00000002
00000004
00000008
00000008
00000010
00000020
00000020
00000040
00000080
00000080
00000100
00000200
00000400
00000400
00000800
00001000
00001000
00002000
20004000
30004000
58008000
8C010000
06010000
03020000
01840000
00C80000
00700000
00200000
00000000
00000000
00000000
ENDCHAR

STARTCHAR chs_A1CD
ENCODING 41421
SWIDTH 960 0
DWIDTH 32 0
BBX 32 32 0 -2
BITMAP
00000000
00000000
00000000
00010000
00010000
00010000
00010000
00010000
00010000
00010000
00010000
00010000
00010000
00010000
00010000
00010000
00010000
00010000
00010000
00010000
00010000
00010000
00010000
00010000
00010000
00010000
00010000
00010000
07FFFFC0
00000000
00000000
00000000
ENDCHAR

STARTCHAR chs_A1CE
ENCODING 41422
SWIDTH 960 0
DWIDTH 32 0
BBX 32 32 0 -2
BITMAP
00000000
00000000
00000000
00008200
00008200
00008200
00010400
00010400
00010400
00020800
00020800
00020800
00041000
00041000
00041000
00082000
00082000
00082000
00104000
00104000
00104000
00208000
00208000
00208000
00410000
00410000
00410000
00820000
00820000
00000000
00000000
00000000
ENDCHAR

STARTCHAR chs_A1CF
ENCODING 41423
SWIDTH 960 0
DWIDTH 32 0
BBX 32 32 0 -2
BITMAP
00000000
00000000
00000000
00000010
00000020
00000040
00000080
00000100
00000200
00000400
00000800
00001000
00002000
00004000
00008000
00010000
00020000
00040000
00080000
00100000
00200000
00400000
00800000
01000000
02000000
04000000
08000000
10000000
1FFFFFF0
00000000
00000000
00000000
ENDCHAR

STARTCHAR chs_A1D0
ENCODING 41424
SWIDTH 960 0
DWIDTH 32 0
BBX 32 32 0 -2
BITMAP
00000000
00000000
00000000
00000000
00000000
00000000
00000000
000FF000
00300C00
00C00300
01000080
02000040
02000040
04000020
04000020
08000010
08000010
08000010
00000000
00000000
00000000
00000000
00000000
00000000
00000000
00000000
00000000
00000000
00000000
00000000
00000000
00000000
ENDCHAR

STARTCHAR chs_A1D1
ENCODING 41425
SWIDTH 960 0
DWIDTH 32 0
BBX 32 32 0 -2
BITMAP
00000000
00000000
00000000
000FF000
00300C00
00C00300
01000080
02000040
04000020
04000020
08000010
08000010
08000010
10018008
1003C008
1007E008
1007E008
1003C008
10018008
08000010
08000010
08000010
04000020
04000020
02000040
01000080
00C00300
00300C00
000FF000
00000000
00000000
00000000
ENDCHAR

STARTCHAR chs_A1D2
ENCODING 41426
SWIDTH 960 0
DWIDTH 32 0
BBX 32 32 0 -2
BITMAP
00000000
00007800
0000CC00
00018E00
00018C00
00018000
00018000
00018000
00018000
00018000
00018000
00018000
00018000
00018000
00018000
00018000
00030000
00030000
00030000
00030000
00030000
00030000
00030000
00030000
00030000
00030000
00030000
00630000
00E30000
00660000
003C0000
00000000
ENDCHAR

STARTCHAR chs_A1D3
ENCODING 41427
SWIDTH 960 0
DWIDTH 32 0
BBX 32 32 0 -2
BITMAP
00000000
00007800
0000CC00
00018E00
00018400
00018000
00018000
00018000
00018000
00018000
00018000
000FE000
00119000
00218800
00418400
00418400
00430400
00430400
00230800
00131000
000FE000
00030000
00030000
00030000
00030000
00030000
00030000
00630000
00E30000
00660000
003C0000
00000000
ENDCHAR

STARTCHAR chs_A1D4
ENCODING 41428
SWIDTH 960 0
DWIDTH 32 0
BBX 32 32 0 -2
BITMAP
00000000
00000000
00000000
00000000
00000000
00000000
00000000
00000000
00000000
00000000
00000000
1FFFFFF8
00000000
00000000
00000000
1FFFFFF8
00000000
00000000
00000000
1FFFFFF8
00000000
00000000
00000000
00000000
00000000
00000000
00000000
00000000
00000000
00000000
00000000
00000000
ENDCHAR

STARTCHAR chs_A1D5
ENCODING 41429
SWIDTH 960 0
DWIDTH 32 0
BBX 32 32 0 -2
BITMAP
00000000
00000000
00000000
00000000
00000000
00C00F80
03001040
04002020
04004020
08004010
08008010
08010010
04020020
04020020
030C0CC0
00F00300
00000000
00000000
00000000
0FFFFFF0
00000000
00000000
00000000
00000000
00000000
0FFFFFF0
00000000
00000000
00000000
00000000
00000000
00000000
ENDCHAR

STARTCHAR chs_A1D6
ENCODING 41430
SWIDTH 960 0
DWIDTH 32 0
BBX 32 32 0 -2
BITMAP
00000000
00000000
00000000
00000000
00000000
00000000
00000000
00000000
00000000
00000000
00F80000
01FE0008
06038010
0801E060
10007F80
00F81F00
01FE0008
06038010
0801E060
10007F80
00001F00
00000000
00000000
00000000
00000000
00000000
00000000
00000000
00000000
00000000
00000000
00000000
ENDCHAR

STARTCHAR chs_A1D7
ENCODING 41431
SWIDTH 960 0
DWIDTH 32 0
BBX 32 32 0 -2
BITMAP
00000000
00000000
00000000
00000000
00000000
00000000
00000000
00000000
00000000
00000000
00C00F80
03301040
04002020
04004020
08004010
08008010
08010010
04020020
04020020
030C0CC0
00F00300
00000000
00000000
00000000
00000000
00000000
00000000
00000000
00000000
00000000
00000000
00000000
ENDCHAR

STARTCHAR chs_A1D8
ENCODING 41432
SWIDTH 960 0
DWIDTH 32 0
BBX 32 32 0 -2
BITMAP
00000000
00000000
00000000
00000000
00000000
00000000
00000000
00000000
00000000
00000000
00F003E0
030C0C10
04021000
04022000
08014000
08008000
08014000
04022000
04021000
030C0C10
00F003E0
00000000
00000000
00000000
00000000
00000000
00000000
00000000
00000000
00000000
00000000
00000000
ENDCHAR

STARTCHAR chs_A1D9
ENCODING 41433
SWIDTH 960 0
DWIDTH 32 0
BBX 32 32 0 -2
BITMAP
00000000
00000000
00000000
00000400
00000400
00000800
00000800
00001000
00001000
00002000
1FFFFFF8
00004000
00004000
00008000
00008000
00010000
00010000
00020000
00020000
1FFFFFF8
00040000
00080000
00080000
00100000
00100000
00200000
00200000
00400000
00400000
00000000
00000000
00000000
ENDCHAR

STARTCHAR chs_A1DA
ENCODING 41434
SWIDTH 960 0
DWIDTH 32 0
BBX 32 32 0 -2
BITMAP
00000000
00000000
00000000
00010030
000100C0
00010300
00010C00
00013000
0001C000
00030000
000D0000
00310000
00C10000
03010000
0C010000
10010000
0C010000
03010000
00C10000
00310000
000D0000
00030000
0001C000
00013000
00010C00
00010300
000100C0
00010020
00010010
00000000
00000000
00000000
ENDCHAR

STARTCHAR chs_A1DB
ENCODING 41435
SWIDTH 960 0
DWIDTH 32 0
BBX 32 32 0 -2
BITMAP
00000000
00000000
00000000
0C008000
03008000
00C08000
00308000
000C8000
00038000
0000C000
0000B000
00008C00
00008300
000080C0
00008030
00008008
00008030
000080C0
00008300
00008C00
0000B000
0000C000
00038000
000C8000
00308000
00C08000
03008000
04008000
08008000
00000000
00000000
00000000
ENDCHAR

STARTCHAR chs_A1DC
ENCODING 41436
SWIDTH 960 0
DWIDTH 32 0
BBX 32 32 0 -2
BITMAP
00000000
00000000
00000000
00000030
000000C0
00000300
00000C00
00003000
0000C000
00030000
000C0000
00300000
00C00000
03000000
0C000000
03000000
00C00000
0C300000
030C0000
00C30000
0030C000
000C3000
00030C00
0000C300
000030C0
00000C30
00000300
000000C0
00000030
00000000
00000000
00000000
ENDCHAR

STARTCHAR chs_A1DD
ENCODING 41437
SWIDTH 960 0
DWIDTH 32 0
BBX 32 32 0 -2
BITMAP
00000000
00000000
00000000
0C000000
03000000
00C00000
00300000
000C0000
00030000
0000C000
00003000
00000C00
00000300
000000C0
00000030
000000C0
00000300
00000C30
000030C0
0000C300
00030C00
000C3000
0030C000
00C30000
030C0000
0C300000
00C00000
03000000
0C000000
00000000
00000000
00000000
ENDCHAR

STARTCHAR chs_A1DE
ENCODING 41438
SWIDTH 960 0
DWIDTH 32 0
BBX 32 32 0 -2
BITMAP
00000000
00000000
00000000
00000000
00000000
00000000
00000000
00000000
00000000
00000000
00F00780
030C1860
04022010
04022010
08014008
08008008
08014008
04022010
04022010
030C1860
00F00780
00000000
00000000
00000000
00000000
00000000
00000000
00000000
00000000
00000000
00000000
00000000
ENDCHAR

STARTCHAR chs_A1DF
ENCODING 41439
SWIDTH 960 0
DWIDTH 32 0
BBX 32 32 0 -2
BITMAP
00000000
00000000
00000000
00000000
00000000
00000000
00000000
01800180
03C003C0
03C003C0
01800180
00000000
00000000
00000000
00000000
00000000
00000000
00000000
00000000
00000000
00000000
00018000
0003C000
0003C000
00018000
00000000
00000000
00000000
00000000
00000000
00000000
00000000
ENDCHAR

STARTCHAR chs_A1E0
ENCODING 41440
SWIDTH 960 0
DWIDTH 32 0
BBX 32 32 0 -2
BITMAP
00000000
00000000
00000000
00000000
00000000
00000000
00000000
00018000
0003C000
0003C000
00018000
00000000
00000000
00000000
00000000
00000000
00000000
00000000
00000000
00000000
00000000
01800180
03C003C0
03C003C0
01800180
00000000
00000000
00000000
00000000
00000000
00000000
00000000
ENDCHAR

STARTCHAR chs_A1E1
ENCODING 41441
SWIDTH 960 0
DWIDTH 32 0
BBX 32 32 0 -2
BITMAP
00000000
00000000
00000000
00010000
00038000
00054000
00092000
00111000
00210800
00410400
00010000
00010000
00010000
00010000
00010000
00010000
00010000
0007C000
00183000
00200800
00200800
00400400
00400400
00400400
00400400
00200800
00200800
00183000
0007C000
00000000
00000000
00000000
ENDCHAR

STARTCHAR chs_A1E2
ENCODING 41442
SWIDTH 960 0
DWIDTH 32 0
BBX 32 32 0 -2
BITMAP
00000000
00000000
00000000
0007C000
00183000
00200800
00200800
00400400
00400400
00400400
00400400
00200800
00200800
00183000
0007C000
00010000
00010000
00010000
00010000
07FFFFC0
00010000
00010000
00010000
00010000
00010000
00010000
00010000
00010000
00010000
00000000
00000000
00000000
ENDCHAR

STARTCHAR chs_A1E3
ENCODING 41443
SWIDTH 960 0
DWIDTH 32 0
BBX 32 32 0 -2
BITMAP
00000000
07800000
08400000
10200000
10200000
10200000
10200000
08400000
07800000
00000000
00000000
00000000
00000000
00000000
00000000
00000000
00000000
00000000
00000000
00000000
00000000
00000000
00000000
00000000
00000000
00000000
00000000
00000000
00000000
00000000
00000000
00000000
ENDCHAR

STARTCHAR chs_A1E4
ENCODING 41444
SWIDTH 960 0
DWIDTH 32 0
BBX 32 32 0 -2
BITMAP
00000000
00800000
01C00000
03C00000
03800000
03800000
07000000
07000000
06000000
0C000000
08000000
00000000
00000000
00000000
00000000
00000000
00000000
00000000
00000000
00000000
00000000
00000000
00000000
00000000
00000000
00000000
00000000
00000000
00000000
00000000
00000000
00000000
ENDCHAR

STARTCHAR chs_A1E5
ENCODING 41445
SWIDTH 960 0
DWIDTH 32 0
BBX 32 32 0 -2
BITMAP
00000000
02080000
071C0000
0F3C0000
0E380000
0E380000
1C700000
1C700000
18600000
30C00000
20800000
00000000
00000000
00000000
00000000
00000000
00000000
00000000
00000000
00000000
00000000
00000000
00000000
00000000
00000000
00000000
00000000
00000000
00000000
00000000
00000000
00000000
ENDCHAR

STARTCHAR chs_A1E6
ENCODING 41446
SWIDTH 960 0
DWIDTH 32 0
BBX 32 32 0 -2
BITMAP
00000000
00000000
1C000000
22000000
2207FC00
220E0310
1C1800D0
00380070
00300030
00700010
00700010
00E00000
00E00000
00E00000
00E00000
00E00000
00E00000
00E00000
00E00000
00E00000
00E00000
00700000
00700010
00380030
001C0060
000E0180
00078700
0001FE00
00000000
00000000
00000000
00000000
ENDCHAR

STARTCHAR chs_A1E7
ENCODING 41447
SWIDTH 960 0
DWIDTH 32 0
BBX 32 32 0 -2
BITMAP
00000000
00010000
00010000
00010000
003FF840
00F10E40
01C103C0
038101C0
070100C0
07010040
07010040
07010000
03810000
03F10000
00FFC000
007FF800
000FFE00
00013F80
000107C0
000101C0
020100E0
020100E0
030100E0
038100E0
03C101C0
02710380
023D0F00
000FFC00
00010000
00010000
00010000
00000000
ENDCHAR

STARTCHAR chs_A1E8
ENCODING 41448
SWIDTH 960 0
DWIDTH 32 0
BBX 32 32 0 -2
BITMAP
00000000
00000000
00000000
3000000C
1807E018
0C1FF830
06F00F60
03C003C0
030000C0
030000C0
06000060
06000060
0C000030
0C000030
0C000030
0C000030
0C000030
0C000030
0C000030
0C000030
06000060
06000060
030000C0
030000C0
03C003C0
06F00F60
0C1FF830
1807E018
3000000C
00000000
00000000
00000000
ENDCHAR

STARTCHAR chs_A1E9
ENCODING 41449
SWIDTH 960 0
DWIDTH 32 0
BBX 32 32 0 -2
BITMAP
00000000
00000200
00000200
00000400
000FF440
003C1C40
00700F40
00E011C0
01C010C0
03802040
03802000
07804000
07004000
07008000
07008000
07010000
07010000
07020000
07020000
07040000
07040000
03880040
03880040
01D00080
00F00180
00780700
003E1E00
0047F800
00400000
00800000
00800000
00000000
ENDCHAR

STARTCHAR chs_A1EA
ENCODING 41450
SWIDTH 960 0
DWIDTH 32 0
BBX 32 32 0 -2
BITMAP
00000000
00000000
00000000
0003FC00
00060600
000C0700
000C0300
00380000
00380000
00380000
00380000
00380000
00380000
0FFFF800
001C0000
001C0000
001C0000
001C0000
001C0000
001C0000
001C0000
001C0000
079C0000
085C0000
10380008
10380010
103C0030
0847FFE0
0783FFC0
00000000
00000000
00000000
ENDCHAR

STARTCHAR chs_A1EB
ENCODING 41451
SWIDTH 960 0
DWIDTH 32 0
BBX 32 32 0 -2
BITMAP
00000000
00000000
00000000
07000800
08801000
10401000
10402000
10404000
10404000
10408000
10410000
10410000
10420000
08840000
07040000
00080000
00100000
001380E0
00244110
00482208
00482208
00882208
01082208
01082208
02082208
04082208
04082208
08044110
100380E0
00000000
00000000
00000000
ENDCHAR

STARTCHAR chs_A1EC
ENCODING 41452
SWIDTH 960 0
DWIDTH 32 0
BBX 32 32 0 -2
BITMAP
00000000
00000000
00000000
0003C000
00066000
000C3000
000C3000
000C0000
000C0000
00060000
00030000
0001C000
00066000
00063000
000C3000
000C3000
000C3000
000C3000
000C3000
00066000
00030000
00018000
0000E000
00003000
00003000
00183000
00183000
000C6000
0007C000
00000000
00000000
00000000
ENDCHAR

STARTCHAR chs_A1ED
ENCODING 41453
SWIDTH 960 0
DWIDTH 32 0
BBX 32 32 0 -2
BITMAP
00000000
00000000
00000000
1F003C00
03006600
01004E00
01804E00
01804400
01C04000
01C04000
016041E0
01604330
01304618
01304C0C
01184C0C
01184C0C
010C4C0C
010C4C0C
01064C0C
01064C0C
01034618
01034330
0101C1E0
0101C000
3100C000
3900C000
3900CFFC
1B004000
0E004000
00000000
00000000
00000000
ENDCHAR

STARTCHAR chs_A1EE
ENCODING 41454
SWIDTH 960 0
DWIDTH 32 0
BBX 32 32 0 -2
BITMAP
00000000
00000000
00000000
00018000
00018000
00024000
00024000
00024000
00042000
00042000
00081000
3FF81FFC
10000008
08000010
06000060
01000080
00C00300
00600600
00200400
00200400
00400200
00418200
00424200
00842100
00881100
00900900
01E00780
01800180
01000080
00000000
00000000
00000000
ENDCHAR

STARTCHAR chs_A1EF
ENCODING 41455
SWIDTH 960 0
DWIDTH 32 0
BBX 32 32 0 -2
BITMAP
00000000
00000000
00000000
00018000
00018000
0003C000
0003C000
0003C000
0007E000
0007E000
000FF000
3FFFFFFC
1FFFFFF8
0FFFFFF0
07FFFFE0
01FFFF80
00FFFF00
007FFE00
003FFC00
003FFC00
007FFE00
007FFE00
007E7E00
00FC3F00
00F81F00
01F00F80
01E00780
01800180
01000080
00000000
00000000
00000000
ENDCHAR

STARTCHAR chs_A1F0
ENCODING 41456
SWIDTH 960 0
DWIDTH 32 0
BBX 32 32 0 -2
BITMAP
00000000
00000000
00000000
000FF000
00300C00
00C00300
01000080
02000040
04000020
04000020
08000010
08000010
08000010
10000008
10000008
10000008
10000008
10000008
10000008
08000010
08000010
08000010
04000020
04000020
02000040
01000080
00C00300
00300C00
000FF000
00000000
00000000
00000000
ENDCHAR

STARTCHAR chs_A1F1
ENCODING 41457
SWIDTH 960 0
DWIDTH 32 0
BBX 32 32 0 -2
BITMAP
00000000
00000000
00000000
000FF000
003FFC00
00FFFF00
01FFFF80
03FFFFC0
07FFFFE0
07FFFFE0
0FFFFFF0
0FFFFFF0
0FFFFFF0
1FFFFFF8
1FFFFFF8
1FFFFFF8
1FFFFFF8
1FFFFFF8
1FFFFFF8
0FFFFFF0
0FFFFFF0
0FFFFFF0
07FFFFE0
07FFFFE0
03FFFFC0
01FFFF80
00FFFF00
003FFC00
000FF000
00000000
00000000
00000000
ENDCHAR

STARTCHAR chs_A1F2
ENCODING 41458
SWIDTH 960 0
DWIDTH 32 0
BBX 32 32 0 -2
BITMAP
00000000
00000000
00000000
000FF000
00300C00
00C00300
01000080
0203C040
040C3020
04300C20
08400210
08400210
08800110
10800108
11000088
11000088
11000088
11000088
10800108
08800110
08400210
08400210
04300C20
040C3020
0203C040
01000080
00C00300
00300C00
000FF000
00000000
00000000
00000000
ENDCHAR

STARTCHAR chs_A1F3
ENCODING 41459
SWIDTH 960 0
DWIDTH 32 0
BBX 32 32 0 -2
BITMAP
00000000
00018000
00024000
00042000
00081000
00100800
00200400
00400200
00800100
01000080
02000040
04000020
08000010
10000008
20000004
40000002
20000004
10000008
08000010
04000020
02000040
01000080
00800100
00400200
00200400
00100800
00081000
00042000
00024000
00018000
00000000
00000000
ENDCHAR

STARTCHAR chs_A1F4
ENCODING 41460
SWIDTH 960 0
DWIDTH 32 0
BBX 32 32 0 -2
BITMAP
00000000
00018000
0003C000
0007E000
000FF000
001FF800
003FFC00
007FFE00
00FFFF00
01FFFF80
03FFFFC0
07FFFFE0
0FFFFFF0
1FFFFFF8
3FFFFFFC
7FFFFFFE
3FFFFFFC
1FFFFFF8
0FFFFFF0
07FFFFE0
03FFFFC0
01FFFF80
00FFFF00
007FFE00
003FFC00
001FF800
000FF000
0007E000
0003C000
00018000
00000000
00000000
ENDCHAR

STARTCHAR chs_A1F5
ENCODING 41461
SWIDTH 960 0
DWIDTH 32 0
BBX 32 32 0 -2
BITMAP
00000000
00000000
00000000
1FFFFFF8
10000008
10000008
10000008
10000008
10000008
10000008
10000008
10000008
10000008
10000008
10000008
10000008
10000008
10000008
10000008
10000008
10000008
10000008
10000008
10000008
10000008
10000008
10000008
10000008
1FFFFFF8
00000000
00000000
00000000
ENDCHAR

STARTCHAR chs_A1F6
ENCODING 41462
SWIDTH 960 0
DWIDTH 32 0
BBX 32 32 0 -2
BITMAP
00000000
00000000
00000000
1FFFFFF8
1FFFFFF8
1FFFFFF8
1FFFFFF8
1FFFFFF8
1FFFFFF8
1FFFFFF8
1FFFFFF8
1FFFFFF8
1FFFFFF8
1FFFFFF8
1FFFFFF8
1FFFFFF8
1FFFFFF8
1FFFFFF8
1FFFFFF8
1FFFFFF8
1FFFFFF8
1FFFFFF8
1FFFFFF8
1FFFFFF8
1FFFFFF8
1FFFFFF8
1FFFFFF8
1FFFFFF8
1FFFFFF8
00000000
00000000
00000000
ENDCHAR

STARTCHAR chs_A1F7
ENCODING 41463
SWIDTH 960 0
DWIDTH 32 0
BBX 32 32 0 -2
BITMAP
00000000
00000000
00000000
00018000
00024000
00024000
00042000
00042000
00081000
00081000
00100800
00100800
00200400
00200400
00400200
00400200
00800100
00800100
01000080
01000080
02000040
02000040
04000020
04000020
08000010
08000010
10000008
1FFFFFF8
00000000
00000000
00000000
00000000
ENDCHAR

STARTCHAR chs_A1F8
ENCODING 41464
SWIDTH 960 0
DWIDTH 32 0
BBX 32 32 0 -2
BITMAP
00000000
00000000
00000000
00018000
0003C000
0003C000
0007E000
0007E000
000FF000
000FF000
001FF800
001FF800
003FFC00
003FFC00
007FFE00
007FFE00
00FFFF00
00FFFF00
01FFFF80
01FFFF80
03FFFFC0
03FFFFC0
07FFFFE0
07FFFFE0
0FFFFFF0
0FFFFFF0
1FFFFFF8
1FFFFFF8
00000000
00000000
00000000
00000000
ENDCHAR

STARTCHAR chs_A1F9
ENCODING 41465
SWIDTH 960 0
DWIDTH 32 0
BBX 32 32 0 -2
BITMAP
00000000
00000000
00000000
00000000
08000010
0C000030
06018060
0303C0C0
0183C180
00C18300
00600600
00300C00
00181800
000C3000
01866180
03C3C3C0
03C183C0
0183C180
00066000
000C3000
00181800
00300C00
00600600
00C18100
0183C180
0303C0C0
06018060
0C000030
08000010
00000000
00000000
00000000
ENDCHAR

STARTCHAR chs_A1FA
ENCODING 41466
SWIDTH 960 0
DWIDTH 32 0
BBX 32 32 0 -2
BITMAP
00000000
00000000
00000000
00000000
00000000
00000000
00000000
00000000
00000000
00000000
00000800
00000600
00000380
000001E0
000000FC
FFFFFFFF
000000FC
000001E0
00000380
00000600
00000800
00000000
00000000
00000000
00000000
00000000
00000000
00000000
00000000
00000000
00000000
00000000
ENDCHAR

STARTCHAR chs_A1FB
ENCODING 41467
SWIDTH 960 0
DWIDTH 32 0
BBX 32 32 0 -2
BITMAP
00000000
00000000
00000000
00000000
00000000
00000000
00000000
00000000
00000000
00000000
00100000
00600000
01C00000
07800000
3F000000
FFFFFFFF
3F000000
07800000
01C00000
00600000
00100000
00000000
00000000
00000000
00000000
00000000
00000000
00000000
00000000
00000000
00000000
00000000
ENDCHAR

STARTCHAR chs_A1FC
ENCODING 41468
SWIDTH 960 0
DWIDTH 32 0
BBX 32 32 0 -2
BITMAP
00010000
00010000
00038000
00038000
00038000
0007C000
0007C000
000FE000
000D6000
00193000
00111000
00210800
00010000
00010000
00010000
00010000
00010000
00010000
00010000
00010000
00010000
00010000
00010000
00010000
00010000
00010000
00010000
00010000
00010000
00010000
00010000
00010000
ENDCHAR

STARTCHAR chs_A1FD
ENCODING 41469
SWIDTH 960 0
DWIDTH 32 0
BBX 32 32 0 -2
BITMAP
00010000
00010000
00010000
00010000
00010000
00010000
00010000
00010000
00010000
00010000
00010000
00010000
00010000
00010000
00010000
00010000
00010000
00010000
00010000
00010000
00210800
00111000
00193000
000D6000
000FE000
0007C000
0007C000
00038000
00038000
00038000
00010000
00010000
ENDCHAR

STARTCHAR chs_A1FE
ENCODING 41470
SWIDTH 960 0
DWIDTH 32 0
BBX 32 32 0 -2
BITMAP
00000000
00000000
00000000
00000000
0FFFFFF8
0FFFFFF8
0FFFFFF8
0FFFFFF8
0FFFFFF8
0FFFFFF8
0FFFFFF8
0FFFFFF8
00000000
00000000
00000000
00000000
00000000
00000000
00000000
0FFFFFF8
0FFFFFF8
0FFFFFF8
0FFFFFF8
0FFFFFF8
0FFFFFF8
0FFFFFF8
0FFFFFF8
00000000
00000000
00000000
00000000
00000000
ENDCHAR

STARTCHAR chs_A2A1
ENCODING 41633
SWIDTH 960 0
DWIDTH 32 0
BBX 32 32 0 -2
BITMAP
00000000
20000002
00000000
00000000
00000000
00000000
00000000
00000000
00000000
00000000
00000000
00000000
00000000
00000000
00000000
00000000
00000000
00000000
00000000
00000000
00000000
00000000
00000000
00000000
00000000
00000000
00000000
00000000
00000000
00000000
20000002
00000000
ENDCHAR

STARTCHAR chs_A2B1
ENCODING 41649
SWIDTH 960 0
DWIDTH 32 0
BBX 32 32 0 -2
BITMAP
00000000
00000000
00000000
00008000
00018000
00038000
000F8000
00018000
00018000
00018000
00018000
00018000
00018000
00018000
00018000
00018000
00018000
00018000
00018000
00018000
00018000
00018000
00018000
00018000
00018030
00018078
0003C078
000FF030
00000000
00000000
00000000
00000000
ENDCHAR

STARTCHAR chs_A2B2
ENCODING 41650
SWIDTH 960 0
DWIDTH 32 0
BBX 32 32 0 -2
BITMAP
00000000
00000000
00000000
0007C000
001C6000
00183000
00303000
00303000
00383000
00383000
00183000
00003000
00003000
00006000
00006000
0000C000
0000C000
00018000
00018000
00030000
00030000
00060000
00060000
000C0000
000C1030
00181078
00383078
003FF030
00000000
00000000
00000000
00000000
ENDCHAR

STARTCHAR chs_A2B3
ENCODING 41651
SWIDTH 960 0
DWIDTH 32 0
BBX 32 32 0 -2
BITMAP
00000000
00000000
00000000
0007E000
000E3000
000C3800
00181800
001C1800
001C1800
00181800
00001800
00001800
00003000
00007000
0003C000
00007000
00003800
00001800
00001800
00001800
00001800
00001800
00181800
001C1800
001C1830
00183878
000C7078
0007E030
00000000
00000000
00000000
00000000
ENDCHAR

STARTCHAR chs_A2B4
ENCODING 41652
SWIDTH 960 0
DWIDTH 32 0
BBX 32 32 0 -2
BITMAP
00000000
00000000
00000000
00038000
00038000
00058000
00058000
00058000
00098000
00098000
00098000
00118000
00118000
00118000
00218000
00218000
00218000
00418000
00418000
00418000
00818000
01FFF800
00018000
00018000
00018030
00018078
0003C078
000FF030
00000000
00000000
00000000
00000000
ENDCHAR

STARTCHAR chs_A2B5
ENCODING 41653
SWIDTH 960 0
DWIDTH 32 0
BBX 32 32 0 -2
BITMAP
00000000
00000000
00000000
001FF800
00181800
00180800
00180000
00180000
00180000
00180000
00180000
001BE000
001E3800
001C1800
00181800
00001800
00001800
00001800
00001800
00001800
00001800
00181800
001C1800
00181800
001C1830
000C3878
000E7078
0007E030
00000000
00000000
00000000
00000000
ENDCHAR

STARTCHAR chs_A2B6
ENCODING 41654
SWIDTH 960 0
DWIDTH 32 0
BBX 32 32 0 -2
BITMAP
00000000
00000000
00000000
00004000
00008000
00018000
00030000
00060000
00060000
000C0000
000C0000
00180000
00180000
0019E000
001B3000
001C1800
00181800
00181800
00181800
00181800
00181800
00181800
00181800
00181800
00181830
001C3878
000E7078
0007E030
00000000
00000000
00000000
00000000
ENDCHAR

STARTCHAR chs_A2B7
ENCODING 41655
SWIDTH 960 0
DWIDTH 32 0
BBX 32 32 0 -2
BITMAP
00000000
00000000
00000000
003FF800
00303000
00203000
00003000
00003000
00006000
00006000
00006000
00006000
0000C000
0000C000
0000C000
0000C000
0000C000
00018000
00018000
00018000
00018000
00038000
00030000
00030000
00030030
00070078
00070078
000F0030
00000000
00000000
00000000
00000000
ENDCHAR

STARTCHAR chs_A2B8
ENCODING 41656
SWIDTH 960 0
DWIDTH 32 0
BBX 32 32 0 -2
BITMAP
00000000
00000000
00000000
0007E000
000E7000
001C3800
00181800
00181800
00181800
00181800
00181800
00181800
000C3000
000C3000
0007E000
000C3000
000C3000
00181800
00181800
00181800
00181800
00181800
00181800
00181800
00181830
001C3878
000E7078
0007E030
00000000
00000000
00000000
00000000
ENDCHAR

STARTCHAR chs_A2B9
ENCODING 41657
SWIDTH 960 0
DWIDTH 32 0
BBX 32 32 0 -2
BITMAP
00000000
00000000
00000000
0003E000
000E7000
001C3800
00181800
00181800
00181800
00181800
00181800
00181800
00181800
00181800
00181800
00183800
000CD800
00079800
00001800
00001800
00003000
00003000
00006000
00006000
0000C030
00018078
00010078
00020030
00000000
00000000
00000000
00000000
ENDCHAR

STARTCHAR chs_A2BA
ENCODING 41658
SWIDTH 960 0
DWIDTH 32 0
BBX 32 32 0 -2
BITMAP
00000000
00000000
00000000
0080FC00
0181CE00
03838300
0F830300
01830300
01830300
01830300
01830300
01830300
01830300
01830300
01830300
01830300
01830300
01830300
01830300
01830300
01830300
01830300
01830300
01830300
01830318
0183873C
03C1CE3C
0FF0FC18
00000000
00000000
00000000
00000000
ENDCHAR

STARTCHAR chs_A2BB
ENCODING 41659
SWIDTH 960 0
DWIDTH 32 0
BBX 32 32 0 -2
BITMAP
00000000
00000000
00000000
00801000
01803000
03807000
0F81F000
01803000
01803000
01803000
01803000
01803000
01803000
01803000
01803000
01803000
01803000
01803000
01803000
01803000
01803000
01803000
01803000
01803000
01803018
0180303C
03C0783C
0FF1FE18
00000000
00000000
00000000
00000000
ENDCHAR

STARTCHAR chs_A2BC
ENCODING 41660
SWIDTH 960 0
DWIDTH 32 0
BBX 32 32 0 -2
BITMAP
00000000
00000000
00000000
00807C00
0181C600
03818300
0F830300
01830300
01838300
01838300
01818300
01800300
01800600
01800600
01800600
01800C00
01800C00
01801800
01801800
01803000
01803000
01806000
01806000
0180C000
0180C118
0181813C
03C1833C
0FF3FF18
00000000
00000000
00000000
00000000
ENDCHAR

STARTCHAR chs_A2BD
ENCODING 41661
SWIDTH 960 0
DWIDTH 32 0
BBX 32 32 0 -2
BITMAP
00000000
00000000
00000000
0080FC00
0181C600
03818700
0F830300
01838300
01838300
01830300
01800300
01800300
01800600
01800E00
01807800
01800E00
01800700
01800300
01800300
01800300
01800300
01800300
01830300
01838300
01838318
0183073C
03C18E3C
0FF0FC18
00000000
00000000
00000000
00000000
ENDCHAR

STARTCHAR chs_A2BE
ENCODING 41662
SWIDTH 960 0
DWIDTH 32 0
BBX 32 32 0 -2
BITMAP
00000000
00000000
00000000
00801C00
01801C00
03802C00
0F802C00
01802C00
01804C00
01804C00
01804C00
01808C00
01808C00
01808C00
01810C00
01810C00
01810C00
01820C00
01820C00
01820C00
01840C00
018FFFC0
01800C00
01800C00
01800C18
01800C3C
03C01E3C
0FF07F98
00000000
00000000
00000000
00000000
ENDCHAR

STARTCHAR chs_A2BF
ENCODING 41663
SWIDTH 960 0
DWIDTH 32 0
BBX 32 32 0 -2
BITMAP
00000000
00000000
00000000
0083FF00
01830300
03830100
0F830000
01830000
01830000
01830000
01830000
01837C00
0183C700
01838300
01830300
01800300
01800300
01800300
01800300
01800300
01830300
01838300
01838300
01830300
01830318
0181873C
03C1CE3C
0FF0FC18
00000000
00000000
00000000
00000000
ENDCHAR

STARTCHAR chs_A2C0
ENCODING 41664
SWIDTH 960 0
DWIDTH 32 0
BBX 32 32 0 -2
BITMAP
00000000
00000000
00000000
00800800
01801000
03803000
0F806000
0180C000
0180C000
01818000
01818000
01830000
01830000
01833C00
01836600
01838300
01830300
01830300
01830300
01830300
01830300
01830300
01830300
01830300
01830318
0183873C
03C1CE3C
0FF0FC18
00000000
00000000
00000000
00000000
ENDCHAR

STARTCHAR chs_A2C1
ENCODING 41665
SWIDTH 960 0
DWIDTH 32 0
BBX 32 32 0 -2
BITMAP
00000000
00000000
00000000
0083FF80
01800300
03800300
0F800300
01800300
01800600
01800600
01800600
01800600
01800C00
01800C00
01800C00
01800C00
01800C00
01801800
01801800
01801800
01801800
01803800
01803000
01803000
01803018
0180703C
03C0703C
0FF0F018
00000000
00000000
00000000
00000000
ENDCHAR

STARTCHAR chs_A2C2
ENCODING 41666
SWIDTH 960 0
DWIDTH 32 0
BBX 32 32 0 -2
BITMAP
00000000
00000000
00000000
0080FC00
0181CE00
03838700
0F830300
01830300
01830300
01830300
01830300
01830300
01818600
01818600
0180FC00
01818600
01818600
01830300
01830300
01830300
01830300
01830300
01830300
01830300
01830318
0183873C
03C1CE3C
0FF0FC18
00000000
00000000
00000000
00000000
ENDCHAR

STARTCHAR chs_A2C3
ENCODING 41667
SWIDTH 960 0
DWIDTH 32 0
BBX 32 32 0 -2
BITMAP
00000000
00000000
00000000
00807C00
0181CE00
03838700
0F830300
01830300
01830300
01830300
01830300
01830300
01830300
01830300
01830300
01830700
01819B00
0180F300
01800300
01800300
01800600
01800600
01800C00
01800C00
01801818
0180303C
03C0203C
0FF04018
00000000
00000000
00000000
00000000
ENDCHAR

STARTCHAR chs_A2C4
ENCODING 41668
SWIDTH 960 0
DWIDTH 32 0
BBX 32 32 0 -2
BITMAP
00000000
00000000
00000000
03E03F00
0E307380
0C18E1C0
1818C0C0
1818C0C0
1C18C0C0
1C18C0C0
0C18C0C0
0018C0C0
0038C0C0
0030C0C0
0030C0C0
0060C0C0
0060C0C0
00C0C0C0
00C0C0C0
0180C0C0
0180C0C0
0300C0C0
0300C0C0
0600C0C0
0608C0CC
0C08E1DE
1C18739E
1FF83F0C
00000000
00000000
00000000
00000000
ENDCHAR

STARTCHAR chs_A2C5
ENCODING 41669
SWIDTH 960 0
DWIDTH 32 0
BBX 32 32 0 -2
BITMAP
00000000
00000000
00000000
01000080
02000040
06008060
0C018030
18038018
18078018
3001800C
3001800C
60018006
60018006
60018006
60018006
60018006
60018006
60018006
60018006
60018006
3001800C
3001800C
18018018
1803C018
0C0FF030
06000060
02000040
01000080
00000000
00000000
00000000
00000000
ENDCHAR

STARTCHAR chs_A2C6
ENCODING 41670
SWIDTH 960 0
DWIDTH 32 0
BBX 32 32 0 -2
BITMAP
00000000
00000000
00000000
01000080
02000040
0607F060
0C1C3C30
18300E18
18700618
3070060C
30700E0C
60300E06
60001C06
60001806
60003006
60006006
6000C006
60018006
60030006
60060006
300C000C
3018020C
18300218
18300618
0C7FFE30
06000060
02000040
01000080
00000000
00000000
00000000
00000000
ENDCHAR

STARTCHAR chs_A2C7
ENCODING 41671
SWIDTH 960 0
DWIDTH 32 0
BBX 32 32 0 -2
BITMAP
00000000
00000000
00000000
01000080
02000040
0607E060
0C1C3830
18300C18
18600618
3070060C
3060060C
60000E06
60001C06
60007006
60038006
60007006
60001C06
60000606
60000606
60600606
3070060C
3060060C
18300C18
181C1818
0C07F030
06000060
02000040
01000080
00000000
00000000
00000000
00000000
ENDCHAR

STARTCHAR chs_A2C8
ENCODING 41672
SWIDTH 960 0
DWIDTH 32 0
BBX 32 32 0 -2
BITMAP
00000000
00000000
00000000
01000080
02000040
06007060
0C00F030
1800F018
1801B018
3001300C
3003300C
60023006
60063006
60043006
600C3006
60083006
60183006
60103006
60303006
60203006
307FFE0C
3000300C
18003018
18003018
0C007830
06000060
02000040
01000080
00000000
00000000
00000000
00000000
ENDCHAR

STARTCHAR chs_A2C9
ENCODING 41673
SWIDTH 960 0
DWIDTH 32 0
BBX 32 32 0 -2
BITMAP
00000000
00000000
00000000
01000080
02000040
063FFE60
0C300630
18300218
18300018
3030000C
3030000C
6031E006
60373806
603E1C06
60380E06
60000606
60000606
60000606
60000606
60700606
3070060C
30600E0C
18701C18
18383818
0C1FF030
06000060
02000040
01000080
00000000
00000000
00000000
00000000
ENDCHAR

STARTCHAR chs_A2CA
ENCODING 41674
SWIDTH 960 0
DWIDTH 32 0
BBX 32 32 0 -2
BITMAP
00000000
00000000
00000000
01000080
02000040
0600C060
0C030030
18060018
180C0018
3018000C
3030000C
60300006
60600006
6063E006
606C3806
60700C06
60600606
60600606
60600606
60600606
3060060C
3060060C
18300C18
181C3818
0C0FF030
06000060
02000040
01000080
00000000
00000000
00000000
00000000
ENDCHAR

STARTCHAR chs_A2CB
ENCODING 41675
SWIDTH 960 0
DWIDTH 32 0
BBX 32 32 0 -2
BITMAP
00000000
00000000
00000000
01000080
02000040
063FFE60
0C000430
18000C18
18000818
3000180C
3000180C
60001006
60003006
60003006
60002006
60006006
60006006
60004006
6000C006
6000C006
3000800C
3001800C
18018018
18018018
0C038030
06000060
02000040
01000080
00000000
00000000
00000000
00000000
ENDCHAR

STARTCHAR chs_A2CC
ENCODING 41676
SWIDTH 960 0
DWIDTH 32 0
BBX 32 32 0 -2
BITMAP
00000000
00000000
00000000
01000080
02000040
0607E060
0C1C3830
18300C18
18300C18
30300C0C
30300C0C
60300C06
60300C06
601C3806
6007E006
601C3806
60300C06
60600606
60600606
60600606
3060060C
3060060C
18300C18
18381C18
0C0FF030
06000060
02000040
01000080
00000000
00000000
00000000
00000000
ENDCHAR

STARTCHAR chs_A2CD
ENCODING 41677
SWIDTH 960 0
DWIDTH 32 0
BBX 32 32 0 -2
BITMAP
00000000
00000000
00000000
01000080
02000040
060FF060
0C1C3830
18300C18
18600618
3060060C
3060060C
60600606
60600606
60600606
60300E06
601C3606
600FC606
60000606
60000C06
60000C06
3000180C
3000300C
18006018
1800C018
0C030030
06000060
02000040
01000080
00000000
00000000
00000000
00000000
ENDCHAR

STARTCHAR chs_A2CE
ENCODING 41678
SWIDTH 960 0
DWIDTH 32 0
BBX 32 32 0 -2
BITMAP
00000000
00000000
00000000
01000080
02000040
0660F860
0CE18C30
19E38E18
18630618
3063060C
3063060C
60630606
60630606
60630606
60630606
60630606
60630606
60630606
60630606
60630606
3063060C
3063060C
18638E18
18618C18
0CF0F830
06000060
02000040
01000080
00000000
00000000
00000000
00000000
ENDCHAR

STARTCHAR chs_A2CF
ENCODING 41679
SWIDTH 960 0
DWIDTH 32 0
BBX 32 32 0 -2
BITMAP
00000000
00000000
00000000
01000080
02000040
06180C60
0C381C30
18F87C18
18180C18
30180C0C
30180C0C
60180C06
60180C06
60180C06
60180C06
60180C06
60180C06
60180C06
60180C06
60180C06
30180C0C
30180C0C
18180C18
183C1E18
0C7E3F30
06000060
02000040
01000080
00000000
00000000
00000000
00000000
ENDCHAR

STARTCHAR chs_A2D0
ENCODING 41680
SWIDTH 960 0
DWIDTH 32 0
BBX 32 32 0 -2
BITMAP
00000000
00000000
00000000
01000080
02000040
0660FE60
0CE1C730
19E30318
18630318
3063830C
3063830C
60600306
60600306
60600606
60600606
60600C06
60600C06
60601806
60603006
60606006
3060C00C
3061800C
18618118
18630318
0CF3FF30
06000060
02000040
01000080
00000000
00000000
00000000
00000000
ENDCHAR

STARTCHAR chs_A2D1
ENCODING 41681
SWIDTH 960 0
DWIDTH 32 0
BBX 32 32 0 -2
BITMAP
00000000
00000000
00000000
01000080
02000040
06607860
0CE1CC30
19E18618
18630318
3063830C
3063030C
60600306
60600606
60601C06
6060F006
60601C06
60600606
60600306
60600306
60630306
3063830C
3063030C
18618318
1861C618
0CF07C30
06000060
02000040
01000080
00000000
00000000
00000000
00000000
ENDCHAR

STARTCHAR chs_A2D2
ENCODING 41682
SWIDTH 960 0
DWIDTH 32 0
BBX 32 32 0 -2
BITMAP
00000000
00000000
00000000
01000080
02000040
06601C60
0CE01C30
19E02C18
18602C18
30604C0C
30604C0C
60608C06
60608C06
60610C06
60610C06
60620C06
60620C06
60640C06
60640C06
606C0C06
306FFF8C
30600C0C
18600C18
18600C18
0CF01E30
06000060
02000040
01000080
00000000
00000000
00000000
00000000
ENDCHAR

STARTCHAR chs_A2D3
ENCODING 41683
SWIDTH 960 0
DWIDTH 32 0
BBX 32 32 0 -2
BITMAP
00000000
00000000
00000000
01000080
02000040
0663FF60
0CE30330
19E30118
18630018
3063000C
3063000C
60630006
60637806
6063CC06
60630606
60600306
60600306
60600306
60600306
60600306
3063830C
3063830C
18630718
1861CE18
0CF0FC30
06000060
02000040
01000080
00000000
00000000
00000000
00000000
ENDCHAR

STARTCHAR chs_A2D4
ENCODING 41684
SWIDTH 960 0
DWIDTH 32 0
BBX 32 32 0 -2
BITMAP
00000000
00000000
00000000
01000080
02000040
06600860
0CE03030
19E06018
1860C018
3060C00C
3061800C
60618006
60630006
60633C06
60636606
60638306
60630306
60630306
60630306
60630306
3063030C
3063030C
18618718
1861CE18
0CF0F830
06000060
02000040
01000080
00000000
00000000
00000000
00000000
ENDCHAR

STARTCHAR chs_A2D5
ENCODING 41685
SWIDTH 960 0
DWIDTH 32 0
BBX 32 32 0 -2
BITMAP
00000000
00000000
00000000
01000080
02000040
0663FF60
0CE30230
19E20218
18600618
3060060C
3060040C
60600C06
60600C06
60600C06
60600806
60601806
60601806
60601806
60601006
60603006
3060300C
3060300C
18607018
18607018
0CF07030
06000060
02000040
01000080
00000000
00000000
00000000
00000000
ENDCHAR

STARTCHAR chs_A2D6
ENCODING 41686
SWIDTH 960 0
DWIDTH 32 0
BBX 32 32 0 -2
BITMAP
00000000
00000000
00000000
01000080
02000040
0660FC60
0CE18630
19E30318
18630318
3063030C
3063030C
60630306
60630306
60618606
6060FC06
60618606
60630306
60630306
60630306
60630306
3063030C
3063030C
18630318
18618618
0CF0FC30
06000060
02000040
01000080
00000000
00000000
00000000
00000000
ENDCHAR

STARTCHAR chs_A2D7
ENCODING 41687
SWIDTH 960 0
DWIDTH 32 0
BBX 32 32 0 -2
BITMAP
00000000
00000000
00000000
01000080
02000040
0660FC60
0CE18630
19E30318
18630318
3063030C
3063030C
60630306
60630306
60630306
60630706
60619B06
6060F306
60600306
60600606
60600606
30600C0C
30600C0C
18601818
18603018
0CF04030
06000060
02000040
01000080
00000000
00000000
00000000
00000000
ENDCHAR

STARTCHAR chs_A2D8
ENCODING 41688
SWIDTH 960 0
DWIDTH 32 0
BBX 32 32 0 -2
BITMAP
00000000
00000000
00000000
01000080
02000040
063C1C60
0C6E3630
18C66318
18C66318
30C6630C
30E6630C
60E66306
60066306
60066306
600C6306
600C6306
600C6306
60186306
60186306
60306306
3030630C
3060630C
18626318
18C63618
0CFE1C30
06000060
02000040
01000080
00000000
00000000
00000000
00000000
ENDCHAR

STARTCHAR chs_A2D9
ENCODING 41689
SWIDTH 960 0
DWIDTH 32 0
BBX 32 32 0 -2
BITMAP
00000000
00000000
00000000
000FF000
00700E00
01800180
02000040
04018020
08038010
08078010
10018008
10018008
10018008
20018004
20018004
20018004
20018004
20018004
20018004
10018008
10018008
10018008
08018010
08018010
0403C020
02000040
01800180
00700E00
000FF000
00000000
00000000
00000000
ENDCHAR

STARTCHAR chs_A2DA
ENCODING 41690
SWIDTH 960 0
DWIDTH 32 0
BBX 32 32 0 -2
BITMAP
00000000
00000000
00000000
000FF000
00700E00
01800180
02000040
041FF820
08381C10
08300E10
10600608
10600608
10700E08
20701C04
20003804
20007004
2000C004
20018004
20030004
10060008
100C0008
10180208
08300210
08600610
047FFE20
02000040
01800180
00700E00
000FF000
00000000
00000000
00000000
ENDCHAR

STARTCHAR chs_A2DB
ENCODING 41691
SWIDTH 960 0
DWIDTH 32 0
BBX 32 32 0 -2
BITMAP
00000000
00000000
00000000
000FF000
00700E00
01800180
02000040
040FE020
08383810
08600C10
10700608
10600608
10000E08
20001C04
20007004
20038004
20007004
20001C04
20000E04
10600608
10700608
10600608
08300C10
081C1810
040FF020
02000040
01800180
00700E00
000FF000
00000000
00000000
00000000
ENDCHAR

STARTCHAR chs_A2DC
ENCODING 41692
SWIDTH 960 0
DWIDTH 32 0
BBX 32 32 0 -2
BITMAP
00000000
00000000
00000000
000FF000
00700E00
01800180
02000040
04007020
08007010
0800B010
10013008
10013008
10023008
20043004
20043004
20083004
20103004
20103004
20203004
10403008
10FFFE08
10003008
08003010
08003010
04007820
02000040
01800180
00700E00
000FF000
00000000
00000000
00000000
ENDCHAR

STARTCHAR chs_A2DD
ENCODING 41693
SWIDTH 960 0
DWIDTH 32 0
BBX 32 32 0 -2
BITMAP
00000000
00000000
00000000
000FF000
00700E00
01800180
02000040
043FFC20
08300C10
08300410
10300008
10300008
1033E008
20363804
20381C04
20300C04
20000C04
20000C04
20000C04
10700C08
10700C08
10600C08
08301C10
08383810
041FE020
02000040
01800180
00700E00
000FF000
00000000
00000000
00000000
ENDCHAR

STARTCHAR chs_A2DE
ENCODING 41694
SWIDTH 960 0
DWIDTH 32 0
BBX 32 32 0 -2
BITMAP
00000000
00000000
00000000
000FF000
00700E00
01800180
02000040
0400E020
08038010
08060010
100C0008
10180008
10300008
20300004
2063F004
206C3804
20700C04
20600604
20600604
10600608
10600608
10600608
08300C10
081C3810
040FF020
02000040
01800180
00700E00
000FF000
00000000
00000000
00000000
ENDCHAR

STARTCHAR chs_A2DF
ENCODING 41695
SWIDTH 960 0
DWIDTH 32 0
BBX 32 32 0 -2
BITMAP
00000000
00000000
00000000
000FF000
00700E00
01800180
02000040
047FFE20
08000410
08000C10
10000808
10001808
10001008
20003004
20003004
20006004
20006004
2000C004
2000C004
1000C008
10018008
10018008
08038010
08038010
04038020
02000040
01800180
00700E00
000FF000
00000000
00000000
00000000
ENDCHAR

STARTCHAR chs_A2E0
ENCODING 41696
SWIDTH 960 0
DWIDTH 32 0
BBX 32 32 0 -2
BITMAP
00000000
00000000
00000000
001FF000
00700E00
01800180
02000040
0407E020
081C3810
08381C10
10300C08
10300C08
10300C08
20300C04
20181804
200FF004
20381C04
20700E04
20600604
10600608
10600608
10700E08
08300C10
081C3810
040FF020
02000040
01800180
00700E00
000FF000
00000000
00000000
00000000
ENDCHAR

STARTCHAR chs_A2E1
ENCODING 41697
SWIDTH 960 0
DWIDTH 32 0
BBX 32 32 0 -2
BITMAP
00000000
00000000
00000000
000FF000
00700E00
01800180
02000040
040FF020
081C3810
08300C10
10600608
10600608
10600608
20600604
20600604
20300E04
201C3604
200FC604
20000C04
10000C08
10001808
10003008
08006010
0801C010
04070020
02000040
01800180
00700E00
000FF000
00000000
00000000
00000000
ENDCHAR

STARTCHAR chs_A2E2
ENCODING 41698
SWIDTH 960 0
DWIDTH 32 0
BBX 32 32 0 -2
BITMAP
00000000
00000000
00000000
000FF000
00700E00
01800180
02000040
0460F820
08E1DC10
09E38E10
10630608
10630608
10630608
20630604
20630604
20630604
20630604
20630604
20630604
10630608
10630608
10630608
08638E10
0861DC10
04F0F820
02000040
01800180
00700E00
000FF000
00000000
00000000
00000000
ENDCHAR

STARTCHAR chs_A2E5
ENCODING 41701
SWIDTH 960 0
DWIDTH 32 0
BBX 32 32 0 -2
BITMAP
00000000
00000000
00000000
01000080
02000040
06000060
0C000030
18000018
18000018
3000000C
3000000C
60000006
60000206
60000706
61FFFF86
60000006
60000006
60000006
60000006
60000006
3000000C
3000000C
18000018
18000018
0C000030
06000060
02000040
01000080
00000000
00000000
00000000
00000000
ENDCHAR

STARTCHAR chs_A2E6
ENCODING 41702
SWIDTH 960 0
DWIDTH 32 0
BBX 32 32 0 -2
BITMAP
00000000
00000000
00000000
01000080
02000040
06000060
0C000030
18000018
18000618
30FFFF0C
3000000C
60000006
60000006
60000006
60000006
60000006
60000006
60000006
60000006
60000206
3000070C
30FFFF8C
18000018
18000018
0C000030
06000060
02000040
01000080
00000000
00000000
00000000
00000000
ENDCHAR

STARTCHAR chs_A2E7
ENCODING 41703
SWIDTH 960 0
DWIDTH 32 0
BBX 32 32 0 -2
BITMAP
00000000
00000000
00000000
01000080
02000040
06000060
0C000030
18000C18
187FFE18
3000000C
3000000C
60000006
60000006
60000006
60001806
603FFC06
60000006
60000006
60000006
60000006
3000000C
3000020C
18000718
19FFFF98
0C000030
06000060
02000040
01000080
00000000
00000000
00000000
00000000
ENDCHAR

STARTCHAR chs_A2E8
ENCODING 41704
SWIDTH 960 0
DWIDTH 32 0
BBX 32 32 0 -2
BITMAP
00000000
00000000
00000000
01000080
02000040
06000060
0C800330
18FFFF98
18C66318
30C6630C
30C6630C
60C66306
60C66306
60C66306
60C66306
60C66306
60C66306
60CC7F06
60CC3B06
60D80306
30E0030C
30C0030C
18FFFF18
18C00318
0C800330
06000060
02000040
01000080
00000000
00000000
00000000
00000000
ENDCHAR

STARTCHAR chs_A2E9
ENCODING 41705
SWIDTH 960 0
DWIDTH 32 0
BBX 32 32 0 -2
BITMAP
00000000
00000000
00000000
01000080
02000040
06000060
0C000C30
18FFFE18
18030018
3003000C
3003000C
60030006
60030006
60031806
607FFC06
60061806
60061806
60061806
60061806
60061806
3006180C
3006180C
18061B18
19FFFF98
0C000030
06000060
02000040
01000080
00000000
00000000
00000000
00000000
ENDCHAR

STARTCHAR chs_A2EA
ENCODING 41706
SWIDTH 960 0
DWIDTH 32 0
BBX 32 32 0 -2
BITMAP
00000000
00000000
00000000
01000080
02000040
06040060
0C030030
18038018
18018018
3001010C
3000038C
63FFFFC6
60000006
60000006
60084006
600E2006
600C3006
601C1806
60181806
60300C06
30300C0C
30600E0C
18400618
18800618
0D000430
06000060
02000040
01000080
00000000
00000000
00000000
00000000
ENDCHAR

STARTCHAR chs_A2EB
ENCODING 41707
SWIDTH 960 0
DWIDTH 32 0
BBX 32 32 0 -2
BITMAP
00000000
00000000
00000000
01000080
02000040
06020060
0C030030
18038018
18030018
3003000C
3003010C
60030786
60033C06
6003E006
600F0006
607B0006
63C30006
60030006
60030206
60030206
3003020C
3003030C
1803FF18
1801FE18
0C000030
06000060
02000040
01000080
00000000
00000000
00000000
00000000
ENDCHAR

STARTCHAR chs_A2EC
ENCODING 41708
SWIDTH 960 0
DWIDTH 32 0
BBX 32 32 0 -2
BITMAP
00000000
00000000
00000000
01000080
02000040
06000060
0C00E030
18084018
180E4018
300C400C
300C600C
600C6006
600C2006
600C2006
600C3006
60183006
60181006
60181006
60301806
60301806
30600C0C
30600E0C
18C00F18
18800798
0D000230
06000060
02000040
01000080
00000000
00000000
00000000
00000000
ENDCHAR

STARTCHAR chs_A2ED
ENCODING 41709
SWIDTH 960 0
DWIDTH 32 0
BBX 32 32 0 -2
BITMAP
00000000
00000000
00000000
01000080
02000040
06040060
0C070030
18060018
18060018
3006000C
3006300C
6007F806
61FE3006
60063006
600C3006
600C3006
600C3006
60183006
60183006
60303106
3030310C
3060310C
18403198
18803F98
0D001F30
06000060
02000040
01000080
00000000
00000000
00000000
00000000
ENDCHAR

STARTCHAR chs_A2EE
ENCODING 41710
SWIDTH 960 0
DWIDTH 32 0
BBX 32 32 0 -2
BITMAP
00000000
00000000
00000000
01000080
02000040
06010060
0C01C030
18018018
18018018
3001800C
3001800C
60018006
60018106
60018386
63FFFFC6
60018006
60018006
60018006
60018006
60018006
3001800C
3001800C
18018018
18018018
0C018030
06000060
02000040
01000080
00000000
00000000
00000000
00000000
ENDCHAR

STARTCHAR chs_A2F1
ENCODING 41713
SWIDTH 960 0
DWIDTH 32 0
BBX 32 32 0 -2
BITMAP
00000000
00000000
00000000
001FF000
00038000
00038000
00038000
00038000
00038000
00038000
00038000
00038000
00038000
00038000
00038000
00038000
00038000
00038000
00038000
00038000
00038000
00038000
00038000
00038000
00038000
00038000
00038000
001FF000
00000000
00000000
00000000
00000000
ENDCHAR

STARTCHAR chs_A2F2
ENCODING 41714
SWIDTH 960 0
DWIDTH 32 0
BBX 32 32 0 -2
BITMAP
00000000
00000000
00000000
03FE7FC0
00700E00
00700E00
00700E00
00700E00
00700E00
00700E00
00700E00
00700E00
00700E00
00700E00
00700E00
00700E00
00700E00
00700E00
00700E00
00700E00
00700E00
00700E00
00700E00
00700E00
00700E00
00700E00
00700E00
03FE7FC0
00000000
00000000
00000000
00000000
ENDCHAR

STARTCHAR chs_A2F3
ENCODING 41715
SWIDTH 960 0
DWIDTH 32 0
BBX 32 32 0 -2
BITMAP
00000000
00000000
00000000
0FEFEFE0
03838380
03838380
03838380
03838380
03838380
03838380
03838380
03838380
03838380
03838380
03838380
03838380
03838380
03838380
03838380
03838380
03838380
03838380
03838380
03838380
03838380
03838380
03838380
0FEFEFE0
00000000
00000000
00000000
00000000
ENDCHAR

STARTCHAR chs_A2F4
ENCODING 41716
SWIDTH 960 0
DWIDTH 32 0
BBX 32 32 0 -2
BITMAP
00000000
00000000
00000000
1FBFC0FC
071E0038
070E0030
070E0030
070E0020
07070020
07070060
07070040
07038040
07038040
070380C0
0701C080
0701C080
0701C080
0700E180
0700E100
0700E100
07007100
07007300
07007200
07003A00
07003A00
07003A00
07001C00
1F801C00
00000000
00000000
00000000
00000000
ENDCHAR

STARTCHAR chs_A2F5
ENCODING 41717
SWIDTH 960 0
DWIDTH 32 0
BBX 32 32 0 -2
BITMAP
00000000
00000000
00000000
1FF807F8
078000C0
03800080
03800080
01C00180
01C00100
00E00100
00E00300
00E00200
00700200
00700600
00380400
00380400
00380C00
001C0800
001C0800
000E1800
000E1000
000E1000
00073000
00072000
00032000
0003A000
0001C000
0001C000
00000000
00000000
00000000
00000000
ENDCHAR

STARTCHAR chs_A2F6
ENCODING 41718
SWIDTH 960 0
DWIDTH 32 0
BBX 32 32 0 -2
BITMAP
00000000
00000000
00000000
3FE0FFF8
1E0038E0
0E0030E0
0E0020E0
0E0020E0
070020E0
070060E0
070040E0
038040E0
038040E0
0380C0E0
01C080E0
01C080E0
01C080E0
00E180E0
00E100E0
00E100E0
007100E0
007300E0
007200E0
003A00E0
003A00E0
003A00E0
001C00E0
001C03F8
00000000
00000000
00000000
00000000
ENDCHAR

STARTCHAR chs_A2F7
ENCODING 41719
SWIDTH 960 0
DWIDTH 32 0
BBX 32 32 0 -2
BITMAP
00000000
00000000
00000000
7F87FFFC
1C00CE70
1C008E70
1C008E70
0C008E70
0E018E70
0E010E70
06010E70
06010E70
07030E70
07020E70
03020E70
03020E70
03860E70
03840E70
01840E70
01840E70
00CC0E70
00C80E70
00C80E70
00680E70
00680E70
00700E70
00300E70
00303FFC
00000000
00000000
00000000
00000000
ENDCHAR

STARTCHAR chs_A2F8
ENCODING 41720
SWIDTH 960 0
DWIDTH 32 0
BBX 32 32 0 -2
BITMAP
00000000
00000000
00000000
7F1FFFFC
38067770
18047770
1C047770
1C047770
0C047770
0C0C7770
0E087770
0E087770
06087770
06087770
06187770
07107770
07107770
03107770
03107770
03107770
03B07770
03A07770
01A07770
01A07770
01E07770
00C07770
00C07770
00C1FFFC
00000000
00000000
00000000
00000000
ENDCHAR

STARTCHAR chs_A2F9
ENCODING 41721
SWIDTH 960 0
DWIDTH 32 0
BBX 32 32 0 -2
BITMAP
00000000
00000000
00000000
1FBF81FC
071E0070
070E0060
070700C0
07070080
07038100
07038100
0701C200
0701C400
0700E400
0700E800
07007000
07003800
07003800
07005C00
07004E00
07008E00
07008700
07010700
07030380
070201C0
070601C0
070C00E0
071C00F0
1FBF03FC
00000000
00000000
00000000
00000000
ENDCHAR

STARTCHAR chs_A2FA
ENCODING 41722
SWIDTH 960 0
DWIDTH 32 0
BBX 32 32 0 -2
BITMAP
00000000
00000000
00000000
1FF807F8
078000E0
038001C0
01C00380
00E00300
00E00600
00700400
00380800
00381000
001C2000
000E4000
00068000
00078000
00038000
0007C000
0004E000
00087000
00107000
00203800
00401C00
00800E00
01800700
03000380
070003C0
1FE00FF8
00000000
00000000
00000000
00000000
ENDCHAR

STARTCHAR chs_A2FB
ENCODING 41723
SWIDTH 960 0
DWIDTH 32 0
BBX 32 32 0 -2
BITMAP
00000000
00000000
00000000
7FC1FBF8
1E00E0E0
0E00C0E0
070080E0
070180E0
038100E0
038200E0
01C400E0
01C400E0
00E800E0
00E800E0
007000E0
007000E0
003800E0
007800E0
009C00E0
009C00E0
010E00E0
020E00E0
020700E0
040700E0
040380E0
080380E0
1801E0E0
7F0FFBF8
00000000
00000000
00000000
00000000
ENDCHAR

STARTCHAR chs_A2FC
ENCODING 41724
SWIDTH 960 0
DWIDTH 32 0
BBX 32 32 0 -2
BITMAP
00000000
00000000
00000000
7FC3FFFC
0F00CE70
07008E70
07018E70
03810E70
03830E70
01C20E70
01C40E70
00E40E70
00E80E70
00E80E70
00700E70
00700E70
00380E70
00780E70
00B80E70
009C0E70
011C0E70
020E0E70
020E0E70
04070E70
0C070E70
08038E70
1803CE70
7F0FFFFC
00000000
00000000
00000000
00000000
ENDCHAR

STARTCHAR chs_A3A1
ENCODING 41889
SWIDTH 960 0
DWIDTH 32 0
BBX 32 32 0 -2
BITMAP
00000000
00000000
00000000
01800000
03C00000
03C00000
03C00000
03C00000
03C00000
03C00000
03C00000
03C00000
03C00000
03C00000
01800000
01800000
01800000
01800000
01800000
01800000
01800000
00000000
00000000
00000000
01800000
03C00000
03C00000
01800000
00000000
00000000
00000000
00000000
ENDCHAR

STARTCHAR chs_A3A2
ENCODING 41890
SWIDTH 960 0
DWIDTH 32 0
BBX 32 32 0 -2
BITMAP
00000000
00181800
003C3C00
003C3C00
003C3C00
003C3C00
00181800
00181800
00181800
00181800
00181800
00000000
00000000
00000000
00000000
00000000
00000000
00000000
00000000
00000000
00000000
00000000
00000000
00000000
00000000
00000000
00000000
00000000
00000000
00000000
00000000
00000000
ENDCHAR

STARTCHAR chs_A3A3
ENCODING 41891
SWIDTH 960 0
DWIDTH 32 0
BBX 32 32 0 -2
BITMAP
00000000
00000000
00000000
00080400
00080400
00080400
00080400
00080400
00080400
00080FE0
001FFFE0
07FFF800
07F00800
00100800
00100800
00100800
00100800
00100800
00100FE0
001FFFE0
07FFF000
07E01000
00201000
00201000
00201000
00201000
00201000
00201000
00201000
00000000
00000000
00000000
ENDCHAR

STARTCHAR chs_A3A4
ENCODING 41892
SWIDTH 960 0
DWIDTH 32 0
BBX 32 32 0 -2
BITMAP
00000000
00000000
00000000
0FF007E0
038001C0
01C00380
01C00700
00E00600
00700C00
00701800
00381000
001C2000
000E4000
0007C000
00038000
00038000
00038000
00038000
07FFFFC0
00038000
00038000
00038000
00038000
00038000
00038000
00038000
00038000
00038000
001FF000
00000000
00000000
00000000
ENDCHAR

STARTCHAR chs_A3A5
ENCODING 41893
SWIDTH 960 0
DWIDTH 32 0
BBX 32 32 0 -2
BITMAP
00000000
00000000
00000000
00F00018
01980030
030C0060
030C00C0
030C0180
030C0300
030C0600
030C0C00
030C1800
030C3000
030C6000
0198C000
00F18000
00030F00
00061980
000C30C0
001830C0
003030C0
006030C0
00C030C0
018030C0
030030C0
060030C0
0C0030C0
18001980
30000F00
00000000
00000000
00000000
ENDCHAR

STARTCHAR chs_A3A6
ENCODING 41894
SWIDTH 960 0
DWIDTH 32 0
BBX 32 32 0 -2
BITMAP
00000000
00000000
00000000
001F0000
00398000
0060C000
0060C000
0060C000
0060C000
0060C000
00618000
00330000
00361FC0
001C0700
007C0200
01CE0200
03060200
06070400
04030400
0C038400
0C018C00
0C01C800
0C00F800
0C007004
06005804
0600DC08
03018E38
01FF07F0
007C03C0
00000000
00000000
00000000
ENDCHAR

STARTCHAR chs_A3A7
ENCODING 41895
SWIDTH 960 0
DWIDTH 32 0
BBX 32 32 0 -2
BITMAP
00000000
00E00000
01E00000
01E00000
03C00000
03800000
03800000
07000000
06000000
0C000000
08000000
10000000
00000000
00000000
00000000
00000000
00000000
00000000
00000000
00000000
00000000
00000000
00000000
00000000
00000000
00000000
00000000
00000000
00000000
00000000
00000000
00000000
ENDCHAR

STARTCHAR chs_A3A8
ENCODING 41896
SWIDTH 960 0
DWIDTH 32 0
BBX 32 32 0 -2
BITMAP
00000000
00000010
00000020
00000040
000000C0
00000180
00000180
00000300
00000300
00000600
00000600
00000600
00000C00
00000C00
00000C00
00000C00
00000C00
00000C00
00000C00
00000C00
00000600
00000600
00000600
00000300
00000300
00000180
00000180
000000C0
00000040
00000020
00000010
00000000
ENDCHAR

STARTCHAR chs_A3A9
ENCODING 41897
SWIDTH 960 0
DWIDTH 32 0
BBX 32 32 0 -2
BITMAP
00000000
08000000
04000000
02000000
03000000
01800000
01800000
00C00000
00C00000
00600000
00600000
00600000
00300000
00300000
00300000
00300000
00300000
00300000
00300000
00300000
00600000
00600000
00600000
00C00000
00C00000
01800000
01800000
03000000
02000000
04000000
08000000
00000000
ENDCHAR

STARTCHAR chs_A3AA
ENCODING 41898
SWIDTH 960 0
DWIDTH 32 0
BBX 32 32 0 -2
BITMAP
00000000
00000000
00000000
00010000
00010000
00010000
00010000
00010000
00010000
00010000
08010020
060100C0
01810300
00610C00
00193000
00054000
00038000
00028000
00044000
00082000
00101000
00200800
00400400
00800200
01000100
02000080
04000040
00000000
00000000
00000000
00000000
00000000
ENDCHAR

STARTCHAR chs_A3AB
ENCODING 41899
SWIDTH 960 0
DWIDTH 32 0
BBX 32 32 0 -2
BITMAP
00000000
00000000
00000000
00000000
00010000
00010000
00010000
00010000
00010000
00010000
00010000
00010000
00010000
00010000
00010000
0FFFFFE0
00010000
00010000
00010000
00010000
00010000
00010000
00010000
00010000
00010000
00010000
00010000
00000000
00000000
00000000
00000000
00000000
ENDCHAR

STARTCHAR chs_A3AC
ENCODING 41900
SWIDTH 960 0
DWIDTH 32 0
BBX 32 32 0 -2
BITMAP
00000000
00000000
00000000
00000000
00000000
00000000
00000000
00000000
00000000
00000000
00000000
00000000
00000000
00000000
00000000
00000000
00000000
00000000
00000000
00000000
00000000
00000000
00000000
00000000
01800000
03C00000
03C00000
01C00000
00C00000
00800000
01000000
02000000
ENDCHAR

STARTCHAR chs_A3AD
ENCODING 41901
SWIDTH 960 0
DWIDTH 32 0
BBX 32 32 0 -2
BITMAP
00000000
00000000
00000000
00000000
00000000
00000000
00000000
00000000
00000000
00000000
00000000
00000000
00000000
00000000
00000000
07FFFFE0
00000000
00000000
00000000
00000000
00000000
00000000
00000000
00000000
00000000
00000000
00000000
00000000
00000000
00000000
00000000
00000000
ENDCHAR

STARTCHAR chs_A3AE
ENCODING 41902
SWIDTH 960 0
DWIDTH 32 0
BBX 32 32 0 -2
BITMAP
00000000
00000000
00000000
00000000
00000000
00000000
00000000
00000000
00000000
00000000
00000000
00000000
00000000
00000000
00000000
00000000
00000000
00000000
00000000
00000000
00000000
00000000
00000000
00000000
01800000
03C00000
03C00000
01800000
00000000
00000000
00000000
00000000
ENDCHAR

STARTCHAR chs_A3AF
ENCODING 41903
SWIDTH 960 0
DWIDTH 32 0
BBX 32 32 0 -2
BITMAP
00000000
00000002
00000004
00000008
00000010
00000020
00000040
00000080
00000100
00000200
00000400
00000800
00001000
00002000
00004000
00008000
00010000
00020000
00040000
00080000
00100000
00200000
00400000
00800000
01000000
02000000
04000000
08000000
10000000
20000000
40000000
00000000
ENDCHAR

STARTCHAR chs_A3B0
ENCODING 41904
SWIDTH 960 0
DWIDTH 32 0
BBX 32 32 0 -2
BITMAP
00000000
00000000
0007E000
001C3800
00700E00
00E00700
00C00300
01C00380
01C00380
01C00380
01C00380
01C00380
01C00380
01C00380
01C00380
01C00380
01C00380
01C00380
01C00380
01C00380
01C00380
00C00300
00E00700
00781E00
001C3800
0007E000
00000000
00000000
00000000
00000000
00000000
00000000
ENDCHAR

STARTCHAR chs_A3B1
ENCODING 41905
SWIDTH 960 0
DWIDTH 32 0
BBX 32 32 0 -2
BITMAP
00000000
00000000
00018000
00038000
000F8000
001F8000
00038000
00038000
00038000
00038000
00038000
00038000
00038000
00038000
00038000
00038000
00038000
00038000
00038000
00038000
00038000
00038000
00038000
00038000
0007C000
003FF800
00000000
00000000
00000000
00000000
00000000
00000000
ENDCHAR

STARTCHAR chs_A3B2
ENCODING 41906
SWIDTH 960 0
DWIDTH 32 0
BBX 32 32 0 -2
BITMAP
00000000
00000000
000FC000
00387000
00F01C00
01E00E00
01C00700
03800700
03800700
07800700
07800700
07800E00
03001E00
00003C00
00007800
0000F000
0001E000
00078000
000F0000
003C0000
00780000
01E00040
03C00040
078000C0
070001C0
07FFFFC0
00000000
00000000
00000000
00000000
00000000
00000000
ENDCHAR

STARTCHAR chs_A3B3
ENCODING 41907
SWIDTH 960 0
DWIDTH 32 0
BBX 32 32 0 -2
BITMAP
00000000
00000000
000FF800
003C1E00
00700F00
00E00780
01C00780
01C00780
01C00780
01C00700
00800E00
00001C00
0003F800
00003E00
00000F80
000007C0
000001C0
000001E0
030001E0
078001E0
078001E0
078003C0
03C003C0
00C00780
00F81E00
003FF800
00000000
00000000
00000000
00000000
00000000
00000000
ENDCHAR

STARTCHAR chs_A3B4
ENCODING 41908
SWIDTH 960 0
DWIDTH 32 0
BBX 32 32 0 -2
BITMAP
00000000
00000000
00003E00
00007E00
0000EE00
0001CE00
0001CE00
00038E00
00070E00
000E0E00
000C0E00
00180E00
00300E00
00600E00
00C00E00
01800E00
03000E00
06000E00
0C000E00
0C000E00
0FFFFFF0
00000E00
00000E00
00000E00
00001F00
0000FFE0
00000000
00000000
00000000
00000000
00000000
00000000
ENDCHAR

STARTCHAR chs_A3B5
ENCODING 41909
SWIDTH 960 0
DWIDTH 32 0
BBX 32 32 0 -2
BITMAP
00000000
00000000
01FFFFC0
01C001C0
01C000C0
01C00040
01C00040
01C00000
01C00000
01C00000
01C3F800
01CC1E00
01F00780
01C003C0
000000C0
000000E0
000000E0
000000E0
030000E0
078000E0
078000E0
038001C0
03C001C0
01E00380
00F80F00
003FFC00
00000000
00000000
00000000
00000000
00000000
00000000
ENDCHAR

STARTCHAR chs_A3B6
ENCODING 41910
SWIDTH 960 0
DWIDTH 32 0
BBX 32 32 0 -2
BITMAP
00000000
00000000
0003FE00
000F8000
003C0000
00F00000
01E00000
03C00000
03800000
07000000
07000000
0707FC00
071E1F00
07380380
076001C0
078000E0
070000E0
070000E0
070000E0
070000E0
038000E0
038000E0
01C001C0
01E00380
00F80E00
003FFC00
00000000
00000000
00000000
00000000
00000000
00000000
ENDCHAR

STARTCHAR chs_A3B7
ENCODING 41911
SWIDTH 960 0
DWIDTH 32 0
BBX 32 32 0 -2
BITMAP
00000000
00000000
07FFFFE0
070000C0
060001C0
04000180
04000380
00000300
00000700
00000600
00000E00
00000C00
00001C00
00001C00
00003800
00003800
00007800
00007000
00007000
0000F000
0000E000
0001E000
0001E000
0001E000
0003C000
0003C000
00000000
00000000
00000000
00000000
00000000
00000000
ENDCHAR

STARTCHAR chs_A3B8
ENCODING 41912
SWIDTH 960 0
DWIDTH 32 0
BBX 32 32 0 -2
BITMAP
00000000
00000000
001FF800
00781E00
00E00700
01C00380
01C00380
01C00380
01C00380
01C00380
00E00700
00781E00
001FF800
00381C00
00E00700
01C00380
038001C0
070000E0
070000E0
070000E0
070000E0
070000E0
038001C0
03C003C0
01F81F80
007FFE00
00000000
00000000
00000000
00000000
00000000
00000000
ENDCHAR

STARTCHAR chs_A3B9
ENCODING 41913
SWIDTH 960 0
DWIDTH 32 0
BBX 32 32 0 -2
BITMAP
00000000
00000000
003FFC00
00F01F00
01E00780
038003C0
038001E0
070000E0
070000E0
070000E0
070000E0
070000E0
038001E0
03C002E0
01E00EE0
00F83CE0
003FF0E0
000000E0
000000E0
000001C0
000003C0
00000780
00000F00
00003C00
0001F000
007FC000
00000000
00000000
00000000
00000000
00000000
00000000
ENDCHAR

STARTCHAR chs_A3BA
ENCODING 41914
SWIDTH 960 0
DWIDTH 32 0
BBX 32 32 0 -2
BITMAP
00000000
00000000
00000000
00000000
00000000
00000000
00000000
00000000
00000000
00000000
00000000
00000000
00000000
00000000
00000000
00000000
00000000
01800000
03C00000
03C00000
01800000
00000000
00000000
00000000
01800000
03C00000
03C00000
01800000
00000000
00000000
00000000
00000000
ENDCHAR

STARTCHAR chs_A3BB
ENCODING 41915
SWIDTH 960 0
DWIDTH 32 0
BBX 32 32 0 -2
BITMAP
00000000
00000000
00000000
00000000
00000000
00000000
00000000
00000000
00000000
00000000
00000000
00000000
00000000
00000000
00000000
00000000
00000000
01800000
03C00000
03C00000
01800000
00000000
00000000
00000000
01800000
03C00000
03C00000
01C00000
00C00000
00800000
01000000
02000000
ENDCHAR

STARTCHAR chs_A3BC
ENCODING 41916
SWIDTH 960 0
DWIDTH 32 0
BBX 32 32 0 -2
BITMAP
00000000
00000000
00000000
00000030
000000C0
00000300
00000C00
00003000
0000C000
00030000
000C0000
00300000
00C00000
03000000
0C000000
10000000
0C000000
03000000
00C00000
00300000
000C0000
00030000
0000C000
00003000
00000C00
00000300
000000C0
00000030
00000000
00000000
00000000
00000000
ENDCHAR

STARTCHAR chs_A3BD
ENCODING 41917
SWIDTH 960 0
DWIDTH 32 0
BBX 32 32 0 -2
BITMAP
00000000
00000000
00000000
00000000
00000000
00000000
00000000
00000000
00000000
00000000
00000000
00000000
07FFFFE0
00000000
00000000
00000000
00000000
00000000
00000000
07FFFFE0
00000000
00000000
00000000
00000000
00000000
00000000
00000000
00000000
00000000
00000000
00000000
00000000
ENDCHAR

STARTCHAR chs_A3BE
ENCODING 41918
SWIDTH 960 0
DWIDTH 32 0
BBX 32 32 0 -2
BITMAP
00000000
00000000
00000000
0C000000
03000000
00C00000
00300000
000C0000
00030000
0000C000
00003000
00000C00
00000300
000000C0
00000030
00000008
00000030
000000C0
00000300
00000C00
00003000
0000C000
00030000
000C0000
00300000
00C00000
03000000
0C000000
00000000
00000000
00000000
00000000
ENDCHAR

STARTCHAR chs_A3BF
ENCODING 41919
SWIDTH 960 0
DWIDTH 32 0
BBX 32 32 0 -2
BITMAP
00000000
00000000
00000000
003E0000
00FF8000
0180C000
0300E000
03006000
03806000
03806000
0100C000
0000C000
00018000
00070000
001C0000
00180000
00180000
00180000
00180000
00180000
00180000
00000000
00000000
00000000
00180000
003C0000
003C0000
00180000
00000000
00000000
00000000
00000000
ENDCHAR

STARTCHAR chs_A3C0
ENCODING 41920
SWIDTH 960 0
DWIDTH 32 0
BBX 32 32 0 -2
BITMAP
00000000
00000000
003FF800
00FFFE00
03C00700
03000380
04000380
000001C0
000001C0
000001C0
007E41C0
00C3C1C0
0181C1C0
0180C1C0
0300C1C0
0300C1C0
0300C1C0
0300C1C0
0300C1C0
0300C1C0
0300C1C0
0300C1C0
0180C1C0
01C161C0
00E33380
007E1E00
00000000
00000000
00000000
00000000
00000000
00000000
ENDCHAR

STARTCHAR chs_A3C1
ENCODING 41921
SWIDTH 960 0
DWIDTH 32 0
BBX 32 32 0 -2
BITMAP
00000000
00000000
0001C000
0003E000
0002E000
0006E000
00047000
00047000
00087000
00083800
00183800
00103C00
00101C00
00201C00
00200E00
00600E00
00400F00
00FFFF00
00800700
00800780
01000380
010003C0
030001C0
020001E0
0F0001F0
3FE01FFC
00000000
00000000
00000000
00000000
00000000
00000000
ENDCHAR

STARTCHAR chs_A3C2
ENCODING 41922
SWIDTH 960 0
DWIDTH 32 0
BBX 32 32 0 -2
BITMAP
00000000
00000000
03FFFC00
00F00F00
00700780
00700380
00700380
00700380
00700380
00700380
00700300
00700600
00700C00
007FFE00
00700780
007001C0
007000C0
007000E0
007000E0
007000E0
007000E0
007000E0
007000C0
007001C0
00F00780
07FFFE00
00000000
00000000
00000000
00000000
00000000
00000000
ENDCHAR

STARTCHAR chs_A3C3
ENCODING 41923
SWIDTH 960 0
DWIDTH 32 0
BBX 32 32 0 -2
BITMAP
00000000
00000000
0007F840
001C0E40
003803C0
006001C0
00E000C0
01C00060
01C00060
03800020
03800020
03800000
03800000
03800000
03800000
03800000
03800000
03800000
03800000
01C00000
01C00020
00E00020
00E000C0
00380380
001C0E00
0007F800
00000000
00000000
00000000
00000000
00000000
00000000
ENDCHAR

STARTCHAR chs_A3C4
ENCODING 41924
SWIDTH 960 0
DWIDTH 32 0
BBX 32 32 0 -2
BITMAP
00000000
00000000
0FFFF800
01E07E00
00E00F00
00E003C0
00E001E0
00E000E0
00E000E0
00E00070
00E00070
00E00070
00E00070
00E00070
00E00070
00E00070
00E00070
00E00070
00E00070
00E000E0
00E000E0
00E001C0
00E00380
00E00F00
01E07E00
0FFFF800
00000000
00000000
00000000
00000000
00000000
00000000
ENDCHAR

STARTCHAR chs_A3C5
ENCODING 41925
SWIDTH 960 0
DWIDTH 32 0
BBX 32 32 0 -2
BITMAP
00000000
00000000
07FFFFC0
00F801C0
007000C0
00700040
00700040
00700000
00700000
00700400
00700400
00700400
00700C00
007FFC00
00700C00
00700400
00700400
00700400
00700000
00700000
00700020
00700020
00700060
00700060
00F800E0
07FFFFE0
00000000
00000000
00000000
00000000
00000000
00000000
ENDCHAR

STARTCHAR chs_A3C6
ENCODING 41926
SWIDTH 960 0
DWIDTH 32 0
BBX 32 32 0 -2
BITMAP
00000000
00000000
07FFFFC0
00F801C0
007000C0
007000C0
00700040
00700040
00700000
00700400
00700400
00700400
00700C00
007FFC00
00700C00
00700400
00700400
00700400
00700000
00700000
00700000
00700000
00700000
00700000
00F80000
07FF0000
00000000
00000000
00000000
00000000
00000000
00000000
ENDCHAR

STARTCHAR chs_A3C7
ENCODING 41927
SWIDTH 960 0
DWIDTH 32 0
BBX 32 32 0 -2
BITMAP
00000000
00000000
000FF080
00383C80
00F00780
01C00380
03800180
07000080
070000C0
0E000040
0E000040
0E000000
0E000000
0E000000
0E001FFC
0E0003E0
0E0001C0
0E0001C0
0F0001C0
070001C0
078001C0
03C003C0
01E00700
00F00F00
00783C00
001FF000
00000000
00000000
00000000
00000000
00000000
00000000
ENDCHAR

STARTCHAR chs_A3C8
ENCODING 41928
SWIDTH 960 0
DWIDTH 32 0
BBX 32 32 0 -2
BITMAP
00000000
00000000
3FF00FFC
07C003E0
038001C0
038001C0
038001C0
038001C0
038001C0
038001C0
038001C0
038001C0
038001C0
03FFFFC0
038001C0
038001C0
038001C0
038001C0
038001C0
038001C0
038001C0
038001C0
038001C0
038001C0
07C003E0
3FF00FFC
00000000
00000000
00000000
00000000
00000000
00000000
ENDCHAR

STARTCHAR chs_A3C9
ENCODING 41929
SWIDTH 960 0
DWIDTH 32 0
BBX 32 32 0 -2
BITMAP
00000000
00000000
003FF800
0007C000
00038000
00038000
00038000
00038000
00038000
00038000
00038000
00038000
00038000
00038000
00038000
00038000
00038000
00038000
00038000
00038000
00038000
00038000
00038000
00038000
0007C000
003FF800
00000000
00000000
00000000
00000000
00000000
00000000
ENDCHAR

STARTCHAR chs_A3CA
ENCODING 41930
SWIDTH 960 0
DWIDTH 32 0
BBX 32 32 0 -2
BITMAP
00000000
00000000
003FFE00
0003E000
0001C000
0001C000
0001C000
0001C000
0001C000
0001C000
0001C000
0001C000
0001C000
0001C000
0001C000
0001C000
0001C000
0001C000
0001C000
0181C000
03C1C000
03C1C000
03C1C000
01C38000
00E70000
007E0000
00000000
00000000
00000000
00000000
00000000
00000000
ENDCHAR

STARTCHAR chs_A3CB
ENCODING 41931
SWIDTH 960 0
DWIDTH 32 0
BBX 32 32 0 -2
BITMAP
00000000
00000000
0FFC7FE0
03E00700
01C00C00
01C01800
01C03000
01C06000
01C0C000
01C18000
01C30000
01C60000
01CF0000
01DF8000
01F38000
01E1C000
01C1E000
01C0F000
01C07800
01C07800
01C03C00
01C01E00
01C00F00
01C00780
03E007C0
0FFC1FF8
00000000
00000000
00000000
00000000
00000000
00000000
ENDCHAR

STARTCHAR chs_A3CC
ENCODING 41932
SWIDTH 960 0
DWIDTH 32 0
BBX 32 32 0 -2
BITMAP
00000000
00000000
07FF0000
00F80000
00700000
00700000
00700000
00700000
00700000
00700000
00700000
00700000
00700000
00700000
00700000
00700000
00700000
00700040
00700040
007000C0
007000C0
00700080
00700180
00700380
00F80780
07FFFF80
00000000
00000000
00000000
00000000
00000000
00000000
ENDCHAR

STARTCHAR chs_A3CD
ENCODING 41933
SWIDTH 960 0
DWIDTH 32 0
BBX 32 32 0 -2
BITMAP
00000000
00000000
3F8001FC
0F8001F0
07C002E0
05C002E0
05C002E0
04E004E0
04E004E0
04E004E0
047008E0
047008E0
047008E0
043810E0
043810E0
043810E0
041C20E0
041C20E0
041C40E0
040E40E0
040E80E0
040F80E0
040780E0
040700E0
0E0301F0
3F8207FC
00000000
00000000
00000000
00000000
00000000
00000000
ENDCHAR

STARTCHAR chs_A3CE
ENCODING 41934
SWIDTH 960 0
DWIDTH 32 0
BBX 32 32 0 -2
BITMAP
00000000
00000000
1F8007FC
078000E0
03C00040
01E00040
01F00040
01780040
013C0040
011E0040
010F0040
01078040
0103C040
0101E040
0100F040
01007840
01003C40
01001E40
01000F40
010007C0
010003C0
010001C0
010001C0
010000C0
03800040
1FF00040
00000000
00000000
00000000
00000000
00000000
00000000
ENDCHAR

STARTCHAR chs_A3CF
ENCODING 41935
SWIDTH 960 0
DWIDTH 32 0
BBX 32 32 0 -2
BITMAP
00000000
00000000
0007E000
00381C00
00E00700
01800180
030000C0
06000060
0C000030
0C000030
1C000038
1C000038
1C000038
1C000038
1C000038
1C000038
1C000038
1C000038
0C000030
0C000030
06000060
030000C0
01800180
00E00700
00381C00
0007E000
00000000
00000000
00000000
00000000
00000000
00000000
ENDCHAR

STARTCHAR chs_A3D0
ENCODING 41936
SWIDTH 960 0
DWIDTH 32 0
BBX 32 32 0 -2
BITMAP
00000000
00000000
0FFFFC00
01E00700
00E00380
00E001C0
00E001C0
00E001C0
00E001C0
00E001C0
00E001C0
00E00380
00E00700
00FFFC00
00E00000
00E00000
00E00000
00E00000
00E00000
00E00000
00E00000
00E00000
00E00000
00E00000
01F00000
0FFE0000
00000000
00000000
00000000
00000000
00000000
00000000
ENDCHAR

STARTCHAR chs_A3D1
ENCODING 41937
SWIDTH 960 0
DWIDTH 32 0
BBX 32 32 0 -2
BITMAP
00000000
00000000
000FF000
00381C00
00E00700
01800180
038001C0
070000E0
06000060
0E000070
0E000070
0E000070
0E000070
0E000070
0E000070
0E000070
0E000070
0E000070
0E03C070
060FE060
071C70E0
03B819C0
01B00D84
00F00704
00381F88
000FF1F8
000000F0
00000000
00000000
00000000
00000000
00000000
ENDCHAR

STARTCHAR chs_A3D2
ENCODING 41938
SWIDTH 960 0
DWIDTH 32 0
BBX 32 32 0 -2
BITMAP
00000000
00000000
0FFFFC00
01E00700
00E00380
00E001C0
00E001C0
00E001C0
00E001C0
00E001C0
00E001C0
00E00380
00E00700
00FFFC00
00E1E000
00E0F000
00E07800
00E07800
00E03C00
00E03C00
00E01E00
00E00F00
00E00F80
00E007C0
01F003F0
0FFE03F8
00000000
00000000
00000000
00000000
00000000
00000000
ENDCHAR

STARTCHAR chs_A3D3
ENCODING 41939
SWIDTH 960 0
DWIDTH 32 0
BBX 32 32 0 -2
BITMAP
00000000
00000000
003FF080
00781C80
00E00780
01C00380
01800180
03800080
03800080
03C00080
01E00000
00FC0000
007F8000
001FF000
0007FC00
0000FE00
00001F00
02000780
02000380
02000380
03000380
03000380
03800780
03E00F00
023C1E00
0207F800
00000000
00000000
00000000
00000000
00000000
00000000
ENDCHAR

STARTCHAR chs_A3D4
ENCODING 41940
SWIDTH 960 0
DWIDTH 32 0
BBX 32 32 0 -2
BITMAP
00000000
00000000
03FFFFE0
0381C0E0
0301C060
0601C030
0401C010
0401C010
0001C000
0001C000
0001C000
0001C000
0001C000
0001C000
0001C000
0001C000
0001C000
0001C000
0001C000
0001C000
0001C000
0001C000
0001C000
0001C000
0003E000
001FFC00
00000000
00000000
00000000
00000000
00000000
00000000
ENDCHAR

STARTCHAR chs_A3D5
ENCODING 41941
SWIDTH 960 0
DWIDTH 32 0
BBX 32 32 0 -2
BITMAP
00000000
00000000
1FFC0FF8
03E001C0
01C00080
01C00080
01C00080
01C00080
01C00080
01C00080
01C00080
01C00080
01C00080
01C00080
01C00080
01C00080
01C00080
01C00080
01C00080
01C00080
01C00080
01E00080
00E00100
00700300
003C0E00
001FF800
00000000
00000000
00000000
00000000
00000000
00000000
ENDCHAR

STARTCHAR chs_A3D6
ENCODING 41942
SWIDTH 960 0
DWIDTH 32 0
BBX 32 32 0 -2
BITMAP
00000000
00000000
1FF807F8
03C000E0
01C000C0
01C00180
00E00180
00E00100
00E00300
00700200
00700600
00700400
00380C00
00380800
00380800
001C1000
001C1000
001C1000
000E2000
000E2000
000E6000
00074000
00074000
0003C000
00038000
00038000
00000000
00000000
00000000
00000000
00000000
00000000
ENDCHAR

STARTCHAR chs_A3D7
ENCODING 41943
SWIDTH 960 0
DWIDTH 32 0
BBX 32 32 0 -2
BITMAP
00000000
00000000
7FCFF8FE
1E03C018
0C018010
0C018030
0E01C020
0601C020
0602E020
07026040
03026040
03026040
03046040
03847080
01843080
01843080
01883100
01C83900
00C81900
00D01A00
00D01A00
00F01E00
00600C00
00600C00
00600C00
00600C00
00000000
00000000
00000000
00000000
00000000
00000000
ENDCHAR

STARTCHAR chs_A3D8
ENCODING 41944
SWIDTH 960 0
DWIDTH 32 0
BBX 32 32 0 -2
BITMAP
00000000
00000000
3FF807FC
07C00070
03800060
01C000C0
00E00180
00700300
00380600
001C0C00
000E1800
00073000
0003E000
0003C000
0001C000
0001E000
00037000
00063800
000C1C00
00180E00
00300700
00600380
00C001C0
018000E0
038001F0
3FF807FC
00000000
00000000
00000000
00000000
00000000
00000000
ENDCHAR

STARTCHAR chs_A3D9
ENCODING 41945
SWIDTH 960 0
DWIDTH 32 0
BBX 32 32 0 -2
BITMAP
00000000
00000000
0FF803F8
03C000E0
01E000C0
00E00180
00F00100
00780300
00380200
003C0600
001E0400
000F0800
000F1800
00079000
0003E000
0001C000
0001C000
0001C000
0001C000
0001C000
0001C000
0001C000
0001C000
0001C000
0003E000
003FFE00
00000000
00000000
00000000
00000000
00000000
00000000
ENDCHAR

STARTCHAR chs_A3DA
ENCODING 41946
SWIDTH 960 0
DWIDTH 32 0
BBX 32 32 0 -2
BITMAP
00000000
00000000
03FFFFE0
038003C0
03000780
02000F00
06000E00
04001C00
04003C00
00007800
0000F000
0000E000
0001E000
0003C000
00078000
000F0000
000E0000
001C0000
00380000
00700020
00E00020
01E00060
03C00040
03C000C0
078001C0
07FFFFC0
00000000
00000000
00000000
00000000
00000000
00000000
ENDCHAR

STARTCHAR chs_A3DB
ENCODING 41947
SWIDTH 960 0
DWIDTH 32 0
BBX 32 32 0 -2
BITMAP
00000000
00000FF0
00000800
00000800
00000800
00000800
00000800
00000800
00000800
00000800
00000800
00000800
00000800
00000800
00000800
00000800
00000800
00000800
00000800
00000800
00000800
00000800
00000800
00000800
00000800
00000800
00000800
00000800
00000800
00000800
00000FF0
00000000
ENDCHAR

STARTCHAR chs_A3DC
ENCODING 41948
SWIDTH 960 0
DWIDTH 32 0
BBX 32 32 0 -2
BITMAP
00000000
40000000
20000000
10000000
08000000
04000000
02000000
01000000
00800000
00400000
00200000
00100000
00080000
00040000
00020000
00010000
00008000
00004000
00002000
00001000
00000800
00000400
00000200
00000100
00000080
00000040
00000020
00000010
00000008
00000004
00000002
00000000
ENDCHAR

STARTCHAR chs_A3DD
ENCODING 41949
SWIDTH 960 0
DWIDTH 32 0
BBX 32 32 0 -2
BITMAP
00000000
0FF00000
00100000
00100000
00100000
00100000
00100000
00100000
00100000
00100000
00100000
00100000
00100000
00100000
00100000
00100000
00100000
00100000
00100000
00100000
00100000
00100000
00100000
00100000
00100000
00100000
00100000
00100000
00100000
00100000
0FF00000
00000000
ENDCHAR

STARTCHAR chs_A3DE
ENCODING 41950
SWIDTH 960 0
DWIDTH 32 0
BBX 32 32 0 -2
BITMAP
00000000
00000000
00000000
00010000
00038000
00028000
00044000
00044000
00082000
00082000
00101000
00101000
00000000
00000000
00000000
00000000
00000000
00000000
00000000
00000000
00000000
00000000
00000000
00000000
00000000
00000000
00000000
00000000
00000000
00000000
00000000
00000000
ENDCHAR

STARTCHAR chs_A3DF
ENCODING 41951
SWIDTH 960 0
DWIDTH 32 0
BBX 32 32 0 -2
BITMAP
00000000
00000000
00000000
00000000
00000000
00000000
00000000
00000000
00000000
00000000
00000000
00000000
00000000
00000000
00000000
00000000
00000000
00000000
00000000
00000000
00000000
00000000
00000000
00000000
00000000
00000000
00000000
00000000
00000000
00000000
00000000
FFFFFFFF
ENDCHAR

STARTCHAR chs_A3E0
ENCODING 41952
SWIDTH 960 0
DWIDTH 32 0
BBX 32 32 0 -2
BITMAP
00000000
00000700
00000780
00000780
000003C0
000001C0
000001C0
000000E0
00000060
00000030
00000010
00000008
00000000
00000000
00000000
00000000
00000000
00000000
00000000
00000000
00000000
00000000
00000000
00000000
00000000
00000000
00000000
00000000
00000000
00000000
00000000
00000000
ENDCHAR

STARTCHAR chs_A3E1
ENCODING 41953
SWIDTH 960 0
DWIDTH 32 0
BBX 32 32 0 -2
BITMAP
00000000
00000000
00000000
00000000
00000000
00000000
00000000
00000000
00000000
0007E000
001CF000
00383800
00701800
00701800
00301800
00001800
0003F800
000F1800
001C1800
00301800
00701800
00603800
0060D800
00619900
007F1E00
003E0C00
00000000
00000000
00000000
00000000
00000000
00000000
ENDCHAR

STARTCHAR chs_A3E2
ENCODING 41954
SWIDTH 960 0
DWIDTH 32 0
BBX 32 32 0 -2
BITMAP
00100000
00300000
00F00000
00300000
00300000
00300000
00300000
00300000
00300000
0031E000
00333000
00341800
00380C00
00300C00
00300C00
00300C00
00300C00
00300C00
00300C00
00300C00
00300C00
00300C00
00380C00
00341800
00333000
0021E000
00000000
00000000
00000000
00000000
00000000
00000000
ENDCHAR

STARTCHAR chs_A3E3
ENCODING 41955
SWIDTH 960 0
DWIDTH 32 0
BBX 32 32 0 -2
BITMAP
00000000
00000000
00000000
00000000
00000000
00000000
00000000
00000000
00000000
0007F000
001C3800
00381C00
00301C00
00701C00
00600C00
00600000
00600000
00600000
00600000
00600200
00600200
00700400
00300C00
00380C00
001C3800
0007F000
00000000
00000000
00000000
00000000
00000000
00000000
ENDCHAR

STARTCHAR chs_A3E4
ENCODING 41956
SWIDTH 960 0
DWIDTH 32 0
BBX 32 32 0 -2
BITMAP
00000800
00001800
00007800
00001800
00001800
00001800
00001800
00001800
00001800
000F9800
0018D800
00307800
00703800
00601800
00601800
00601800
00601800
00601800
00601800
00601800
00601800
00601800
00703800
00305E00
00199800
000F1000
00000000
00000000
00000000
00000000
00000000
00000000
ENDCHAR

STARTCHAR chs_A3E5
ENCODING 41957
SWIDTH 960 0
DWIDTH 32 0
BBX 32 32 0 -2
BITMAP
00000000
00000000
00000000
00000000
00000000
00000000
00000000
00000000
00000000
000FC000
001C6000
00303000
00601800
00601800
00601800
00601800
007FF800
00600000
00600000
00600000
00600000
00600800
00300800
00301000
00183000
000FE000
00000000
00000000
00000000
00000000
00000000
00000000
ENDCHAR

STARTCHAR chs_A3E6
ENCODING 41958
SWIDTH 960 0
DWIDTH 32 0
BBX 32 32 0 -2
BITMAP
0000F000
0001B800
00031C00
00031C00
00030C00
00030000
00030000
00030000
00030000
003FF000
00030000
00030000
00030000
00030000
00030000
00030000
00030000
00030000
00030000
00030000
00030000
00030000
00030000
00030000
00078000
001FE000
00000000
00000000
00000000
00000000
00000000
00000000
ENDCHAR

STARTCHAR chs_A3E7
ENCODING 41959
SWIDTH 960 0
DWIDTH 32 0
BBX 32 32 0 -2
BITMAP
00000000
00000000
00000000
00000000
00000000
00000000
00000000
00000000
00000000
0007C400
000C2C00
00181C00
00300C00
00300C00
00300C00
00300C00
00300C00
00300C00
00300C00
00300C00
00300C00
00181C00
000C2C00
0007CC00
00000C00
00000C00
00000C00
00000C00
00300C00
00301800
00181800
000FF000
ENDCHAR

STARTCHAR chs_A3E8
ENCODING 41960
SWIDTH 960 0
DWIDTH 32 0
BBX 32 32 0 -2
BITMAP
00100000
00300000
00F00000
00300000
00300000
00300000
00300000
00300000
00300000
0033F000
00361800
00340C00
00380C00
00300C00
00300C00
00300C00
00300C00
00300C00
00300C00
00300C00
00300C00
00300C00
00300C00
00300C00
00300C00
00FC1E00
00000000
00000000
00000000
00000000
00000000
00000000
ENDCHAR

STARTCHAR chs_A3E9
ENCODING 41961
SWIDTH 960 0
DWIDTH 32 0
BBX 32 32 0 -2
BITMAP
00000000
00030000
00078000
00078000
00030000
00000000
00000000
00000000
00000000
00008000
00018000
00038000
000F8000
00018000
00018000
00018000
00018000
00018000
00018000
00018000
00018000
00018000
00018000
00018000
00018000
0007E000
00000000
00000000
00000000
00000000
00000000
00000000
ENDCHAR

STARTCHAR chs_A3EA
ENCODING 41962
SWIDTH 960 0
DWIDTH 32 0
BBX 32 32 0 -2
BITMAP
00000000
00030000
00078000
00078000
00030000
00000000
00000000
00000000
00000000
00008000
00018000
00038000
000F8000
00018000
00018000
00018000
00018000
00018000
00018000
00018000
00018000
00018000
00018000
00018000
00018000
00018000
00018000
00318000
00718000
00718000
00330000
001E0000
ENDCHAR

STARTCHAR chs_A3EB
ENCODING 41963
SWIDTH 960 0
DWIDTH 32 0
BBX 32 32 0 -2
BITMAP
00100000
00300000
00F00000
00300000
00300000
00300000
00300000
00300000
00300000
00307C00
00303800
00306000
0030C000
00310000
00320000
00370000
003B8000
00318000
0030C000
0030C000
00306000
00307000
00303800
00301C00
00301C00
00FE3E00
00000000
00000000
00000000
00000000
00000000
00000000
ENDCHAR

STARTCHAR chs_A3EC
ENCODING 41964
SWIDTH 960 0
DWIDTH 32 0
BBX 32 32 0 -2
BITMAP
00008000
00018000
00038000
00078000
00018000
00018000
00018000
00018000
00018000
00018000
00018000
00018000
00018000
00018000
00018000
00018000
00018000
00018000
00018000
00018000
00018000
00018000
00018000
0001CC00
0000F800
00006000
00000000
00000000
00000000
00000000
00000000
00000000
ENDCHAR

STARTCHAR chs_A3ED
ENCODING 41965
SWIDTH 960 0
DWIDTH 32 0
BBX 32 32 0 -2
BITMAP
00000000
00000000
00000000
00000000
00000000
00000000
00000000
00000000
00000000
00400000
00C70E00
03CF9F00
00D9B300
00D1A300
00E1C300
00C18300
00C18300
00C18300
00C18300
00C18300
00C18300
00C18300
00C18300
00C18300
00C18300
00C18300
01E3C780
00000000
00000000
00000000
00000000
00000000
ENDCHAR

STARTCHAR chs_A3EE
ENCODING 41966
SWIDTH 960 0
DWIDTH 32 0
BBX 32 32 0 -2
BITMAP
00000000
00000000
00000000
00000000
00000000
00000000
00000000
00000000
00000000
0010F000
00319800
00F20C00
00340C00
00380C00
00300C00
00300C00
00300C00
00300C00
00300C00
00300C00
00300C00
00300C00
00300C00
00300C00
00300C00
00FC3F00
00000000
00000000
00000000
00000000
00000000
00000000
ENDCHAR

STARTCHAR chs_A3EF
ENCODING 41967
SWIDTH 960 0
DWIDTH 32 0
BBX 32 32 0 -2
BITMAP
00000000
00000000
00000000
00000000
00000000
00000000
00000000
00000000
00000000
0007C000
00183000
00600C00
00600C00
00C00600
00C00600
01800300
01800300
01800300
01800300
01800300
00C00600
00C00600
00600C00
00600C00
00183000
0007C000
00000000
00000000
00000000
00000000
00000000
00000000
ENDCHAR

STARTCHAR chs_A3F0
ENCODING 41968
SWIDTH 960 0
DWIDTH 32 0
BBX 32 32 0 -2
BITMAP
00000000
00000000
00000000
00000000
00000000
00000000
00000000
00000000
00000000
0013E000
00363000
00F81800
00301C00
00300C00
00300C00
00300C00
00300C00
00300C00
00300C00
00300C00
00300C00
00300C00
00301C00
00381800
00363000
0033E000
00300000
00300000
00300000
00300000
00300000
00FC0000
ENDCHAR

STARTCHAR chs_A3F1
ENCODING 41969
SWIDTH 960 0
DWIDTH 32 0
BBX 32 32 0 -2
BITMAP
00000000
00000000
00000000
00000000
00000000
00000000
00000000
00000000
00000000
0007C400
000C6C00
00181C00
00380C00
00300C00
00300C00
00300C00
00300C00
00300C00
00300C00
00300C00
00300C00
00300C00
00380C00
00181C00
000C6C00
0007CC00
00000C00
00000C00
00000C00
00000C00
00000C00
00003F00
ENDCHAR

STARTCHAR chs_A3F2
ENCODING 41970
SWIDTH 960 0
DWIDTH 32 0
BBX 32 32 0 -2
BITMAP
00000000
00000000
00000000
00000000
00000000
00000000
00000000
00000000
00000000
00010000
00031C00
00073E00
001F4E00
00038600
00030000
00030000
00030000
00030000
00030000
00030000
00030000
00030000
00030000
00030000
00078000
001FE000
00000000
00000000
00000000
00000000
00000000
00000000
ENDCHAR

STARTCHAR chs_A3F3
ENCODING 41971
SWIDTH 960 0
DWIDTH 32 0
BBX 32 32 0 -2
BITMAP
00000000
00000000
00000000
00000000
00000000
00000000
00000000
00000000
00000000
000FE400
00183400
00301C00
00700C00
00600400
00600000
00300000
001E0000
000FE000
0003F800
00001C00
00000C00
00400C00
00600C00
00701C00
005C3800
0047E000
00000000
00000000
00000000
00000000
00000000
00000000
ENDCHAR

STARTCHAR chs_A3F4
ENCODING 41972
SWIDTH 960 0
DWIDTH 32 0
BBX 32 32 0 -2
BITMAP
00000000
00010000
00030000
000F0000
00030000
00030000
00030000
00030000
00030000
003FF000
00030000
00030000
00030000
00030000
00030000
00030000
00030000
00030000
00030000
00030000
00030000
00030200
00030400
00038C00
0001F800
0000F000
00000000
00000000
00000000
00000000
00000000
00000000
ENDCHAR

STARTCHAR chs_A3F5
ENCODING 41973
SWIDTH 960 0
DWIDTH 32 0
BBX 32 32 0 -2
BITMAP
00000000
00000000
00000000
00000000
00000000
00000000
00000000
00000000
00000000
00F03C00
00300C00
00300C00
00300C00
00300C00
00300C00
00300C00
00300C00
00300C00
00300C00
00300C00
00300C00
00300C00
00301C00
00302F00
0018CC00
000F8800
00000000
00000000
00000000
00000000
00000000
00000000
ENDCHAR

STARTCHAR chs_A3F6
ENCODING 41974
SWIDTH 960 0
DWIDTH 32 0
BBX 32 32 0 -2
BITMAP
00000000
00000000
00000000
00000000
00000000
00000000
00000000
00000000
00000000
01F83F80
00600C00
00300800
00300800
00301000
00181000
00181000
00182000
000C2000
000C2000
000C4000
00064000
00064000
00068000
00038000
00038000
00030000
00000000
00000000
00000000
00000000
00000000
00000000
ENDCHAR

STARTCHAR chs_A3F7
ENCODING 41975
SWIDTH 960 0
DWIDTH 32 0
BBX 32 32 0 -2
BITMAP
00000000
00000000
00000000
00000000
00000000
00000000
00000000
00000000
00000000
07C7C3E0
018380C0
01818080
01818080
00C18100
00C0C100
00C0C100
00C1C200
00616200
00626200
00626200
00643400
00743400
00383C00
00381800
00301800
00301800
00000000
00000000
00000000
00000000
00000000
00000000
ENDCHAR

STARTCHAR chs_A3F8
ENCODING 41976
SWIDTH 960 0
DWIDTH 32 0
BBX 32 32 0 -2
BITMAP
00000000
00000000
00000000
00000000
00000000
00000000
00000000
00000000
00000000
01F81F80
00700600
00380400
00180C00
000C1800
00061000
00032000
0003C000
0001C000
0001C000
00026000
00043000
00081800
00180C00
00300600
00600700
01F80F80
00000000
00000000
00000000
00000000
00000000
00000000
ENDCHAR

STARTCHAR chs_A3F9
ENCODING 41977
SWIDTH 960 0
DWIDTH 32 0
BBX 32 32 0 -2
BITMAP
00000000
00000000
00000000
00000000
00000000
00000000
00000000
00000000
00000000
01F83F80
00700600
00300400
00380400
00180800
001C0800
000C0800
000E1000
00061000
00072000
00032000
0003C000
0001C000
00008000
00018000
00010000
00020000
00020000
00040000
018C0000
01D80000
00F00000
00600000
ENDCHAR

STARTCHAR chs_A3FA
ENCODING 41978
SWIDTH 960 0
DWIDTH 32 0
BBX 32 32 0 -2
BITMAP
00000000
00000000
00000000
00000000
00000000
00000000
00000000
00000000
00000000
007FFF00
00600700
00C00600
00800E00
00801C00
00003800
00007000
0000E000
0001C000
00038000
00070000
000E0000
001C0100
00380100
00700300
00E00600
00FFFE00
00000000
00000000
00000000
00000000
00000000
00000000
ENDCHAR

STARTCHAR chs_A3FB
ENCODING 41979
SWIDTH 960 0
DWIDTH 32 0
BBX 32 32 0 -2
BITMAP
00000000
00000020
000000C0
00000180
00000180
00000300
00000300
00000300
00000300
00000300
00000300
00000300
00000300
00000300
00000600
00001800
00000600
00000300
00000300
00000300
00000300
00000300
00000300
00000300
00000300
00000300
00000300
00000180
00000180
000000C0
00000020
00000000
ENDCHAR

STARTCHAR chs_A3FC
ENCODING 41980
SWIDTH 960 0
DWIDTH 32 0
BBX 32 32 0 -2
BITMAP
00000000
00010000
00010000
00010000
00010000
00010000
00010000
00010000
00010000
00010000
00010000
00010000
00010000
00010000
00010000
00010000
00010000
00010000
00010000
00010000
00010000
00010000
00010000
00010000
00010000
00010000
00010000
00010000
00010000
00010000
00010000
00000000
ENDCHAR

STARTCHAR chs_A3FD
ENCODING 41981
SWIDTH 960 0
DWIDTH 32 0
BBX 32 32 0 -2
BITMAP
00000000
04000000
03000000
01800000
01800000
00C00000
00C00000
00C00000
00C00000
00C00000
00C00000
00C00000
00C00000
00C00000
00600000
00180000
00600000
00C00000
00C00000
00C00000
00C00000
00C00000
00C00000
00C00000
00C00000
00C00000
00C00000
01800000
01800000
03000000
04000000
00000000
ENDCHAR

STARTCHAR chs_A3FE
ENCODING 41982
SWIDTH 960 0
DWIDTH 32 0
BBX 32 32 0 -2
BITMAP
FFFFFFFF
00000000
00000000
00000000
00000000
00000000
00000000
00000000
00000000
00000000
00000000
00000000
00000000
00000000
00000000
00000000
00000000
00000000
00000000
00000000
00000000
00000000
00000000
00000000
00000000
00000000
00000000
00000000
00000000
00000000
00000000
00000000
ENDCHAR

STARTCHAR chs_A4A1
ENCODING 42145
SWIDTH 960 0
DWIDTH 32 0
BBX 32 32 0 -2
BITMAP
00000000
00000000
00000000
00000000
00000000
00010000
00018000
00018000
00030000
00020E00
0002FF00
01FF8000
00C62000
00062000
0007F000
000C2C00
00142600
00242300
00262300
00226300
00324700
001F8600
00000C00
00001800
00003000
0000C000
00070000
00000000
00000000
00000000
00000000
00000000
ENDCHAR

STARTCHAR chs_A4A2
ENCODING 42146
SWIDTH 960 0
DWIDTH 32 0
BBX 32 32 0 -2
BITMAP
00000000
00080000
000C0000
000E0000
000C0000
000C0000
00180700
0018FF80
001FC000
07F80000
03104000
00104000
0013E000
001C7800
00304C00
00504600
00904300
01904300
0118C300
0118C300
01898300
00CB0600
007E0600
003C0600
00000C00
00001800
00003000
0000C000
00030000
001C0000
00000000
00000000
ENDCHAR

STARTCHAR chs_A4A3
ENCODING 42147
SWIDTH 960 0
DWIDTH 32 0
BBX 32 32 0 -2
BITMAP
00000000
00000000
00000000
00000000
00000000
00000000
00000000
00000000
00000000
00000000
00000000
01000000
01800000
00E00000
00E00800
00C00600
00C00300
00800180
00800180
00C20980
00C60780
00EC0300
00680000
00780000
00380000
00100000
00000000
00000000
00000000
00000000
00000000
00000000
ENDCHAR

STARTCHAR chs_A4A4
ENCODING 42148
SWIDTH 960 0
DWIDTH 32 0
BBX 32 32 0 -2
BITMAP
00000000
00000000
00000000
00000000
00000000
00000000
00000000
04000000
06000000
03800000
03800800
03000600
03000300
03000180
030000C0
030000E0
02000060
02040070
02040230
030801B0
039800F0
01980060
01F00000
00F00000
00700000
00200000
00000000
00000000
00000000
00000000
00000000
00000000
ENDCHAR

STARTCHAR chs_A4A5
ENCODING 42149
SWIDTH 960 0
DWIDTH 32 0
BBX 32 32 0 -2
BITMAP
00000000
00000000
00000000
00000000
00000000
00000000
00000000
00200000
001E0000
0007F800
00007800
00006000
00018000
00000000
0000F800
020FFC00
01F80E00
00C00600
00000600
00000C00
00000C00
00000C00
00001800
00001800
00003000
00006000
00018000
00060000
00000000
00000000
00000000
00000000
ENDCHAR

STARTCHAR chs_A4A6
ENCODING 42150
SWIDTH 960 0
DWIDTH 32 0
BBX 32 32 0 -2
BITMAP
00000000
00000000
00000000
00000000
00000000
00000000
00380000
001FC000
0001FC00
00003C00
0000C000
00070000
00000000
00003E00
0207FF80
01FC01C0
00C000C0
000000C0
000001C0
00000180
00000300
00000300
00000600
00000600
00000C00
00001800
00003000
0000C000
00030000
00000000
00000000
00000000
ENDCHAR

STARTCHAR chs_A4A7
ENCODING 42151
SWIDTH 960 0
DWIDTH 32 0
BBX 32 32 0 -2
BITMAP
00000000
00000000
00000000
00000000
00000000
00000000
00000000
00180000
000E0000
00038000
00038000
00040000
00003000
0107F800
00FC7000
00606000
0000C000
00018000
00030000
00060000
000C0000
001F0000
0031C000
00606000
00E07000
01C03FC0
01801FC0
00000000
00000000
00000000
00000000
00000000
ENDCHAR

STARTCHAR chs_A4A8
ENCODING 42152
SWIDTH 960 0
DWIDTH 32 0
BBX 32 32 0 -2
BITMAP
00000000
00000000
00000000
00780000
003E0000
000F8000
00038000
00038000
000E0000
00080000
00004000
0001E000
021FF000
01F8E000
00E1C000
00018000
00030000
00060000
000C0000
00180000
00300000
007C0000
00C70000
01C08000
0180C000
0380E000
07007FE0
03003FE0
00000000
00000000
00000000
00000000
ENDCHAR

STARTCHAR chs_A4A9
ENCODING 42153
SWIDTH 960 0
DWIDTH 32 0
BBX 32 32 0 -2
BITMAP
00000000
00000000
00000000
00000000
00000000
00000000
00100000
00180000
000C0400
000C0300
00080180
000980C0
000FC0E0
01F801C0
00C80180
00080000
0008FC00
000B0600
000E0300
00380180
00C80180
01880180
03080180
030C0300
01CC8600
00787C00
00080000
00000000
00000000
00000000
00000000
00000000
ENDCHAR

STARTCHAR chs_A4AA
ENCODING 42154
SWIDTH 960 0
DWIDTH 32 0
BBX 32 32 0 -2
BITMAP
00000000
00000000
00000000
00200000
00380000
001C0000
001C0000
00180000
00180100
001800C0
00130060
003F8070
07F800E0
031000C0
00100000
0011FF00
00178380
001E01C0
003800E0
00700060
01D00060
03980060
06180060
0C180060
0C180060
0C1800C0
0798C380
00F83F00
00100000
00000000
00000000
00000000
ENDCHAR

STARTCHAR chs_A4AB
ENCODING 42155
SWIDTH 960 0
DWIDTH 32 0
BBX 32 32 0 -2
BITMAP
00000000
00000000
00000000
00100000
001C0000
000E0000
000E0000
000C0400
000C0300
000FC1C0
007FE0E0
1FFC70F0
0F983078
06183038
00183038
00103038
00303030
00206060
00606000
00406000
00C0C000
00C0C000
0180C000
03218000
07198000
060F8000
000F0000
00060000
00000000
00000000
00000000
00000000
ENDCHAR

STARTCHAR chs_A4AC
ENCODING 42156
SWIDTH 960 0
DWIDTH 32 0
BBX 32 32 0 -2
BITMAP
00000000
00000000
00000000
00200080
00380860
001C0638
001E039C
000C01CC
000C00C8
000F8080
001FCC00
01F8C380
1FD861C0
0F1860E0
04302070
00302070
00302070
00606060
006060C0
00C06000
00C0C000
0180C000
0300C000
06218000
0E198000
0C1F0000
080F0000
00060000
00000000
00000000
00000000
00000000
ENDCHAR

STARTCHAR chs_A4AD
ENCODING 42157
SWIDTH 960 0
DWIDTH 32 0
BBX 32 32 0 -2
BITMAP
00000000
00000000
00000000
000C0000
001E0000
000E0000
00061800
00037C00
0007E000
00FF0000
00618000
00018300
0000DF80
0003F000
003F6000
03F03000
01801800
00000C00
000F8600
0038F700
00601F80
00C00380
00C00000
00C00000
00600000
003C0000
001FE000
0003F000
00007000
00000000
00000000
00000000
ENDCHAR

STARTCHAR chs_A4AE
ENCODING 42158
SWIDTH 960 0
DWIDTH 32 0
BBX 32 32 0 -2
BITMAP
00000000
00000000
00000000
00600000
00F00040
00380430
00186338
000DF398
001F8188
03FE0100
01C60000
00030C00
00037E00
000FC000
00FD8000
0FC0C000
06006000
00003000
003E1800
00E3DC00
01807E00
03000E00
03000000
03000000
01800000
00F00000
007F8000
000FC000
0000C000
00000000
00000000
00000000
ENDCHAR

STARTCHAR chs_A4AF
ENCODING 42159
SWIDTH 960 0
DWIDTH 32 0
BBX 32 32 0 -2
BITMAP
00000000
00000000
00000000
00006000
00003800
00003800
00007000
0000E000
0001C000
00038000
00070000
000C0000
00180000
00300000
00600000
00300000
00180000
000E0000
00070000
00038000
0001C000
0000E000
0000F000
00007000
00007800
00003800
00003800
00001000
00000000
00000000
00000000
00000000
ENDCHAR

STARTCHAR chs_A4B0
ENCODING 42160
SWIDTH 960 0
DWIDTH 32 0
BBX 32 32 0 -2
BITMAP
00000000
00000000
00000000
00018000
0000E000
0000E000
0001C000
00038100
000710C0
000E0CE0
001C0E60
00300660
00600640
00C00400
01800000
00C00000
00600000
00380000
001C0000
000E0000
00070000
00038000
0003C000
0001C000
0001E000
0000E000
0000E000
00004000
00000000
00000000
00000000
00000000
ENDCHAR

STARTCHAR chs_A4B1
ENCODING 42161
SWIDTH 960 0
DWIDTH 32 0
BBX 32 32 0 -2
BITMAP
00000000
00000000
00000000
00002000
02001800
03801E00
01C00C00
01C00C00
01800C00
01000CE0
01000FF0
03003E00
0207EC00
02030C00
06000C00
06000C00
06000C00
06100C00
06100C00
06200C00
06200C00
06601800
07401800
03C01800
03803000
01803000
01006000
00004000
00008000
00010000
00000000
00000000
ENDCHAR

STARTCHAR chs_A4B2
ENCODING 42162
SWIDTH 960 0
DWIDTH 32 0
BBX 32 32 0 -2
BITMAP
00000000
00000000
00000000
00004010
04003088
07003C4C
0380186C
03801848
03001800
020019C0
02001FE0
02007C00
040FD800
04001800
0C001800
0C001800
0C001800
0C201800
0C201800
0C401800
0C401800
0CC03000
0E803000
07803000
07006000
03006000
0200C000
00008000
00010000
00020000
00000000
00000000
ENDCHAR

STARTCHAR chs_A4B3
ENCODING 42163
SWIDTH 960 0
DWIDTH 32 0
BBX 32 32 0 -2
BITMAP
00000000
00000000
00000000
00000000
00000000
00400000
00380000
001FF000
0007F800
00007800
0000E000
00010000
00000000
00000000
00000000
00000000
00000000
00800000
01000000
01000000
03000000
03000000
03000000
03800100
01C001C0
01FFFFC0
007FFF00
0007F800
00000000
00000000
00000000
00000000
ENDCHAR

STARTCHAR chs_A4B4
ENCODING 42164
SWIDTH 960 0
DWIDTH 32 0
BBX 32 32 0 -2
BITMAP
00000000
00000000
00000000
00000000
00000040
00800430
00700338
003FE398
000FF190
0000F100
0001C000
00020000
00000000
00000000
00000000
00000000
00000000
01000000
02000000
02000000
06000000
06000000
06000000
07000000
03800380
03FFFF80
00FFFE00
000FF000
00000000
00000000
00000000
00000000
ENDCHAR

STARTCHAR chs_A4B5
ENCODING 42165
SWIDTH 960 0
DWIDTH 32 0
BBX 32 32 0 -2
BITMAP
00000000
00000000
00000000
00030000
00068000
000C6000
000C3000
000C1800
00063C00
0003FC00
0307C000
01FD8000
00E0C000
00006000
00003000
00001800
00000C00
001F8600
0078F300
00E01F80
00C00780
00C00100
00C00000
00400000
00700000
003F0000
000FF800
0003F800
00007000
00000000
00000000
00000000
ENDCHAR

STARTCHAR chs_A4B6
ENCODING 42166
SWIDTH 960 0
DWIDTH 32 0
BBX 32 32 0 -2
BITMAP
00000000
00000000
00000000
00060000
000D0020
0018C018
0018611C
001830CC
000C38E8
0007F860
060F8040
03FB0000
01C18000
0000C000
00006000
00003000
00001800
003F8C00
00F1E600
01C03F00
01800F00
01800200
01800000
01C00000
00E00000
007E0000
001FF000
0007F000
0000E000
00000000
00000000
00000000
ENDCHAR

STARTCHAR chs_A4B7
ENCODING 42167
SWIDTH 960 0
DWIDTH 32 0
BBX 32 32 0 -2
BITMAP
00000000
00000000
00000000
00400000
00300000
00380000
00380000
00300000
00300000
00300000
00300000
00300000
00300000
00300000
00300000
00300000
00200000
00200000
00200000
00200000
00200040
00300080
00300100
00300600
00301C00
00187800
001FE000
000F8000
00000000
00000000
00000000
00000000
ENDCHAR

STARTCHAR chs_A4B8
ENCODING 42168
SWIDTH 960 0
DWIDTH 32 0
BBX 32 32 0 -2
BITMAP
00000000
00000000
00000000
00400000
00300000
00381000
00380C00
00308600
0030C700
00306300
00307300
00303200
00303000
00302000
00300000
00300000
00200000
00200000
00200000
00200000
00200040
00300080
00300100
00300600
00381C00
00187800
001FE000
000F8000
00000000
00000000
00000000
00000000
ENDCHAR

STARTCHAR chs_A4B9
ENCODING 42169
SWIDTH 960 0
DWIDTH 32 0
BBX 32 32 0 -2
BITMAP
00000000
00000000
00018000
0000C000
0000E800
00006600
00004300
00004180
00004FE0
001FFFE0
0FF84000
06006000
00006000
00006000
001FE000
0030E000
00607000
00607000
0060D800
0039D800
001F9800
00061800
00001800
00003000
00003000
00006000
0000C000
00018000
00060000
00000000
00000000
00000000
ENDCHAR

STARTCHAR chs_A4BA
ENCODING 42170
SWIDTH 960 0
DWIDTH 32 0
BBX 32 32 0 -2
BITMAP
00000000
00000000
00030020
00018118
0001C0DC
0001D0EC
0001886C
00008648
00008300
00009FC0
003FFFC0
1FF08000
0E00C000
0000C000
003FC000
0061C000
00C0E000
00C0E000
00C1B000
0073B000
003F3000
000C3000
00003000
00006000
00006000
0000C000
00018000
00030000
000C0000
00000000
00000000
00000000
ENDCHAR

STARTCHAR chs_A4BB
ENCODING 42171
SWIDTH 960 0
DWIDTH 32 0
BBX 32 32 0 -2
BITMAP
00000000
00000000
00000000
00001800
00000C00
00000E00
00400E00
00600C00
00300C00
00380C00
00380C00
00300C60
00301FF0
0037FFF8
007F0C00
3FF00C00
1C201C00
00201800
00231800
0031F000
0030F000
00306000
00300000
00300180
001807C0
001FFFC0
000FFF00
00000000
00000000
00000000
00000000
00000000
ENDCHAR

STARTCHAR chs_A4BC
ENCODING 42172
SWIDTH 960 0
DWIDTH 32 0
BBX 32 32 0 -2
BITMAP
00000000
00000000
00000000
00003010
00001918
00001CCC
00801CEC
00C01868
00601840
00701800
00701800
006018C0
00603FE0
006FFFF0
00FE1800
3FE01800
18403800
00403000
00463000
0063E000
0061E000
0060C000
00600000
00600300
00300F80
003FFF80
001FFE00
00000000
00000000
00000000
00000000
00000000
ENDCHAR

STARTCHAR chs_A4BD
ENCODING 42173
SWIDTH 960 0
DWIDTH 32 0
BBX 32 32 0 -2
BITMAP
00000000
00000000
00000000
00003C00
0007FE00
007F8E00
00381C00
00001800
00003000
00006000
0000C000
00018000
000300E0
00060FE0
000C7F80
0019F000
001F8000
03FB0000
03E30000
01030000
00060000
00060000
00060000
00070000
00038000
0001C000
0000FF00
00007FC0
00001FC0
00000000
00000000
00000000
ENDCHAR

STARTCHAR chs_A4BE
ENCODING 42174
SWIDTH 960 0
DWIDTH 32 0
BBX 32 32 0 -2
BITMAP
00000000
00000020
00000010
00007818
000FFD0C
00FF1C8C
007018C8
00003060
00006060
0000C040
00018000
00030000
000601E0
000C3FE0
0018FF00
0037E000
007F0000
07F60000
07C60000
02060000
000C0000
000C0000
000C0000
000E0000
000F0000
0007C000
0003FF00
0001FFC0
00007FC0
00000000
00000000
00000000
ENDCHAR

STARTCHAR chs_A4BF
ENCODING 42175
SWIDTH 960 0
DWIDTH 32 0
BBX 32 32 0 -2
BITMAP
00000000
00000000
00200000
00380000
001C0000
00180000
00180000
00180000
00186000
0031F1C0
003FF0F0
0FFC0070
073000C0
00300100
00300000
00600000
00600000
00600000
00600000
00C00000
00C00000
00C40000
01C60000
01860000
03870000
0383FFE0
0101FFE0
00000000
00000000
00000000
00000000
00000000
ENDCHAR

STARTCHAR chs_A4C0
ENCODING 42176
SWIDTH 960 0
DWIDTH 32 0
BBX 32 32 0 -2
BITMAP
00000000
00000000
00800078
00E0001C
00600F0C
00600384
00600180
00600080
00618000
00C7C000
00FFE700
1FF001E0
0EC000F0
00C00070
00C00060
01800080
01800000
01800000
01800000
03000000
03080000
030C0000
070C0000
060E0000
0E07FFE0
0E03FFE0
04000000
00000000
00000000
00000000
00000000
00000000
ENDCHAR

STARTCHAR chs_A4C1
ENCODING 42177
SWIDTH 960 0
DWIDTH 32 0
BBX 32 32 0 -2
BITMAP
00000000
00000000
00200000
00180000
001C0000
001C6000
00187000
0019F000
003FC000
0FF80000
07180000
00180000
00180000
00180000
00180000
00180000
00303C00
0030FF00
0033C380
002701C0
006C00E0
007000E0
002000E0
000000E0
000001C0
00000180
00000700
00001E00
0003F000
00000000
00000000
00000000
ENDCHAR

STARTCHAR chs_A4C2
ENCODING 42178
SWIDTH 960 0
DWIDTH 32 0
BBX 32 32 0 -2
BITMAP
00000000
00000000
00000000
00400000
003000F0
00300038
00300018
0030C008
0030E780
0033E1C0
007F80C0
1FF00040
0E300000
00300000
00300000
00300000
00607800
0061FE00
00678700
004E0380
00D801C0
00E001C0
004001C0
000001C0
00000380
00000300
00000E00
00003C00
0007E000
00000000
00000000
00000000
ENDCHAR

STARTCHAR chs_A4C3
ENCODING 42179
SWIDTH 960 0
DWIDTH 32 0
BBX 32 32 0 -2
BITMAP
00000000
00000000
00000000
00000000
00000000
00000000
00000000
00000000
00000000
00000000
00000000
00000000
00000000
0000FC00
030FFE00
01FE0700
00E00700
00000600
00000E00
00000C00
00001800
00003000
00006000
0000C000
00030000
000C0000
00000000
00000000
00000000
00000000
00000000
00000000
ENDCHAR

STARTCHAR chs_A4C4
ENCODING 42180
SWIDTH 960 0
DWIDTH 32 0
BBX 32 32 0 -2
BITMAP
00000000
00000000
00000000
00000000
00000000
00000000
00000000
00000000
0000FE00
0003C380
001E01C0
10F80060
1FE00070
0FC00070
07000070
00000060
000000E0
000000C0
000001C0
00000380
00000700
00000E00
00001C00
00007000
0001C000
00070000
00000000
00000000
00000000
00000000
00000000
00000000
ENDCHAR

STARTCHAR chs_A4C5
ENCODING 42181
SWIDTH 960 0
DWIDTH 32 0
BBX 32 32 0 -2
BITMAP
00000000
00000000
00000010
00000018
0000000C
0000010C
000000C8
000000E0
0001F860
00078E40
003C0700
21F00180
3FC001C0
1F8001C0
0E0001C0
00000180
00000380
00000300
00000700
00000E00
00001C00
00003800
00007000
0000E000
00038000
000C0000
00000000
00000000
00000000
00000000
00000000
00000000
ENDCHAR

STARTCHAR chs_A4C6
ENCODING 42182
SWIDTH 960 0
DWIDTH 32 0
BBX 32 32 0 -2
BITMAP
00000000
00000000
00000000
00000000
00000000
000000C0
000007E0
00007FF0
0C0FF000
07FFC000
03F18000
01818000
00030000
00030000
00030000
00060000
00060000
00060000
00060000
00060000
00060000
00070000
00030000
00038000
0001E000
0000FF00
00007F00
00001E00
00000000
00000000
00000000
00000000
ENDCHAR

STARTCHAR chs_A4C7
ENCODING 42183
SWIDTH 960 0
DWIDTH 32 0
BBX 32 32 0 -2
BITMAP
00000000
00000000
00000000
00000008
00000044
00000626
00003F36
0003FFB6
007FC034
1FFF0020
0F860000
06060000
000C0000
000C0000
000C0000
00180000
00180000
00180000
00180000
00180000
00180000
001C0000
000C0000
000E0000
00078000
0003FE00
0001FE00
00007C00
00000000
00000000
00000000
00000000
ENDCHAR

STARTCHAR chs_A4C8
ENCODING 42184
SWIDTH 960 0
DWIDTH 32 0
BBX 32 32 0 -2
BITMAP
00000000
00000000
00080000
000C0000
00060000
00070000
00070000
00060000
00060000
00060000
00060000
00060000
00060000
00070000
00030000
00018C00
00007E00
0001FC00
0007C000
001E0000
00380000
00600000
00C00000
00C00000
00E00000
00780300
001FFF80
0007FF80
00000000
00000000
00000000
00000000
ENDCHAR

STARTCHAR chs_A4C9
ENCODING 42185
SWIDTH 960 0
DWIDTH 32 0
BBX 32 32 0 -2
BITMAP
00000000
00000000
00100000
00180000
000C00F0
000E0038
000E0018
000C0008
000C0000
000C03C0
000C00E0
000C0060
000C0020
000E0000
00060000
00031800
0000FC00
0003F800
00070000
001E0000
00380000
00600000
00C00000
00C00000
00E00000
00780300
001FFF80
0007FF80
00000000
00000000
00000000
00000000
ENDCHAR

STARTCHAR chs_A4CA
ENCODING 42186
SWIDTH 960 0
DWIDTH 32 0
BBX 32 32 0 -2
BITMAP
00000000
00000000
00100000
001C0000
000E0000
000E0000
000C0000
000CC000
003FE000
1FFF0400
0F980300
001801C0
003800E0
003001C0
00300300
00600000
00600000
00C00400
01C00400
03800400
07000C00
0603CC00
040FFC00
00180F00
00181BC0
001019E0
00183060
000E6020
0007C000
00000000
00000000
00000000
ENDCHAR

STARTCHAR chs_A4CB
ENCODING 42187
SWIDTH 960 0
DWIDTH 32 0
BBX 32 32 0 -2
BITMAP
00000000
00000000
00000000
00000000
02000000
03000000
01C00000
01C00060
018207F0
0181FFF8
0100E000
01000000
01000000
02000000
02000000
06000000
06080000
06080000
07180000
07100000
03100000
03340000
03A30060
01E3FFF0
01E0FFF8
00000000
00000000
00000000
00000000
00000000
00000000
00000000
ENDCHAR

STARTCHAR chs_A4CC
ENCODING 42188
SWIDTH 960 0
DWIDTH 32 0
BBX 32 32 0 -2
BITMAP
00000000
00000000
00000000
00040000
00060000
00030000
00030000
04033E00
0603E300
030301C0
030700E0
031E0060
01A60070
01C60030
01860030
02CC0030
06CC0030
0CCC0020
0C780060
18700060
18300060
18783CC0
185C6380
18CCC1C0
0D80C360
07007E30
00003C18
00000018
00000000
00000000
00000000
00000000
ENDCHAR

STARTCHAR chs_A4CD
ENCODING 42189
SWIDTH 960 0
DWIDTH 32 0
BBX 32 32 0 -2
BITMAP
00000000
00000000
00000000
00200000
00380000
001C0000
001C0000
00190000
001F8000
007F3F00
03F8E380
0F9980C0
061B0060
000E0070
001C0030
00380030
00280030
00480030
00C80030
01980030
03180060
07183E60
0E1863C0
1D1840E0
1CD861B8
18783318
00781E18
00300008
00000000
00000000
00000000
00000000
ENDCHAR

STARTCHAR chs_A4CE
ENCODING 42190
SWIDTH 960 0
DWIDTH 32 0
BBX 32 32 0 -2
BITMAP
00000000
00000000
00000000
00000000
00000000
00000000
0001F800
0007FE00
001C4380
007040E0
00E0C070
01C08030
03818018
07018018
06030018
0E030018
0C060018
0C060038
0C0C0030
0C0C0070
0C180060
067000E0
03E001C0
01C00380
00000700
00001C00
00007000
00000000
00000000
00000000
00000000
00000000
ENDCHAR

STARTCHAR chs_A4CF
ENCODING 42191
SWIDTH 960 0
DWIDTH 32 0
BBX 32 32 0 -2
BITMAP
00000000
00000000
00000000
00000400
02000600
03800300
01C00380
01C00380
01800300
01800300
01000220
010382F0
0301FFF8
02007F80
02000200
06000200
06000200
06000300
06100300
06100300
06303B00
0620FF00
066183C0
076381F0
07C30138
03C1C31C
0380E60C
01807C00
00000000
00000000
00000000
00000000
ENDCHAR

STARTCHAR chs_A4D0
ENCODING 42192
SWIDTH 960 0
DWIDTH 32 0
BBX 32 32 0 -2
BITMAP
00000000
00000000
00000000
00001010
04001898
07000CCC
03800E6C
03800E68
03000C40
03000C00
02000880
02070BC0
0603FFE0
0400FF00
04000800
0C000800
0C000800
0C000C00
0C200C00
0C200C00
0C60EC00
0C43FC00
0CC60F00
0ECE07C0
0F8C04E0
07870C70
07039830
0301F000
00000000
00000000
00000000
00000000
ENDCHAR

STARTCHAR chs_A4D1
ENCODING 42193
SWIDTH 960 0
DWIDTH 32 0
BBX 32 32 0 -2
BITMAP
00000000
00000000
00000000
00001078
040018CC
07000C84
03800E84
03800ECC
03000C78
03000C00
02000880
02070BC0
0603FFE0
0400FF00
04000800
0C000800
0C000800
0C000C00
0C200C00
0C200C00
0C60EC00
0C43FC00
0CC60F00
0ECE07C0
0F8C04E0
07870C70
07039830
0301F000
00000000
00000000
00000000
00000000
ENDCHAR

STARTCHAR chs_A4D2
ENCODING 42194
SWIDTH 960 0
DWIDTH 32 0
BBX 32 32 0 -2
BITMAP
00000000
00000000
00000000
00000000
00000000
00000700
003C0700
00FC0300
07D80300
07380300
00300380
00600280
00E002C0
00C002C0
00C00660
01C00670
01800C38
03800C38
03800C18
03801C00
03801800
03803800
01803000
01C07000
00E0E000
00FFC000
007F8000
003E0000
00000000
00000000
00000000
00000000
ENDCHAR

STARTCHAR chs_A4D3
ENCODING 42195
SWIDTH 960 0
DWIDTH 32 0
BBX 32 32 0 -2
BITMAP
00000000
00000000
00000000
00000000
00000010
00001C08
00F01C8C
03F00C46
1F600C66
1CE00C30
00C00E30
00C00A20
01800B00
01800B00
03801980
030019C0
070030E0
070030E0
07003060
07007000
07006000
0700E000
0300C000
0381C000
01C38000
01FF0000
00FE0000
007C0000
00000000
00000000
00000000
00000000
ENDCHAR

STARTCHAR chs_A4D4
ENCODING 42196
SWIDTH 960 0
DWIDTH 32 0
BBX 32 32 0 -2
BITMAP
00000000
00000000
00000000
00000000
00000078
00001CCC
00F01C84
03F00C84
1F600CCC
1CE00C78
00C00E00
01800A00
01800B00
03000B00
03001980
070019C0
060030E0
0E0030E0
0E003060
0E007000
0E006000
0E00E000
0600C000
0701C000
03838000
03FF0000
01FE0000
00FC0000
00000000
00000000
00000000
00000000
ENDCHAR

STARTCHAR chs_A4D5
ENCODING 42197
SWIDTH 960 0
DWIDTH 32 0
BBX 32 32 0 -2
BITMAP
00000000
00000000
00000000
00040000
00070000
0003C000
0001E000
0000E000
0000C000
00018000
00030000
00020000
00040000
00020000
00030000
00018000
0001C000
0000C000
0001F800
00066700
011863C0
026061E0
06C060F8
0F986078
0F0CE038
0607E010
0003C000
00018000
00000000
00000000
00000000
00000000
ENDCHAR

STARTCHAR chs_A4D6
ENCODING 42198
SWIDTH 960 0
DWIDTH 32 0
BBX 32 32 0 -2
BITMAP
00000000
00000000
00000000
00080000
000E0000
00078020
0003C210
0001C118
0001818C
000300CC
000600C8
00040080
00080000
00040000
00060000
00030000
00038000
00018000
0003F000
000CCE00
0230C780
04C0C3C0
0D80C1F0
1F30C0F0
1E19C070
0C0FC020
00078000
00030000
00000000
00000000
00000000
00000000
ENDCHAR

STARTCHAR chs_A4D7
ENCODING 42199
SWIDTH 960 0
DWIDTH 32 0
BBX 32 32 0 -2
BITMAP
00000000
00000000
00000000
00080000
000E00F0
00078198
0003C108
0001C108
00018198
000300F0
00060000
00040000
00080000
00040000
00060000
00030000
00038000
00018000
0003F000
000CCE00
0230C780
04C0C3C0
0D80C1F0
1F30C0F0
1E19C070
0C0FC020
00078000
00030000
00000000
00000000
00000000
00000000
ENDCHAR

STARTCHAR chs_A4D8
ENCODING 42200
SWIDTH 960 0
DWIDTH 32 0
BBX 32 32 0 -2
BITMAP
00000000
00000000
00000000
00000000
00000000
00000000
00000000
00000000
00000000
001C0000
00370000
00638000
00C0C000
01806000
03803000
3F001800
1E000C00
0C000600
00000380
000001C0
000000F8
0000003C
0000001C
00000000
00000000
00000000
00000000
00000000
00000000
00000000
00000000
00000000
ENDCHAR

STARTCHAR chs_A4D9
ENCODING 42201
SWIDTH 960 0
DWIDTH 32 0
BBX 32 32 0 -2
BITMAP
00000000
00000000
00000000
00000000
00000000
000000C0
00000070
00000C38
00000718
00000390
001C0180
00370100
00638000
00C0C000
01806000
03803000
3F001800
1E000C00
0C000600
00000380
000001C0
000000F8
0000003C
0000001C
00000000
00000000
00000000
00000000
00000000
00000000
00000000
00000000
ENDCHAR

STARTCHAR chs_A4DA
ENCODING 42202
SWIDTH 960 0
DWIDTH 32 0
BBX 32 32 0 -2
BITMAP
00000000
00000000
00000000
00000000
00000000
000001E0
00000330
00000210
00000210
00000330
001C01E0
00370000
00638000
00C0C000
01806000
03803000
3F001800
1E000C00
0C000600
00000380
000001C0
000000F8
0000003C
0000001C
00000000
00000000
00000000
00000000
00000000
00000000
00000000
00000000
ENDCHAR

STARTCHAR chs_A4DB
ENCODING 42203
SWIDTH 960 0
DWIDTH 32 0
BBX 32 32 0 -2
BITMAP
00000000
00000000
00000000
00000000
020000C0
030003E0
01833F80
01C1FC00
01C00C00
01800600
01800600
01000630
020006F8
0207FFF8
0603F200
04000300
04000300
06000300
06000300
0E200300
0E200300
0E607F00
0E40C380
06C186E0
07C18670
0381CC38
0380F818
01800000
00000000
00000000
00000000
00000000
ENDCHAR

STARTCHAR chs_A4DC
ENCODING 42204
SWIDTH 960 0
DWIDTH 32 0
BBX 32 32 0 -2
BITMAP
00000000
00000000
00000000
00000010
0400018C
060007CE
03067F06
0383F864
03801838
03000C1C
03000C0C
02000C08
04000C60
04000DF0
0C0FFFF0
0807E400
08000600
0C000600
0C000600
1C400600
1C400600
1CC0FE00
1C818700
0D830DC0
0F830CE0
07039870
0701F030
03000000
00000000
00000000
00000000
00000000
ENDCHAR

STARTCHAR chs_A4DD
ENCODING 42205
SWIDTH 960 0
DWIDTH 32 0
BBX 32 32 0 -2
BITMAP
00000000
00000000
00000000
0000003C
04000466
06000F42
030CFF42
0387F066
0380303C
03001800
03001800
02001800
04001860
040019F0
0C1FFFF0
080FC800
08000C00
0C000C00
0C000C00
1C400C00
1C400C00
1CC1FC00
1C830E00
0C861B80
0F8619C0
070730E0
0703E060
03000000
00000000
00000000
00000000
00000000
ENDCHAR

STARTCHAR chs_A4DE
ENCODING 42206
SWIDTH 960 0
DWIDTH 32 0
BBX 32 32 0 -2
BITMAP
00000000
00000000
00020000
00038000
0001C000
0001C000
00018000
00018300
0001BF80
03FFFFC0
01FF8000
00C18000
00008000
00008C00
0000BE00
00FFFF00
007E8000
00308000
00018000
00018000
00018000
001F8000
0071E000
00C1F800
01819E00
01830F00
01860380
00FC0180
00380000
00000000
00000000
00000000
ENDCHAR

STARTCHAR chs_A4DF
ENCODING 42207
SWIDTH 960 0
DWIDTH 32 0
BBX 32 32 0 -2
BITMAP
00000000
00000000
00000000
00000000
00003000
0000F800
019FF800
00FF3800
00703000
00007000
00006000
00006000
0000C200
00018380
000181C0
000301C0
003F0180
00C6C180
018C3B00
03180F00
06300780
046006E0
0CC00C78
0D80183C
0F00301C
06004000
00008000
00000000
00000000
00000000
00000000
00000000
ENDCHAR

STARTCHAR chs_A4E0
ENCODING 42208
SWIDTH 960 0
DWIDTH 32 0
BBX 32 32 0 -2
BITMAP
00000000
00000000
00000000
00400000
00700000
00380000
00310000
0030C000
0037E000
18FFE000
0FF80000
073000E0
003001F0
00100338
0010021C
00F8001C
039C0438
06140430
04340440
06340400
03680600
01C80200
00100300
00200380
006001C0
006001C0
003FFF80
001FFF00
00000000
00000000
00000000
00000000
ENDCHAR

STARTCHAR chs_A4E1
ENCODING 42209
SWIDTH 960 0
DWIDTH 32 0
BBX 32 32 0 -2
BITMAP
00000000
00000000
00000000
00010000
00018000
0000C000
0200E000
0300E000
0300C000
0181C000
0183FE00
018F8780
00F381C0
00E30060
01C30030
07660030
0E660030
1C3C0030
183C0030
18380060
103800E0
106C00C0
18CE0180
0D860300
07000600
00001800
00006000
00000000
00000000
00000000
00000000
00000000
ENDCHAR

STARTCHAR chs_A4E2
ENCODING 42210
SWIDTH 960 0
DWIDTH 32 0
BBX 32 32 0 -2
BITMAP
00000000
00000000
00100000
001C0000
000E0000
00070000
00070000
00060000
00060000
0304C000
00FFE000
000FE000
001E0000
00180000
00180000
00300000
00300400
06200600
03A18300
01FFC300
007FE180
00300180
00300180
00300180
00180180
00180300
000E0E00
0007FC00
00000000
00000000
00000000
00000000
ENDCHAR

STARTCHAR chs_A4E3
ENCODING 42211
SWIDTH 960 0
DWIDTH 32 0
BBX 32 32 0 -2
BITMAP
00000000
00000000
00000000
00000000
00000000
00000000
00000000
00000000
00010000
0001C000
0038E000
00447000
00C26000
00C1E1C0
0060CFE0
0031FC70
07FF8030
03D80030
010C0070
000631C0
00060F00
00030000
00030000
00018000
0000C000
0000E000
00006000
00000000
00000000
00000000
00000000
00000000
ENDCHAR

STARTCHAR chs_A4E4
ENCODING 42212
SWIDTH 960 0
DWIDTH 32 0
BBX 32 32 0 -2
BITMAP
00000000
00000000
00000000
00010000
00018000
0000E000
00007000
007C3000
00C3F0E0
0180E7F0
01807E38
01C1E018
00C70018
00F80018
00700038
21F80030
1F9C18E0
0E0C0780
00060000
00030000
00018000
0000C000
00007000
00003800
00003C00
00001E00
00000E00
00000C00
00000000
00000000
00000000
00000000
ENDCHAR

STARTCHAR chs_A4E5
ENCODING 42213
SWIDTH 960 0
DWIDTH 32 0
BBX 32 32 0 -2
BITMAP
00000000
00000000
00000000
00000000
00000000
00000000
00000000
00000000
0000E000
0001B000
01033000
01823E00
00C2F300
00C5B100
00863180
01843180
010C3300
03143300
03262600
0363EC00
03C1F800
01C06000
00806000
0000C000
00018000
00020000
00040000
00080000
00000000
00000000
00000000
00000000
ENDCHAR

STARTCHAR chs_A4E6
ENCODING 42214
SWIDTH 960 0
DWIDTH 32 0
BBX 32 32 0 -2
BITMAP
00000000
00000000
00000000
00000000
00000000
0000C000
0003F000
08063000
0E043000
07083F00
070831C0
0608F0E0
0611B070
04133030
041C3030
0C183030
0C103030
0C2C3030
0C6C3030
0CC63030
0DC62060
078321C0
0781FF80
0780FE00
03006000
0000C000
00018000
00010000
00020000
00040000
00000000
00000000
ENDCHAR

STARTCHAR chs_A4E7
ENCODING 42215
SWIDTH 960 0
DWIDTH 32 0
BBX 32 32 0 -2
BITMAP
00000000
00000000
00000000
00000000
00000000
00000000
00000000
00000000
00020000
00030000
00018000
00018600
00019F00
0001F800
00018000
00018000
00018000
00018000
00018000
0000C000
00003000
0007F000
001C7C00
00303F00
00603380
006061C0
0039C0C0
001F0000
00000000
00000000
00000000
00000000
ENDCHAR

STARTCHAR chs_A4E8
ENCODING 42216
SWIDTH 960 0
DWIDTH 32 0
BBX 32 32 0 -2
BITMAP
00000000
00000000
00000000
00040000
00070000
00038000
0003C000
0001C000
00018000
00018300
00019F80
0001FC00
00018000
00018000
00018000
00018000
00008000
00008000
0000C000
00006000
001FB000
0070F000
00C01C00
01801700
010033C0
018061E0
00C1C0E0
007F0000
00000000
00000000
00000000
00000000
ENDCHAR

STARTCHAR chs_A4E9
ENCODING 42217
SWIDTH 960 0
DWIDTH 32 0
BBX 32 32 0 -2
BITMAP
00000000
00000000
00000000
001C0000
000F8000
0003C000
0001C000
00038000
00060000
00180000
00600000
00C00000
01800000
01800000
01800000
01801C00
01807F00
01818380
01860180
018801C0
019001C0
03A001C0
03E00180
01C00180
00C00300
00000600
00000C00
00007000
00038000
00000000
00000000
00000000
ENDCHAR

STARTCHAR chs_A4EA
ENCODING 42218
SWIDTH 960 0
DWIDTH 32 0
BBX 32 32 0 -2
BITMAP
00000000
00000000
00000000
00400000
00600000
00300000
0030F000
00319800
00331C00
00320C00
00360C00
00340E00
00340E00
00380E00
00300E00
00380E00
00180E00
00180C00
00181C00
00181800
00181800
00003000
00003000
00006000
00006000
0000C000
00018000
00010000
00020000
00040000
00000000
00000000
ENDCHAR

STARTCHAR chs_A4EB
ENCODING 42219
SWIDTH 960 0
DWIDTH 32 0
BBX 32 32 0 -2
BITMAP
00000000
00000000
00000000
00003000
00C1F800
007FF800
00007000
00007000
0000E000
0000C000
00018000
00030000
00060000
000C0000
0019F800
00371E00
00780700
00E00380
03C00180
03800180
03800180
000FF180
00181B00
00300B00
00300600
00300C00
001C3800
000FE000
00000000
00000000
00000000
00000000
ENDCHAR

STARTCHAR chs_A4EC
ENCODING 42220
SWIDTH 960 0
DWIDTH 32 0
BBX 32 32 0 -2
BITMAP
00000000
00000000
00400000
00700000
00380000
00380000
00300000
00301C00
00303600
00366700
00FE8700
1FE50600
0E2A0600
08340600
00280600
00700400
00E00400
01E00400
01A00C00
03300C10
06300C10
06300C30
0C300C20
1D300C60
19B00C60
00F007C0
00F00380
00600000
00400000
00000000
00000000
00000000
ENDCHAR

STARTCHAR chs_A4ED
ENCODING 42221
SWIDTH 960 0
DWIDTH 32 0
BBX 32 32 0 -2
BITMAP
00000000
00000000
00000000
00000000
00003000
00C3F800
007FF800
00387000
00006000
0000E000
0001C000
00018000
00030000
00060000
000C7C00
0019CF00
00360380
00780180
00E000C0
01C000C0
078000C0
070000C0
06000180
00000180
00000300
00000600
00001C00
00007000
00078000
00000000
00000000
00000000
ENDCHAR

STARTCHAR chs_A4EE
ENCODING 42222
SWIDTH 960 0
DWIDTH 32 0
BBX 32 32 0 -2
BITMAP
00000000
00000000
00000000
00000000
00000000
00000000
00000000
00100000
00180000
001C0000
000C0000
00080000
000B0000
001F8000
01FF3F00
00CC6700
00098380
001A0180
002C01C0
005C01C0
00AC0180
01CC0380
03CC0700
036C0600
003C1800
00386000
00180000
00000000
00000000
00000000
00000000
00000000
ENDCHAR

STARTCHAR chs_A4EF
ENCODING 42223
SWIDTH 960 0
DWIDTH 32 0
BBX 32 32 0 -2
BITMAP
00000000
00000000
00000000
00200000
00380000
001C0000
001C0000
00180000
00180000
001B0000
001F8000
0CFF0000
07FA1FC0
031C71C0
0018C0E0
001B00E0
00360070
00580070
00F00070
01D00070
03980070
07180060
0E1800E0
0E9801C0
04580300
00780E00
00387000
00100000
00000000
00000000
00000000
00000000
ENDCHAR

STARTCHAR chs_A4F0
ENCODING 42224
SWIDTH 960 0
DWIDTH 32 0
BBX 32 32 0 -2
BITMAP
00000000
00000000
00000000
00000000
00030000
000F8000
007F8000
03F38000
01830000
00070000
00060000
00067C00
000FC700
000E0180
001C00C0
003C0060
00D80060
01980070
03300070
06300070
06600070
04600060
04407C60
06C0E7C0
03C183C0
01818180
00018300
0000C600
00007C00
00000000
00000000
00000000
ENDCHAR

STARTCHAR chs_A4F1
ENCODING 42225
SWIDTH 960 0
DWIDTH 32 0
BBX 32 32 0 -2
BITMAP
00000000
00000000
00000000
00003000
0001F800
00C7F800
007E7000
0030E000
0001C000
00038000
00067C00
0009CE00
001E0700
00380300
00E78300
01CDC600
0198C600
00188C00
000FF000
0003C000
00060000
00180000
00300FC0
006018E0
00F83070
038C6030
0707C060
060380C0
00018300
00000000
00000000
00000000
ENDCHAR

STARTCHAR chs_A4F2
ENCODING 42226
SWIDTH 960 0
DWIDTH 32 0
BBX 32 32 0 -2
BITMAP
00000000
00000000
00040000
00070000
00038000
00030000
00033000
0007F800
031FFC00
01FE0000
00C60000
00060040
000C0060
000C0030
0018F070
001B38E0
00360DC0
00780F00
00E01C00
01C07C00
0181CC00
00070C00
001C0C00
00380C00
00300C00
00300000
00300000
001FFFC0
000FFFC0
00000000
00000000
00000000
ENDCHAR

STARTCHAR chs_A4F3
ENCODING 42227
SWIDTH 960 0
DWIDTH 32 0
BBX 32 32 0 -2
BITMAP
00000000
00000000
00000000
00020000
00038000
0001C000
0001C000
00018000
00038000
00030000
00030000
00060000
000E0000
000C0000
00180000
0039C000
00766000
006C6000
00F06008
00E06010
01C0C020
0380C060
0380C0C0
0700C180
0700E300
06007E00
06003C00
00000000
00000000
00000000
00000000
00000000
ENDCHAR

STARTCHAR chs_A5A1
ENCODING 42401
SWIDTH 960 0
DWIDTH 32 0
BBX 32 32 0 -2
BITMAP
00000000
00000000
00000000
00000000
00000000
00000000
00000000
00000000
00000000
00000C00
0000FE00
000FFE00
00FE1C00
00603800
00003000
00026000
00038000
00030000
00030000
00030000
00030000
00060000
00060000
00060000
000C0000
00100000
00200000
00400000
00000000
00000000
00000000
00000000
ENDCHAR

STARTCHAR chs_A5A2
ENCODING 42402
SWIDTH 960 0
DWIDTH 32 0
BBX 32 32 0 -2
BITMAP
00000000
00000000
00000000
00000000
000000C0
00000FE0
000FFFF0
0FFFC0F0
07F001C0
03020380
00038600
00019800
0001E000
00018000
00018000
00018000
00018000
00018000
00030000
00030000
00030000
00060000
00060000
000C0000
000C0000
00180000
00100000
00200000
00400000
00800000
00000000
00000000
ENDCHAR

STARTCHAR chs_A5A3
ENCODING 42403
SWIDTH 960 0
DWIDTH 32 0
BBX 32 32 0 -2
BITMAP
00000000
00000000
00000000
00000000
00000000
00000000
00000000
00000000
00000000
00004000
00006000
00007000
0000E000
0000C000
00018000
00038000
0006C000
000CC000
0010C000
0020C000
0000C000
0000C000
0000C000
0000C000
0000C000
0001C000
0001C000
0000C000
00000000
00000000
00000000
00000000
ENDCHAR

STARTCHAR chs_A5A4
ENCODING 42404
SWIDTH 960 0
DWIDTH 32 0
BBX 32 32 0 -2
BITMAP
00000000
00000000
00000000
00001000
00001800
00001E00
00003C00
00003800
00007000
0000E000
0000C000
00018000
00030000
00068000
000CC000
0018C000
0030C000
0060C000
0080C000
0100C000
0000C000
0000C000
0000C000
0000C000
0000C000
0000C000
0001C000
0001C000
0000C000
00008000
00000000
00000000
ENDCHAR

STARTCHAR chs_A5A5
ENCODING 42405
SWIDTH 960 0
DWIDTH 32 0
BBX 32 32 0 -2
BITMAP
00000000
00000000
00000000
00000000
00000000
00000000
00000000
00000000
00000000
00020000
00038000
0001C000
00018000
00018300
01C1FF80
00FFC380
00600300
00600700
00600600
00600E00
00600C00
00601800
00003000
00002000
00004000
00008000
00000000
00000000
00000000
00000000
00000000
00000000
ENDCHAR

STARTCHAR chs_A5A6
ENCODING 42406
SWIDTH 960 0
DWIDTH 32 0
BBX 32 32 0 -2
BITMAP
00000000
00000000
00000000
00060000
00038000
0001C000
00018000
00018000
00018180
0701FFC0
03FFE1E0
01F001E0
018001C0
01800380
01800380
01800300
01800700
01800600
01800C00
00000C00
00001800
00003000
00006000
0000C000
00018000
00010000
00020000
00040000
00000000
00000000
00000000
00000000
ENDCHAR

STARTCHAR chs_A5A7
ENCODING 42407
SWIDTH 960 0
DWIDTH 32 0
BBX 32 32 0 -2
BITMAP
00000000
00000000
00000000
00000000
00000000
00000000
00000000
00000000
00000000
00000000
00001800
0000FC00
007FFE00
00398000
00018000
00018000
00018000
00018000
00018000
00018000
00018000
00018600
0003FF00
01FFFF80
00F00000
00000000
00000000
00000000
00000000
00000000
00000000
00000000
ENDCHAR

STARTCHAR chs_A5A8
ENCODING 42408
SWIDTH 960 0
DWIDTH 32 0
BBX 32 32 0 -2
BITMAP
00000000
00000000
00000000
00000000
00000000
00000000
00000000
00000C00
0180FE00
00FFFF00
007F0000
0001C000
0001C000
00018000
00018000
00018000
00018000
00018000
00018000
000181C0
1801FFE0
0FFFFFF0
07F00000
03000000
00000000
00000000
00000000
00000000
00000000
00000000
00000000
00000000
ENDCHAR

STARTCHAR chs_A5A9
ENCODING 42409
SWIDTH 960 0
DWIDTH 32 0
BBX 32 32 0 -2
BITMAP
00000000
00000000
00000000
00000000
00000000
00000000
00000000
00000000
00008000
0000E000
00007000
00006000
00006400
0000FE00
003FFF00
0019E000
0001E000
00036000
00036000
00066000
000C6000
00186000
00106000
00246000
00436000
0003E000
0001C000
00008000
00000000
00000000
00000000
00000000
ENDCHAR

STARTCHAR chs_A5AA
ENCODING 42410
SWIDTH 960 0
DWIDTH 32 0
BBX 32 32 0 -2
BITMAP
00000000
00000000
00000000
00008000
0000E000
00007000
00007000
00006000
000060C0
00006FE0
0007FFF0
0FFFE000
07F0E000
0301E000
0001E000
00036000
00036000
00066000
000C6000
00186000
00306000
00606000
00C06000
01006000
020C6000
0007E000
0003E000
0001C000
0000C000
00000000
00000000
00000000
ENDCHAR

STARTCHAR chs_A5AB
ENCODING 42411
SWIDTH 960 0
DWIDTH 32 0
BBX 32 32 0 -2
BITMAP
00000000
00000000
00000000
00010000
00018000
0000C000
0000E000
0000E000
0001C000
0001C000
00018780
0203FFC0
01FFF1C0
00FB0180
00630180
00070180
00060380
000E0300
000C0300
001C0700
00180600
00380600
00300E00
00620C00
00C19C00
0180F800
03007000
04006000
08000000
00000000
00000000
00000000
ENDCHAR

STARTCHAR chs_A5AC
ENCODING 42412
SWIDTH 960 0
DWIDTH 32 0
BBX 32 32 0 -2
BITMAP
00000000
00000000
00000000
00020020
00030018
0001810C
0001C0CE
0001C0E6
00038074
00038030
00030F20
0407FF80
03FFE380
01F60300
00C60300
000E0300
000C0700
001C0600
00180600
00380E00
00300C00
00700C00
00601C00
00C41800
01833800
0301F000
0600E000
0400C000
08000000
00000000
00000000
00000000
ENDCHAR

STARTCHAR chs_A5AD
ENCODING 42413
SWIDTH 960 0
DWIDTH 32 0
BBX 32 32 0 -2
BITMAP
00000000
00000000
00000000
00100000
001C0000
000E0000
000E0000
00060000
00060C00
00067E00
000FFF00
07FF0000
03F30000
01830000
00030000
00018000
00018380
0001FFC0
001FFFE0
0FFFC000
07E0C000
03006000
00006000
00006000
00007000
00003000
00003800
00003800
00001800
00001000
00000000
00000000
ENDCHAR

STARTCHAR chs_A5AE
ENCODING 42414
SWIDTH 960 0
DWIDTH 32 0
BBX 32 32 0 -2
BITMAP
00000000
00000000
00000000
00200020
00380010
001C0318
001C018C
000C00CE
000C18E6
000CFC64
000FFE40
0FFE0000
07E60000
03060000
00060000
00030000
00030700
0003FF80
003FFFC0
1FFF8000
0FC18000
0600C000
0000C000
0000C000
0000E000
00006000
00007000
00007000
00003000
00002000
00000000
00000000
ENDCHAR

STARTCHAR chs_A5AF
ENCODING 42415
SWIDTH 960 0
DWIDTH 32 0
BBX 32 32 0 -2
BITMAP
00000000
00000000
00000000
00060000
00070000
00078000
000F0000
000E0300
001C1F80
0019FF80
003FC700
00600700
00C00E00
00800E00
01001C00
02001C00
00003800
00003000
00007000
0000E000
00018000
00030000
00060000
000C0000
00300000
00C00000
03000000
0C000000
00000000
00000000
00000000
00000000
ENDCHAR

STARTCHAR chs_A5B0
ENCODING 42416
SWIDTH 960 0
DWIDTH 32 0
BBX 32 32 0 -2
BITMAP
00000000
00000000
00000000
000C0060
000E0638
000F039C
001E01CC
001C0CCC
00387EC8
0033FE80
007F1C00
00C01C00
01803800
01003800
02007000
0400E000
0000E000
0001C000
00038000
00030000
00060000
000C0000
00180000
00300000
00600000
00C00000
03000000
0C000000
00000000
00000000
00000000
00000000
ENDCHAR

STARTCHAR chs_A5B1
ENCODING 42417
SWIDTH 960 0
DWIDTH 32 0
BBX 32 32 0 -2
BITMAP
00000000
00000000
00000000
00300000
001C0000
001E0000
001E0000
003C0000
003800C0
00700FE0
0061FFF0
00FFF000
01801C00
03001C00
06003800
04003800
08007000
10007000
0000E000
0000C000
00018000
00030000
00060000
000C0000
00180000
00300000
00600000
01800000
06000000
00000000
00000000
00000000
ENDCHAR

STARTCHAR chs_A5B2
ENCODING 42418
SWIDTH 960 0
DWIDTH 32 0
BBX 32 32 0 -2
BITMAP
00000000
00000000
00000000
00600018
0038000C
003C0186
003C00E6
00780074
00700330
00E01F80
00C3FFC0
01FFE000
03003800
06003800
0C007000
08007000
1000E000
2000E000
0001C000
00018000
00030000
00060000
000C0000
00180000
00300000
00600000
00C00000
03000000
0C000000
00000000
00000000
00000000
ENDCHAR

STARTCHAR chs_A5B3
ENCODING 42419
SWIDTH 960 0
DWIDTH 32 0
BBX 32 32 0 -2
BITMAP
00000000
00000000
00000000
00000000
00000000
00000000
00000000
00000000
00000000
00000380
0000FFC0
01FFFFC0
00F80380
00000380
00000380
00000700
00000700
00000600
00000E00
00000C00
00001C00
0003FF00
03FFFF80
01FC0000
00C00000
00000000
00000000
00000000
00000000
00000000
00000000
00000000
ENDCHAR

STARTCHAR chs_A5B4
ENCODING 42420
SWIDTH 960 0
DWIDTH 32 0
BBX 32 32 0 -2
BITMAP
00000000
00000000
00000000
00000000
00000000
00000030
00000018
0000019C
000000CC
000000E8
00000E60
0003FF40
07FFFF00
03E00E00
00000E00
00000E00
00001C00
00001C00
00003800
00003000
00007000
000FFC00
0FFFFE00
07F00000
03000000
00000000
00000000
00000000
00000000
00000000
00000000
00000000
ENDCHAR

STARTCHAR chs_A5B5
ENCODING 42421
SWIDTH 960 0
DWIDTH 32 0
BBX 32 32 0 -2
BITMAP
00000000
00000000
00000000
00001800
00001C00
00400E00
00700E00
00380C00
00180C00
00180C30
00181FF8
001FFFFC
1FFF9800
0FF81800
06181800
00181800
00183000
00183000
00183000
00183000
00386000
00386000
00186000
0010C000
0000C000
00018000
00010000
00020000
00040000
00000000
00000000
00000000
ENDCHAR

STARTCHAR chs_A5B6
ENCODING 42422
SWIDTH 960 0
DWIDTH 32 0
BBX 32 32 0 -2
BITMAP
00000000
00000030
0000001C
0000318E
000038C6
00001C64
00801C60
00E01840
00701800
00301800
00301860
00301FF0
003FFFF8
1FFF3000
0FF03000
06303000
00303000
00303000
00306000
00306000
00306000
0070C000
0070C000
0030C000
00218000
00018000
00030000
00020000
00040000
00000000
00000000
00000000
ENDCHAR

STARTCHAR chs_A5B7
ENCODING 42423
SWIDTH 960 0
DWIDTH 32 0
BBX 32 32 0 -2
BITMAP
00000000
00000000
00000000
00000000
00000000
00300000
001C0000
000E0000
00070000
00070000
00020000
00000000
03000010
01C00020
00E000C0
00700180
00700300
00200600
00000C00
00001800
00003000
0000E000
0001C000
01838000
00CF0000
00FE0000
007C0000
00780000
00300000
00000000
00000000
00000000
ENDCHAR

STARTCHAR chs_A5B8
ENCODING 42424
SWIDTH 960 0
DWIDTH 32 0
BBX 32 32 0 -2
BITMAP
00000000
00000000
00000000
000000E0
00000070
00300038
001C1C18
000E0E10
00070700
00070300
00020200
00000000
03000010
01C00020
00E000C0
00700180
00700300
00200600
00000C00
00001800
00003000
0000E000
0001C000
01838000
00CF0000
00FE0000
007C0000
00780000
00300000
00000000
00000000
00000000
ENDCHAR

STARTCHAR chs_A5B9
ENCODING 42425
SWIDTH 960 0
DWIDTH 32 0
BBX 32 32 0 -2
BITMAP
00000000
00000000
00000000
00000000
00000000
00000000
00000C00
0001FE00
01FFFE00
00FC1C00
00601C00
00003800
00003800
00007000
00007000
0000E000
0000E000
0001F000
00019C00
00030E00
00060700
000C0380
001801C0
003000E0
006000F0
01800070
06000020
00000000
00000000
00000000
00000000
00000000
ENDCHAR

STARTCHAR chs_A5BA
ENCODING 42426
SWIDTH 960 0
DWIDTH 32 0
BBX 32 32 0 -2
BITMAP
00000000
00000000
00000000
00000040
00000030
00000318
0000019C
0007F9CC
07FFF8C8
03F07080
01807000
0000E000
0000E000
0001C000
0001C000
00038000
00038000
0007C000
00067000
000C3800
00181C00
00300E00
00600700
00C00380
018003C0
060001C0
18000080
00000000
00000000
00000000
00000000
00000000
ENDCHAR

STARTCHAR chs_A5BB
ENCODING 42427
SWIDTH 960 0
DWIDTH 32 0
BBX 32 32 0 -2
BITMAP
00000000
00000000
00000000
00000000
00300000
001C0000
001E0000
000E0000
000C0000
000C0000
000C0180
000C0FC0
000C79E0
000FC1E0
003E0380
0FFC0300
07CC0600
030C0800
000C1000
000C0000
000C0000
000C0000
000C0000
000E0000
000F0380
0007FFC0
0003FF80
00000000
00000000
00000000
00000000
00000000
ENDCHAR

STARTCHAR chs_A5BC
ENCODING 42428
SWIDTH 960 0
DWIDTH 32 0
BBX 32 32 0 -2
BITMAP
00000000
00000000
00000000
00000060
00600638
0038039C
003801CC
001800C8
00180080
00180000
00180300
00181F80
0018FF80
001FC780
00380700
1FF80C00
0F981800
06182000
00184000
00180000
00180000
00180000
00180000
00180000
001E0700
000FFF80
0007FF00
00000000
00000000
00000000
00000000
00000000
ENDCHAR

STARTCHAR chs_A5BD
ENCODING 42429
SWIDTH 960 0
DWIDTH 32 0
BBX 32 32 0 -2
BITMAP
00000000
00000000
00000000
00000000
00000000
00000000
00000600
00000780
010003C0
00C003C0
00600380
00700380
00380300
003C0700
001C0700
001C0E00
00080E00
00001C00
00001800
00003000
00006000
0000C000
00018000
00030000
00060000
00180000
00600000
01800000
00000000
00000000
00000000
00000000
ENDCHAR

STARTCHAR chs_A5BE
ENCODING 42430
SWIDTH 960 0
DWIDTH 32 0
BBX 32 32 0 -2
BITMAP
00000000
00000000
00000020
00000018
0000010C
000000CE
00001866
00001E76
04000F34
03000F20
01800E00
01C00E00
00E00C00
00F01C00
00701C00
00703800
00203800
00007000
00006000
0000C000
00018000
00030000
00060000
000C0000
00180000
00600000
01800000
06000000
00000000
00000000
00000000
00000000
ENDCHAR

STARTCHAR chs_A5BF
ENCODING 42431
SWIDTH 960 0
DWIDTH 32 0
BBX 32 32 0 -2
BITMAP
00000000
00000000
00000000
00040000
00070000
00078000
00070000
000E0300
000E1F80
001CFF80
001FC700
00300700
00300600
00680E00
00C60E00
00871C00
01039800
0201F800
0000F000
00007000
0000F800
00019C00
00030E00
00060E00
000C0600
00180400
00600000
01800000
06000000
00000000
00000000
00000000
ENDCHAR

STARTCHAR chs_A5C0
ENCODING 42432
SWIDTH 960 0
DWIDTH 32 0
BBX 32 32 0 -2
BITMAP
00000000
00000000
00000000
00080030
000E019C
000F00CE
000E00E6
001C0664
001C3F40
0039FF00
003F8E00
00600E00
00600C00
00D01C00
018C1C00
010E3800
02073000
0403B000
0001E000
0000E000
0001B000
00033800
00061C00
000C1C00
00180C00
00300800
00C00000
03000000
0C000000
00000000
00000000
00000000
ENDCHAR

STARTCHAR chs_A5C1
ENCODING 42433
SWIDTH 960 0
DWIDTH 32 0
BBX 32 32 0 -2
BITMAP
00000000
00000000
00000000
00000800
00000E00
00001F00
00007F00
0001F000
000F8000
007C8000
03C0E000
0000E000
0000C060
0000FFF0
000FFFF8
0FFFC000
0780C000
0000C000
0000C000
00018000
00018000
00018000
00030000
00030000
00060000
000C0000
00180000
00300000
00400000
00800000
00000000
00000000
ENDCHAR

STARTCHAR chs_A5C2
ENCODING 42434
SWIDTH 960 0
DWIDTH 32 0
BBX 32 32 0 -2
BITMAP
00000000
00000000
00000000
00001000
00001C10
00003E08
0000FE8C
0003E046
001F0066
00F90034
0781C030
0001C020
00018180
0001FFC0
001FFFE0
1FFF8000
0F018000
00018000
00018000
00030000
00030000
00030000
00060000
00060000
000C0000
00180000
00300000
00600000
00800000
01000000
00000000
00000000
ENDCHAR

STARTCHAR chs_A5C3
ENCODING 42435
SWIDTH 960 0
DWIDTH 32 0
BBX 32 32 0 -2
BITMAP
00000000
00000000
00000000
00000000
00000000
00000000
00000000
00000000
00000000
00000000
00060200
00030380
000383C0
0181C3C0
00C1C380
00E0C700
00708700
00700E00
00300C00
00201C00
00001800
00003000
00006000
0000C000
00018000
00020000
00040000
00000000
00000000
00000000
00000000
00000000
ENDCHAR

STARTCHAR chs_A5C4
ENCODING 42436
SWIDTH 960 0
DWIDTH 32 0
BBX 32 32 0 -2
BITMAP
00000000
00000000
00000000
00000000
00000000
00000000
000C0000
00060300
000701C0
060381E0
0303C1E0
0181C1C0
01C1C380
01E18380
00E10700
00E00700
00C00600
00800C00
00001800
00003000
00006000
0000C000
00018000
00030000
00060000
00180000
00600000
00000000
00000000
00000000
00000000
00000000
ENDCHAR

STARTCHAR chs_A5C5
ENCODING 42437
SWIDTH 960 0
DWIDTH 32 0
BBX 32 32 0 -2
BITMAP
00000000
00000000
00000000
00000018
0000018C
000000CE
00300066
00180C74
001C0730
180E07A0
0C0F0780
06070700
07070E00
07860E00
03841C00
03801C00
03003800
02003000
00006000
0000C000
00018000
00030000
00060000
000C0000
00180000
00600000
01800000
00000000
00000000
00000000
00000000
00000000
ENDCHAR

STARTCHAR chs_A5C6
ENCODING 42438
SWIDTH 960 0
DWIDTH 32 0
BBX 32 32 0 -2
BITMAP
00000000
00000000
00000000
00000000
00000C00
0000FE00
00FFFF00
007C0000
00200000
00000000
00000000
000003C0
0000FFE0
1FFFFFF0
0FE20000
06038000
0001C000
0001C000
00018000
00018000
00018000
00030000
00030000
00060000
00060000
000C0000
00180000
00300000
00600000
01800000
00000000
00000000
ENDCHAR

STARTCHAR chs_A5C7
ENCODING 42439
SWIDTH 960 0
DWIDTH 32 0
BBX 32 32 0 -2
BITMAP
00000000
00000000
00000000
00000000
00003018
0001F80C
01FFFC8E
00FE00C6
00400066
00000074
00000030
00000320
0000FF80
1FFFFFC0
0FC40000
06070000
00038000
00038000
00030000
00030000
00070000
00060000
000E0000
000C0000
00180000
00180000
00300000
00600000
00C00000
03000000
00000000
00000000
ENDCHAR

STARTCHAR chs_A5C8
ENCODING 42440
SWIDTH 960 0
DWIDTH 32 0
BBX 32 32 0 -2
BITMAP
00000000
00000000
00000000
000C0000
000E0000
00070000
00070000
00060000
00060000
00060000
00060000
00060000
0007C000
00067000
00063800
00061C00
00060E00
00060700
00060300
00060200
00060000
00060000
00060000
00060000
00070000
000F0000
000E0000
00060000
00040000
00000000
00000000
00000000
ENDCHAR

STARTCHAR chs_A5C9
ENCODING 42441
SWIDTH 960 0
DWIDTH 32 0
BBX 32 32 0 -2
BITMAP
00000000
00000000
00000000
000C0000
000E0000
000700C0
00070070
00060C38
00060638
00060318
00060390
00060180
0007C100
00067000
00063800
00061C00
00060E00
00060700
00060300
00060200
00060000
00060000
00060000
00060000
00070000
000F0000
000E0000
00060000
00040000
00000000
00000000
00000000
ENDCHAR

STARTCHAR chs_A5CA
ENCODING 42442
SWIDTH 960 0
DWIDTH 32 0
BBX 32 32 0 -2
BITMAP
00000000
00000000
00000000
00010000
0001C000
0000E000
0000E000
0000C000
0000C000
0000C000
0000C0C0
0000CFE0
0003FFF0
0FFFC000
07E0C000
0300C000
00018000
00018000
00018000
00038000
00030000
00030000
00070000
00060000
00060000
000C0000
00180000
00100000
00200000
00400000
00000000
00000000
ENDCHAR

STARTCHAR chs_A5CB
ENCODING 42443
SWIDTH 960 0
DWIDTH 32 0
BBX 32 32 0 -2
BITMAP
00000000
00000000
00000000
00000000
00000000
00000000
00000000
00000000
00000C00
0000FE00
00FFFF00
007C0000
00200000
00000000
00000000
00000000
00000000
00000000
00000060
00003FF0
0FFFFFF8
07F80000
03000000
00000000
00000000
00000000
00000000
00000000
00000000
00000000
00000000
00000000
ENDCHAR

STARTCHAR chs_A5CC
ENCODING 42444
SWIDTH 960 0
DWIDTH 32 0
BBX 32 32 0 -2
BITMAP
00000000
00000000
00000000
00000000
00000000
00000C00
0000FE00
007FFF00
003E0F00
00180E00
00001C00
00001C00
00001800
00301800
000C3000
00076000
0003E000
0001E000
0000F000
0001BC00
00031E00
00060F00
000C0780
00180380
00300380
00C00100
03000000
0C000000
00000000
00000000
00000000
00000000
ENDCHAR

STARTCHAR chs_A5CD
ENCODING 42445
SWIDTH 960 0
DWIDTH 32 0
BBX 32 32 0 -2
BITMAP
00000000
00000000
00070000
0003C000
0001E000
0000E000
00004000
00000000
00000600
0001FF00
00FFFF00
007C7800
0020F000
0000E000
0001C000
00038C00
0003E700
0006E380
000CC1C0
0018C0E0
0030C070
0060C070
00C0C020
0300C000
0C00C000
0000E000
0001E000
0001C000
0000C000
00008000
00000000
00000000
ENDCHAR

STARTCHAR chs_A5CE
ENCODING 42446
SWIDTH 960 0
DWIDTH 32 0
BBX 32 32 0 -2
BITMAP
00000000
00000000
00000000
00001800
00001E00
00000F00
00000F00
00000E00
00001C00
00001C00
00001C00
00003800
00003800
00003000
00007000
00006000
0000E000
0000C000
00018000
00018000
00030000
00060000
000C0000
00180000
00300000
00600000
00C00000
03000000
00000000
00000000
00000000
00000000
ENDCHAR

STARTCHAR chs_A5CF
ENCODING 42447
SWIDTH 960 0
DWIDTH 32 0
BBX 32 32 0 -2
BITMAP
00000000
00000000
00000000
00000000
00000000
00000000
00000000
00000000
00000000
00003000
00381C00
001C0E00
001C0700
00380380
003801C0
007000E0
007000E0
00E00070
00C00070
01800078
03000038
06000038
0C000030
10000000
00000000
00000000
00000000
00000000
00000000
00000000
00000000
00000000
ENDCHAR

STARTCHAR chs_A5D0
ENCODING 42448
SWIDTH 960 0
DWIDTH 32 0
BBX 32 32 0 -2
BITMAP
00000000
00000000
00000000
00000000
00000060
00000030
00000018
0000031C
000001CC
000060E8
00703860
00381C40
00380E00
00700700
00700380
00E001C0
00E001C0
01C000E0
018000E0
030000F0
06000070
0C000070
18000060
20000000
00000000
00000000
00000000
00000000
00000000
00000000
00000000
00000000
ENDCHAR

STARTCHAR chs_A5D1
ENCODING 42449
SWIDTH 960 0
DWIDTH 32 0
BBX 32 32 0 -2
BITMAP
00000000
00000000
00000000
00000000
00000000
00000078
000000CC
00000084
00000084
000060CC
00703878
00381C00
00380E00
00700700
00700380
00E001C0
00E001C0
01C000E0
018000E0
030000F0
06000070
0C000070
18000060
20000000
00000000
00000000
00000000
00000000
00000000
00000000
00000000
00000000
ENDCHAR

STARTCHAR chs_A5D2
ENCODING 42450
SWIDTH 960 0
DWIDTH 32 0
BBX 32 32 0 -2
BITMAP
00000000
00000000
00000000
00000000
00000000
00C00000
00E00000
00700000
00700000
00601800
00600C00
00603E00
00607E00
0061F000
00678000
007E0000
00600000
00600000
00600000
00600000
00600000
00600000
00600000
00600000
00700380
003FFFC0
001FFFC0
00000000
00000000
00000000
00000000
00000000
ENDCHAR

STARTCHAR chs_A5D3
ENCODING 42451
SWIDTH 960 0
DWIDTH 32 0
BBX 32 32 0 -2
BITMAP
00000000
00000000
00000000
00000000
00000060
00C00038
00E0001C
0070030C
007001C8
006000E0
00601860
00600C40
00603E00
00607E00
0061F000
00678000
007E0000
00600000
00600000
00600000
00600000
00600000
00600000
00600000
00700380
003FFFC0
001FFFC0
00000000
00000000
00000000
00000000
00000000
ENDCHAR

STARTCHAR chs_A5D4
ENCODING 42452
SWIDTH 960 0
DWIDTH 32 0
BBX 32 32 0 -2
BITMAP
00000000
00000000
00000000
00000000
000000F0
00C00198
00E00108
00700108
00700198
006000F0
00601800
00600C00
00603E00
00607E00
0061F000
00678000
007E0000
00600000
00600000
00600000
00600000
00600000
00600000
00600000
00700380
003FFFC0
001FFFC0
00000000
00000000
00000000
00000000
00000000
ENDCHAR

STARTCHAR chs_A5D5
ENCODING 42453
SWIDTH 960 0
DWIDTH 32 0
BBX 32 32 0 -2
BITMAP
00000000
00000000
00000000
00000000
00000000
00000000
00000380
00007FC0
03FFFFC0
01FC0380
00C00380
00000380
00000700
00000700
00000E00
00000E00
00001C00
00001800
00003000
00003000
00006000
0000C000
00018000
00030000
00060000
000C0000
00180000
00200000
00400000
00000000
00000000
00000000
ENDCHAR

STARTCHAR chs_A5D6
ENCODING 42454
SWIDTH 960 0
DWIDTH 32 0
BBX 32 32 0 -2
BITMAP
00000000
00000000
00000000
00000018
0000018C
000000CE
00000066
00000E34
0001FF30
0FFFFF20
07F00E00
03000E00
00000E00
00001C00
00001C00
00003800
00003800
00007000
00006000
0000C000
0000C000
00018000
00030000
00060000
000C0000
00180000
00300000
00400000
00800000
00000000
00000000
00000000
ENDCHAR

STARTCHAR chs_A5D7
ENCODING 42455
SWIDTH 960 0
DWIDTH 32 0
BBX 32 32 0 -2
BITMAP
00000000
00000000
00000000
0000003C
00000066
00000042
00000042
00000E66
0001FF3C
0FFFFF00
07F00E00
03000E00
00000E00
00001C00
00001C00
00003800
00003800
00007000
00006000
0000C000
0000C000
00018000
00030000
00060000
000C0000
00180000
00300000
00400000
00800000
00000000
00000000
00000000
ENDCHAR

STARTCHAR chs_A5D8
ENCODING 42456
SWIDTH 960 0
DWIDTH 32 0
BBX 32 32 0 -2
BITMAP
00000000
00000000
00000000
00000000
00000000
00000000
00000000
00000000
00000000
00000000
001E0000
003F0000
00718000
00E0C000
01C06000
0F803000
07001C00
00000E00
00000700
000003C0
000001F8
0000007C
0000001C
00000000
00000000
00000000
00000000
00000000
00000000
00000000
00000000
00000000
ENDCHAR

STARTCHAR chs_A5D9
ENCODING 42457
SWIDTH 960 0
DWIDTH 32 0
BBX 32 32 0 -2
BITMAP
00000000
00000000
00000000
00000000
00000000
00000000
000000C0
00000070
00000038
00000618
001E0310
003F0180
007181C0
00E0C0C0
01C06080
0F803000
07001C00
00000E00
00000700
000003C0
000001F8
0000007C
0000001C
00000000
00000000
00000000
00000000
00000000
00000000
00000000
00000000
00000000
ENDCHAR

STARTCHAR chs_A5DA
ENCODING 42458
SWIDTH 960 0
DWIDTH 32 0
BBX 32 32 0 -2
BITMAP
00000000
00000000
00000000
00000000
00000000
00000000
00000000
000001E0
00000330
00000210
001E0210
003F0330
007181E0
00E0C000
01C06000
0F803000
07001C00
00000E00
00000700
000003C0
000001F8
0000007C
0000001C
00000000
00000000
00000000
00000000
00000000
00000000
00000000
00000000
00000000
ENDCHAR

STARTCHAR chs_A5DB
ENCODING 42459
SWIDTH 960 0
DWIDTH 32 0
BBX 32 32 0 -2
BITMAP
00000000
00000000
00000000
00030000
00038000
0001C000
0001C000
00018000
00018000
00018000
00018180
0001BFC0
07FFFFE0
03F18000
01818000
00018000
00418C00
00C18600
00C18300
01818380
038181C0
078181E0
070180E0
070180E0
02118040
000D8000
00078000
00078000
00030000
00000000
00000000
00000000
ENDCHAR

STARTCHAR chs_A5DC
ENCODING 42460
SWIDTH 960 0
DWIDTH 32 0
BBX 32 32 0 -2
BITMAP
00000000
00000000
00000000
00030030
0003801C
0001C18E
0001C0E6
00018074
00018030
00018020
00018180
0001BFC0
07FFFFE0
03F18000
01818000
00018000
00418C00
00C18600
00C18300
01818380
038181C0
078181E0
070180E0
071180E0
020D8040
00078000
00078000
00038000
00030000
00000000
00000000
00000000
ENDCHAR

STARTCHAR chs_A5DD
ENCODING 42461
SWIDTH 960 0
DWIDTH 32 0
BBX 32 32 0 -2
BITMAP
00000000
00000000
00000000
000300F0
00038198
0001C108
0001C108
00018198
000180F0
00018000
00018180
0001BFC0
07FFFFE0
03F18000
01818000
00018000
00418C00
00C18600
00C18300
01818380
038181C0
078181E0
070180E0
071180E0
020D8040
00078000
00078000
00038000
00030000
00000000
00000000
00000000
ENDCHAR

STARTCHAR chs_A5DE
ENCODING 42462
SWIDTH 960 0
DWIDTH 32 0
BBX 32 32 0 -2
BITMAP
00000000
00000000
00000000
00000000
00000000
00000000
00000000
00000000
000001C0
00003FE0
0C0FFFE0
07FF03C0
03F00780
01800700
00000E00
00001C00
00001800
00183000
00066000
00038000
0001E000
0000F000
00007800
00007800
00003000
00000000
00000000
00000000
00000000
00000000
00000000
00000000
ENDCHAR

STARTCHAR chs_A5DF
ENCODING 42463
SWIDTH 960 0
DWIDTH 32 0
BBX 32 32 0 -2
BITMAP
00000000
00000000
00000000
00000000
00000000
001E0000
0007C000
0001F000
00007800
00003C00
00001C00
00000800
003C0000
000F0000
0003C000
0000F000
00007800
00003800
00001000
00000000
00000000
00780000
001F0000
0007E000
0001FC00
00007E00
00001F00
00000F00
00000600
00000000
00000000
00000000
ENDCHAR

STARTCHAR chs_A5E0
ENCODING 42464
SWIDTH 960 0
DWIDTH 32 0
BBX 32 32 0 -2
BITMAP
00000000
00000000
00000000
00020000
00038000
0001C000
0001E000
0001E000
0003C000
00038000
00070000
00070000
000E0000
000C0000
001C0000
00180000
00381C00
00300600
00600300
00600380
00C001C0
01807FE0
0FFFF0E0
07FF00E0
03F00040
01800000
00000000
00000000
00000000
00000000
00000000
00000000
ENDCHAR

STARTCHAR chs_A5E1
ENCODING 42465
SWIDTH 960 0
DWIDTH 32 0
BBX 32 32 0 -2
BITMAP
00000000
00000000
00000000
00000000
00000C00
00000F00
00000780
00000780
00000700
00000E00
00000E00
00001C00
000C1C00
00073800
0003B800
0001F000
0000F000
0000F800
0001FC00
00019E00
00030E00
00060E00
000C0400
00180000
00300000
00600000
01800000
06000000
00000000
00000000
00000000
00000000
ENDCHAR

STARTCHAR chs_A5E2
ENCODING 42466
SWIDTH 960 0
DWIDTH 32 0
BBX 32 32 0 -2
BITMAP
00000000
00000000
00000000
00000000
00000000
00000000
00001800
0001FC00
01FFFE00
00FC0000
00470000
00038000
00038000
00030180
00031FC0
000FFFE0
0FFF8000
07E30000
03030000
00030000
00030000
00030000
00030000
00038380
0001FFC0
0000FFC0
00000000
00000000
00000000
00000000
00000000
00000000
ENDCHAR

STARTCHAR chs_A5E3
ENCODING 42467
SWIDTH 960 0
DWIDTH 32 0
BBX 32 32 0 -2
BITMAP
00000000
00000000
00000000
00000000
00000000
00000000
00000000
00000000
00000000
00000000
00300000
00380000
001C0000
001C0400
00181E00
0018FF00
023FC700
03F80600
01CC0C00
000C0800
000C1000
00060000
00060000
00060000
00030000
00038000
00018000
00018000
00000000
00000000
00000000
00000000
ENDCHAR

STARTCHAR chs_A5E4
ENCODING 42468
SWIDTH 960 0
DWIDTH 32 0
BBX 32 32 0 -2
BITMAP
00000000
00000000
00000000
00000000
00600000
00780000
00380000
00180000
001C0000
000C0080
000C07C0
00063FE0
0007F8F0
007F01F0
1FF601C0
0F870300
04030600
00030800
00030000
00018000
00018000
0001C000
0000C000
0000E000
0000E000
00007000
00007000
00003000
00000000
00000000
00000000
00000000
ENDCHAR

STARTCHAR chs_A5E5
ENCODING 42469
SWIDTH 960 0
DWIDTH 32 0
BBX 32 32 0 -2
BITMAP
00000000
00000000
00000000
00000000
00000000
00000000
00000000
00000000
00000000
00000000
00000000
00000000
00003000
0007F800
00FFF000
0060E000
0000E000
0000C000
0000C000
0001C000
00018000
00018600
0003FF00
03FFFF80
01F80000
00C00000
00000000
00000000
00000000
00000000
00000000
00000000
ENDCHAR

STARTCHAR chs_A5E6
ENCODING 42470
SWIDTH 960 0
DWIDTH 32 0
BBX 32 32 0 -2
BITMAP
00000000
00000000
00000000
00000000
00000000
00000000
00000000
00000C00
0000FE00
00FFFE00
007C1C00
00201C00
00001800
00003800
00003000
00003000
00006000
00006000
00006000
0000C0C0
0000FFE0
0FFFFFE0
07F00000
03000000
00000000
00000000
00000000
00000000
00000000
00000000
00000000
00000000
ENDCHAR

STARTCHAR chs_A5E7
ENCODING 42471
SWIDTH 960 0
DWIDTH 32 0
BBX 32 32 0 -2
BITMAP
00000000
00000000
00000000
00000000
00000000
00000000
00000000
00000000
00000000
00000000
00000C00
0001FE00
00FFFE00
007C1C00
00201800
00001800
00001800
003FF800
001FB000
00083000
00003000
00003000
00007C00
00FFFE00
007C0000
00300000
00000000
00000000
00000000
00000000
00000000
00000000
ENDCHAR

STARTCHAR chs_A5E8
ENCODING 42472
SWIDTH 960 0
DWIDTH 32 0
BBX 32 32 0 -2
BITMAP
00000000
00000000
00000000
00000000
00000000
00000000
00000700
0000FF80
03FFFFC0
01FC03C0
00C00380
00000300
00000300
00000300
0000FF00
00FFFE00
007E0600
00200600
00000600
00000C00
00000C00
00000C00
0000FF00
01FFFF80
00FE0000
00600000
00000000
00000000
00000000
00000000
00000000
00000000
ENDCHAR

STARTCHAR chs_A5E9
ENCODING 42473
SWIDTH 960 0
DWIDTH 32 0
BBX 32 32 0 -2
BITMAP
00000000
00000000
00000000
00000000
00000C00
00007E00
007FFF00
003E0000
00100000
00000000
00000000
00000380
00007FC0
03FFFFC0
01FC0380
00800380
00000700
00000700
00000E00
00000E00
00001800
00001800
00003000
00006000
0000C000
00018000
00030000
000C0000
00700000
00000000
00000000
00000000
ENDCHAR

STARTCHAR chs_A5EA
ENCODING 42474
SWIDTH 960 0
DWIDTH 32 0
BBX 32 32 0 -2
BITMAP
00000000
00000000
00000000
00000000
00001000
00001C00
00C00E00
00700E00
00780C00
00380C00
00300C00
00300C00
00300C00
00300C00
00300C00
00300C00
00300C00
00701800
00701800
00301800
00203000
00003000
00006000
00006000
0000C000
00018000
00030000
00040000
00080000
00000000
00000000
00000000
ENDCHAR

STARTCHAR chs_A5EB
ENCODING 42475
SWIDTH 960 0
DWIDTH 32 0
BBX 32 32 0 -2
BITMAP
00000000
00000000
00000000
00000000
00000000
00018000
0000C000
0080E000
00E0E000
0070C000
0070C000
0060C000
0060C000
0060C000
0060C008
0060C010
0060C060
0060C0C0
00C0C180
00C0C300
00C0CE00
0180DC00
0180F800
0301F000
0601E000
0C008000
30000000
00000000
00000000
00000000
00000000
00000000
ENDCHAR

STARTCHAR chs_A5EC
ENCODING 42476
SWIDTH 960 0
DWIDTH 32 0
BBX 32 32 0 -2
BITMAP
00000000
00000000
00000000
00000000
00000000
00000000
00C00000
00700000
00380000
00380000
00300000
00300000
00300010
00300020
003000C0
00300180
00300300
00300600
00300C00
00301800
00307000
0030E000
0033C000
007F8000
007F0000
003C0000
00100000
00000000
00000000
00000000
00000000
00000000
ENDCHAR

STARTCHAR chs_A5ED
ENCODING 42477
SWIDTH 960 0
DWIDTH 32 0
BBX 32 32 0 -2
BITMAP
00000000
00000000
00000000
00000000
00000000
00000000
00000000
00000000
01800000
01C7FFE0
00FE01E0
00C001C0
00C001C0
00C00380
00400380
00400300
00400300
00600700
00600600
00600600
00600E00
0063FF80
007FFFC0
00600000
00000000
00000000
00000000
00000000
00000000
00000000
00000000
00000000
ENDCHAR

STARTCHAR chs_A5EE
ENCODING 42478
SWIDTH 960 0
DWIDTH 32 0
BBX 32 32 0 -2
BITMAP
00000000
00000000
00000000
00000000
00000000
00000000
00000000
00000000
00000000
00000000
00000000
01800C00
01FFFE00
00FE0700
00C00700
00C00E00
00C00E00
00C00C00
00E01C00
00E01800
00C03800
00003000
00006000
0000C000
00018000
00030000
00060000
00080000
00000000
00000000
00000000
00000000
ENDCHAR

STARTCHAR chs_A5EF
ENCODING 42479
SWIDTH 960 0
DWIDTH 32 0
BBX 32 32 0 -2
BITMAP
00000000
00000000
00000000
00000000
00000000
00000000
03000180
03FFFFC0
01FE01E0
018001E0
018001C0
018001C0
01800380
01800380
01800700
01C00700
01C00E00
01800E00
00001C00
00001C00
00003800
00003000
00006000
0000C000
00018000
00030000
00060000
00080000
00000000
00000000
00000000
00000000
ENDCHAR

STARTCHAR chs_A5F0
ENCODING 42480
SWIDTH 960 0
DWIDTH 32 0
BBX 32 32 0 -2
BITMAP
00000000
00000000
00000000
0000C000
0000E000
00007000
00007000
00006000
00006000
00006180
01807FC0
00FFFFE0
00FFE000
00606000
00606000
00606000
00606060
00607FF0
0FFFFFF8
07FC6000
03006000
00006000
00006000
00006000
00006000
00006000
00006000
0000E000
0000E000
00006000
00004000
00000000
ENDCHAR

STARTCHAR chs_A5F1
ENCODING 42481
SWIDTH 960 0
DWIDTH 32 0
BBX 32 32 0 -2
BITMAP
00000000
00000000
00000000
00000000
00000000
00000000
00000000
00001F00
0003FF80
03FFC3C0
01F80380
00C00600
00040C00
00071800
0003E000
00038000
00018000
00018000
00018000
00018000
00018000
00018000
000180E0
0001FFF0
1FFFFFF8
0FF80000
06000000
00000000
00000000
00000000
00000000
00000000
ENDCHAR

STARTCHAR chs_A5F2
ENCODING 42482
SWIDTH 960 0
DWIDTH 32 0
BBX 32 32 0 -2
BITMAP
00000000
00000000
00000000
00000000
00000300
0000FF80
000FFF80
03FF0700
01F00700
00C00700
00000E00
00000E00
00000E00
00003C00
001FFC00
1FFF1800
0FC03800
06003000
00003000
00006000
00006000
0000C000
0000C000
00018000
00030000
00060000
000C0000
00180000
00200000
00400000
00000000
00000000
ENDCHAR

STARTCHAR chs_A5F3
ENCODING 42483
SWIDTH 960 0
DWIDTH 32 0
BBX 32 32 0 -2
BITMAP
00000000
00000000
00000000
00000000
00000000
00000000
00000000
00700000
003C0000
000E0000
00070000
00070000
00060020
00000040
00000180
00000300
00000600
00000C00
00001800
00003000
0000E000
0001C000
01078000
019F0000
01FE0000
00FC0000
00700000
00000000
00000000
00000000
00000000
00000000
ENDCHAR

STARTCHAR chs_A5F4
ENCODING 42484
SWIDTH 960 0
DWIDTH 32 0
BBX 32 32 0 -2
BITMAP
00000000
00000000
00000000
00000030
00000318
000E019C
000781CC
000380C8
00030080
00030000
00030380
0E03FFC0
07FFFFC0
03F003C0
01800380
01800380
01800700
01800700
01800E00
01800E00
01801C00
00001800
00003000
00006000
0000C000
00038000
000E0000
00380000
00E00000
00000000
00000000
00000000
ENDCHAR

STARTCHAR chs_A5F5
ENCODING 42485
SWIDTH 960 0
DWIDTH 32 0
BBX 32 32 0 -2
BITMAP
00000000
00000000
00000000
00000000
00000000
00000000
00000000
00000000
00030000
00038000
0001C000
00018000
00018400
0001BE00
00FFFF00
007F8700
00230600
00030600
00060E00
00060C00
000C0C00
00181C00
001A1800
00319800
0041F800
0080F000
00006000
00000000
00000000
00000000
00000000
00000000
ENDCHAR

STARTCHAR chs_A5F6
ENCODING 42486
SWIDTH 960 0
DWIDTH 32 0
BBX 32 32 0 -2
BITMAP
00000000
00000000
00000000
00000000
00000000
00000000
00000000
00000000
00080000
000E0000
000E0000
001C0200
00183F00
0031FF80
003FF000
00607000
00407000
0080E000
0100E000
0000C000
0001C000
00018000
00030000
00060000
000C0000
00080000
00100000
00200000
00000000
00000000
00000000
00000000
ENDCHAR

STARTCHAR chs_A6A1
ENCODING 42657
SWIDTH 960 0
DWIDTH 32 0
BBX 32 32 0 -2
BITMAP
00000000
00000000
00000000
0001C000
0003E000
0002E000
0006E000
00047000
00047000
00087000
00083800
00183800
00103C00
00101C00
00201C00
00200E00
00600E00
00400F00
00FFFF00
00800700
00800780
01000380
010003C0
030001C0
020001E0
0F0001F0
3FE01FFC
00000000
00000000
00000000
00000000
00000000
ENDCHAR

STARTCHAR chs_A6A2
ENCODING 42658
SWIDTH 960 0
DWIDTH 32 0
BBX 32 32 0 -2
BITMAP
00000000
00000000
00000000
03FFFC00
00F00F00
00700780
00700380
00700380
00700380
00700380
00700380
00700300
00700600
00700C00
007FFE00
00700780
007001C0
007000C0
007000E0
007000E0
007000E0
007000E0
007000E0
007000C0
007001C0
00F00780
07FFFE00
00000000
00000000
00000000
00000000
00000000
ENDCHAR

STARTCHAR chs_A6A3
ENCODING 42659
SWIDTH 960 0
DWIDTH 32 0
BBX 32 32 0 -2
BITMAP
00000000
00000000
00000000
03FFFFC0
007801C0
003800C0
00380040
00380040
00380040
00380040
00380000
00380000
00380000
00380000
00380000
00380000
00380000
00380000
00380000
00380000
00380000
00380000
00380000
00380000
00380000
007C0000
03FF8000
00000000
00000000
00000000
00000000
00000000
ENDCHAR

STARTCHAR chs_A6A4
ENCODING 42660
SWIDTH 960 0
DWIDTH 32 0
BBX 32 32 0 -2
BITMAP
00000000
00000000
00000000
00010000
00018000
0003C000
0002C000
0004E000
00046000
00087000
00083000
00103800
00101800
00201C00
00200C00
00400E00
00400600
00800700
00800300
01000380
01000180
020001C0
020000E0
040000E0
04000070
08000078
1FFFFFF8
00000000
00000000
00000000
00000000
00000000
ENDCHAR

STARTCHAR chs_A6A5
ENCODING 42661
SWIDTH 960 0
DWIDTH 32 0
BBX 32 32 0 -2
BITMAP
00000000
00000000
00000000
07FFFFC0
00F801C0
007000C0
00700040
00700040
00700000
00700000
00700400
00700400
00700400
00700C00
007FFC00
00700C00
00700400
00700400
00700400
00700000
00700000
00700020
00700020
00700060
00700060
00F800E0
07FFFFE0
00000000
00000000
00000000
00000000
00000000
ENDCHAR

STARTCHAR chs_A6A6
ENCODING 42662
SWIDTH 960 0
DWIDTH 32 0
BBX 32 32 0 -2
BITMAP
00000000
00000000
00000000
03FFFFE0
038003C0
03000780
02000F00
06000E00
04001C00
04003C00
00007800
0000F000
0000E000
0001E000
0003C000
00078000
000F0000
001E0000
001C0000
00380000
00780020
00700020
00E00060
01E00040
03C000C0
078001C0
07FFFFC0
00000000
00000000
00000000
00000000
00000000
ENDCHAR

STARTCHAR chs_A6A7
ENCODING 42663
SWIDTH 960 0
DWIDTH 32 0
BBX 32 32 0 -2
BITMAP
00000000
00000000
00000000
3FF81FFC
07C003E0
038001C0
038001C0
038001C0
038001C0
038001C0
038001C0
038001C0
038001C0
038001C0
03FFFFC0
038001C0
038001C0
038001C0
038001C0
038001C0
038001C0
038001C0
038001C0
038001C0
038001C0
07C003E0
3FF81FFC
00000000
00000000
00000000
00000000
00000000
ENDCHAR

STARTCHAR chs_A6A8
ENCODING 42664
SWIDTH 960 0
DWIDTH 32 0
BBX 32 32 0 -2
BITMAP
00000000
00000000
00000000
000FF000
00700E00
01C00380
038001C0
06000060
06000060
0E000070
0E200470
0E200470
0E300C70
0E3FFC70
0E3FFC70
0E3FFC70
0E300C70
0E200470
0E200470
0E000070
0E000070
06000060
06000060
038001C0
01C00380
00700E00
001FF000
00000000
00000000
00000000
00000000
00000000
ENDCHAR

STARTCHAR chs_A6A9
ENCODING 42665
SWIDTH 960 0
DWIDTH 32 0
BBX 32 32 0 -2
BITMAP
00000000
00000000
00000000
003FF800
0007C000
00038000
00038000
00038000
00038000
00038000
00038000
00038000
00038000
00038000
00038000
00038000
00038000
00038000
00038000
00038000
00038000
00038000
00038000
00038000
00038000
0007C000
003FF800
00000000
00000000
00000000
00000000
00000000
ENDCHAR

STARTCHAR chs_A6AA
ENCODING 42666
SWIDTH 960 0
DWIDTH 32 0
BBX 32 32 0 -2
BITMAP
00000000
00000000
00000000
0FFC7FE0
03E00700
01C00C00
01C01800
01C03000
01C06000
01C0C000
01C18000
01C30000
01C60000
01CF0000
01DF8000
01F38000
01E1C000
01C1E000
01C0F000
01C07800
01C07800
01C03C00
01C01E00
01C00F00
01C00780
03E007C0
0FFC3FF8
00000000
00000000
00000000
00000000
00000000
ENDCHAR

STARTCHAR chs_A6AB
ENCODING 42667
SWIDTH 960 0
DWIDTH 32 0
BBX 32 32 0 -2
BITMAP
00000000
00000000
00000000
0001C000
0003E000
0002E000
0006E000
00047000
00047000
00087000
00083800
00183800
00103C00
00101C00
00201C00
00200E00
00600E00
00400F00
00800700
00800700
00800780
01000380
010003C0
030001C0
020001E0
0F0001F0
3FE01FFC
00000000
00000000
00000000
00000000
00000000
ENDCHAR

STARTCHAR chs_A6AC
ENCODING 42668
SWIDTH 960 0
DWIDTH 32 0
BBX 32 32 0 -2
BITMAP
00000000
00000000
00000000
3F8001FC
0F8001F0
07C002E0
05C002E0
05C002E0
04E004E0
04E004E0
04E004E0
047008E0
047008E0
047008E0
043810E0
043810E0
043810E0
041C20E0
041C20E0
041C40E0
040E40E0
040EC0E0
040F80E0
040780E0
040700E0
0E0301F0
3F8207FC
00000000
00000000
00000000
00000000
00000000
ENDCHAR

STARTCHAR chs_A6AD
ENCODING 42669
SWIDTH 960 0
DWIDTH 32 0
BBX 32 32 0 -2
BITMAP
00000000
00000000
00000000
1F8007FC
078000E0
03C00040
01E00040
01F00040
01780040
013C0040
011E0040
010F0040
01078040
0103C040
0101E040
0100F040
01007840
01003C40
01001E40
01000F40
010007C0
010003C0
010001C0
010000C0
010000C0
03800040
1FF00040
00000000
00000000
00000000
00000000
00000000
ENDCHAR

STARTCHAR chs_A6AE
ENCODING 42670
SWIDTH 960 0
DWIDTH 32 0
BBX 32 32 0 -2
BITMAP
00000000
00000000
00000000
0FFFFFE0
0FFFFFE0
0FFFFFE0
0E0000E0
0C000060
08000020
08000020
00800200
00800200
00C00600
00FFFE00
00FFFE00
00FFFE00
00C00600
00800200
00800200
08000020
08000020
08000020
0C000060
0E0000E0
0FFFFFE0
0FFFFFE0
0FFFFFE0
00000000
00000000
00000000
00000000
00000000
ENDCHAR

STARTCHAR chs_A6AF
ENCODING 42671
SWIDTH 960 0
DWIDTH 32 0
BBX 32 32 0 -2
BITMAP
00000000
00000000
00000000
0007E000
00381C00
00E00700
01800180
030000C0
06000060
0C000030
0C000030
1C000038
1C000038
1C000038
1C000038
1C000038
1C000038
1C000038
1C000038
0C000030
0C000030
06000060
030000C0
01800180
00E00700
00381C00
0007E000
00000000
00000000
00000000
00000000
00000000
ENDCHAR

STARTCHAR chs_A6B0
ENCODING 42672
SWIDTH 960 0
DWIDTH 32 0
BBX 32 32 0 -2
BITMAP
00000000
00000000
00000000
3FFFFFFC
078001E0
038001C0
038001C0
038001C0
038001C0
038001C0
038001C0
038001C0
038001C0
038001C0
038001C0
038001C0
038001C0
038001C0
038001C0
038001C0
038001C0
038001C0
038001C0
038001C0
038001C0
07C003E0
3FF81FFC
00000000
00000000
00000000
00000000
00000000
ENDCHAR

STARTCHAR chs_A6B1
ENCODING 42673
SWIDTH 960 0
DWIDTH 32 0
BBX 32 32 0 -2
BITMAP
00000000
00000000
00000000
0FFFFC00
01E00700
00E00380
00E001C0
00E001C0
00E001C0
00E001C0
00E001C0
00E001C0
00E00380
00E00700
00FFFC00
00E00000
00E00000
00E00000
00E00000
00E00000
00E00000
00E00000
00E00000
00E00000
00E00000
01F00000
0FFE0000
00000000
00000000
00000000
00000000
00000000
ENDCHAR

STARTCHAR chs_A6B2
ENCODING 42674
SWIDTH 960 0
DWIDTH 32 0
BBX 32 32 0 -2
BITMAP
00000000
00000000
00000000
0FFFFFC0
070001C0
038000C0
01C00040
00E00040
00700000
00380000
001C0000
000E0000
00070000
0003E000
0001C000
00018000
00030000
00060000
000C0000
00180000
00300000
00600000
00C00040
01800040
030000C0
07FFFFC0
0FFFFFC0
00000000
00000000
00000000
00000000
00000000
ENDCHAR

STARTCHAR chs_A6B3
ENCODING 42675
SWIDTH 960 0
DWIDTH 32 0
BBX 32 32 0 -2
BITMAP
00000000
00000000
00000000
03FFFFE0
0381C0E0
0301C060
0601C030
0401C010
0401C010
0001C000
0001C000
0001C000
0001C000
0001C000
0001C000
0001C000
0001C000
0001C000
0001C000
0001C000
0001C000
0001C000
0001C000
0001C000
0001C000
0003E000
001FFC00
00000000
00000000
00000000
00000000
00000000
ENDCHAR

STARTCHAR chs_A6B4
ENCODING 42676
SWIDTH 960 0
DWIDTH 32 0
BBX 32 32 0 -2
BITMAP
00000000
00000000
00000000
00003E00
00307F00
0078C780
00E58780
00C38300
00038000
00038000
00038000
00038000
00038000
00038000
00038000
00038000
00038000
00038000
00038000
00038000
00038000
00038000
00038000
00038000
00038000
0007C000
003FF800
00000000
00000000
00000000
00000000
00000000
ENDCHAR

STARTCHAR chs_A6B5
ENCODING 42677
SWIDTH 960 0
DWIDTH 32 0
BBX 32 32 0 -2
BITMAP
00000000
00000000
00000000
001FFC00
0003E000
0001C000
0001C000
00FFFF80
0381C0E0
0701C070
0E01C038
0E01C038
1C01C01C
1C01C01C
1C01C01C
1C01C01C
1C01C01C
1C01C01C
0C01C038
0C01C038
0701C070
0381C0E0
00FFFF80
0001C000
0001C000
0003E000
003FFE00
00000000
00000000
00000000
00000000
00000000
ENDCHAR

STARTCHAR chs_A6B6
ENCODING 42678
SWIDTH 960 0
DWIDTH 32 0
BBX 32 32 0 -2
BITMAP
00000000
00000000
00000000
3FF807FC
07C00070
03800060
01C000C0
00E00180
00700300
00380600
001C0C00
000E1800
00073000
0003E000
0003C000
0001C000
0001E000
00037000
00063800
000C1C00
00180E00
00300700
00600380
00C001C0
018000E0
038001F0
3FF80FFC
00000000
00000000
00000000
00000000
00000000
ENDCHAR

STARTCHAR chs_A6B7
ENCODING 42679
SWIDTH 960 0
DWIDTH 32 0
BBX 32 32 0 -2
BITMAP
00000000
00000000
00000000
1E1FF0F0
0707C1C0
03838380
03838380
03838380
03838380
03838380
03838380
03838380
03838380
03838380
03838380
03838380
01838300
007FFC00
00038000
00038000
00038000
00038000
00038000
00038000
00038000
0007C000
007FFC00
00000000
00000000
00000000
00000000
00000000
ENDCHAR

STARTCHAR chs_A6B8
ENCODING 42680
SWIDTH 960 0
DWIDTH 32 0
BBX 32 32 0 -2
BITMAP
00000000
00000000
00000000
000FF000
00381C00
00700E00
00E00700
01C00380
01800180
038001C0
030000C0
070000E0
070000E0
070000E0
070000E0
030000C0
038001C0
01800180
01C00380
00E00700
00700E00
00381C00
001C3800
040C3020
06042060
070420E0
07FC3FE0
00000000
00000000
00000000
00000000
00000000
ENDCHAR

STARTCHAR chs_A6C1
ENCODING 42689
SWIDTH 960 0
DWIDTH 32 0
BBX 32 32 0 -2
BITMAP
00000000
00000000
00000000
00000000
00000000
00000000
00000000
00000000
00000000
00000000
001F0C00
0071CC00
00E06C00
01C02C00
01C02C00
01C01C00
01C01800
01C01800
01C01800
01C01800
01C01800
01C03800
00C03800
00C05880
0060D900
00318F00
001F0600
00000000
00000000
00000000
00000000
00000000
ENDCHAR

STARTCHAR chs_A6C2
ENCODING 42690
SWIDTH 960 0
DWIDTH 32 0
BBX 32 32 0 -2
BITMAP
00000000
00000000
00000000
000FE000
00187000
00203800
00601C00
00401C00
00C01C00
00C01C00
00C01800
00C03800
00C07000
00C0E000
00CFF000
00C03C00
00C00E00
00C00600
00C00700
00C00700
00C00700
00C00700
00C00600
00E00E00
00D01C00
00CC3800
00C7E000
00C00000
00C00000
00C00000
00C00000
00C00000
ENDCHAR

STARTCHAR chs_A6C3
ENCODING 42691
SWIDTH 960 0
DWIDTH 32 0
BBX 32 32 0 -2
BITMAP
00000000
00000000
00000000
00000000
00000000
00000000
00000000
00000000
00000000
00000000
00300600
00780600
00480C00
00440C00
00841800
00021000
00022000
00012000
00014000
0000C000
00008000
00018000
00018000
00018000
00018000
00018000
00018000
00018000
00018000
00018000
00018000
00018000
ENDCHAR

STARTCHAR chs_A6C4
ENCODING 42692
SWIDTH 960 0
DWIDTH 32 0
BBX 32 32 0 -2
BITMAP
00000000
00000000
00000000
000FE000
00183000
00303800
00301800
00380000
003C0000
001F0000
0007C000
0001E000
0007F000
001C3C00
00381E00
00700E00
00E00F00
00E00700
00E00700
00E00700
00E00700
00600600
00700E00
00700C00
00300C00
001C3800
000FF000
00000000
00000000
00000000
00000000
00000000
ENDCHAR

STARTCHAR chs_A6C5
ENCODING 42693
SWIDTH 960 0
DWIDTH 32 0
BBX 32 32 0 -2
BITMAP
00000000
00000000
00000000
00000000
00000000
00000000
00000000
00000000
00000000
00000000
0007F000
001C3800
00380C00
00380E00
00380E00
00380400
001C0000
000E0000
000FF000
00380000
00700000
00700600
00700E00
00700600
00380600
001C1C00
0007F800
00000000
00000000
00000000
00000000
00000000
ENDCHAR

STARTCHAR chs_A6C6
ENCODING 42694
SWIDTH 960 0
DWIDTH 32 0
BBX 32 32 0 -2
BITMAP
00000000
00000000
00000000
00020000
00060000
000C0C00
00181C00
00383800
00386000
001FC000
00078000
00010000
00020000
000C0000
00180000
00300000
00700000
00600000
00600000
00600000
00600000
00600000
00300000
003C0000
001FFC00
000FFE00
0003FF00
00000700
00000700
00060700
00070E00
0003FC00
ENDCHAR

STARTCHAR chs_A6C7
ENCODING 42695
SWIDTH 960 0
DWIDTH 32 0
BBX 32 32 0 -2
BITMAP
00000000
00000000
00000000
00000000
00000000
00000000
00000000
00000000
00000000
00000000
00C0F000
01E1F800
02731C00
00320C00
00340C00
00340C00
00380C00
00380C00
00300C00
00300C00
00300C00
00300C00
00300C00
00300C00
00300C00
00300C00
00300C00
00000C00
00000C00
00000C00
00000C00
00000C00
ENDCHAR

STARTCHAR chs_A6C8
ENCODING 42696
SWIDTH 960 0
DWIDTH 32 0
BBX 32 32 0 -2
BITMAP
00000000
00000000
00000000
0007C000
001C7000
00301800
00301800
00600C00
00600C00
00E00E00
00E00E00
00E00E00
00E00E00
00E00E00
00FFFE00
00E00E00
00E00E00
00E00E00
00E00E00
00E00E00
00600C00
00600C00
00301800
00301800
00183000
000C6000
0007C000
00000000
00000000
00000000
00000000
00000000
ENDCHAR

STARTCHAR chs_A6C9
ENCODING 42697
SWIDTH 960 0
DWIDTH 32 0
BBX 32 32 0 -2
BITMAP
00000000
00000000
00000000
00000000
00000000
00000000
00000000
00000000
00000000
00000000
00060000
000E0000
00060000
00060000
00060000
00060000
00060000
00060000
00060000
00060000
00060000
00060000
00060000
00061000
00072000
0003C000
00018000
00000000
00000000
00000000
00000000
00000000
ENDCHAR

STARTCHAR chs_A6CA
ENCODING 42698
SWIDTH 960 0
DWIDTH 32 0
BBX 32 32 0 -2
BITMAP
00000000
00000000
00000000
00000000
00000000
00000000
00000000
00000000
00000000
00000000
00C03C00
01C07800
00C0C000
00C18000
00C60000
00C80000
00D00000
00F00000
00DC0000
00CE0000
00C70000
00C38000
00C1C000
00C07000
00C03800
00C01C00
00C07F00
00000000
00000000
00000000
00000000
00000000
ENDCHAR

STARTCHAR chs_A6CB
ENCODING 42699
SWIDTH 960 0
DWIDTH 32 0
BBX 32 32 0 -2
BITMAP
00000000
00000000
00000000
00180000
00240000
00220000
00020000
00020000
00010000
00010000
00010000
00018000
00018000
00018000
0003C000
00074000
00074000
00062000
000E2000
000C2000
001C1000
001C1000
00381000
00701800
00F00880
01E00C80
03C00700
00000000
00000000
00000000
00000000
00000000
ENDCHAR

STARTCHAR chs_A6CC
ENCODING 42700
SWIDTH 960 0
DWIDTH 32 0
BBX 32 32 0 -2
BITMAP
00000000
00000000
00000000
00000000
00000000
00000000
00000000
00000000
00000000
00000000
00C03000
00C03000
00C03000
00C03000
00C03000
00C03000
00C03000
00C03000
00C03000
00C03000
00C03080
00C07080
00C07100
00C0B100
00C0B300
00FF3600
00DE1C00
00C00000
00C00000
00C00000
00C00000
00C00000
ENDCHAR

STARTCHAR chs_A6CD
ENCODING 42701
SWIDTH 960 0
DWIDTH 32 0
BBX 32 32 0 -2
BITMAP
00000000
00000000
00000000
00000000
00000000
00000000
00000000
00000000
00000000
00000300
03C00780
00E00780
00600300
00700200
00300600
00380400
00180C00
00180800
000C1800
000E1000
00063000
00076000
00036000
0003C000
0001C000
00018000
00008000
00000000
00000000
00000000
00000000
00000000
ENDCHAR

STARTCHAR chs_A6CE
ENCODING 42702
SWIDTH 960 0
DWIDTH 32 0
BBX 32 32 0 -2
BITMAP
00000000
00000000
00000000
00060000
00080000
00100000
00300000
00600000
00600000
003FF000
001FF000
00300000
00600000
00600000
00300000
001FF000
003FF000
00C00000
01800000
03000000
03000000
03000000
03000000
03800000
01FFFC00
003FFF00
000FFF80
00000780
00000380
000C0380
000E0700
0007FE00
ENDCHAR

STARTCHAR chs_A6CF
ENCODING 42703
SWIDTH 960 0
DWIDTH 32 0
BBX 32 32 0 -2
BITMAP
00000000
00000000
00000000
00000000
00000000
00000000
00000000
00000000
00000000
00000000
0007C000
00183000
00600C00
00600C00
00C00600
00C00600
01800300
01800300
01800300
01800300
01800300
00C00600
00C00600
00600C00
00600C00
00183000
0007C000
00000000
00000000
00000000
00000000
00000000
ENDCHAR

STARTCHAR chs_A6D0
ENCODING 42704
SWIDTH 960 0
DWIDTH 32 0
BBX 32 32 0 -2
BITMAP
00000000
00000000
00000000
00000000
00000000
00000000
00000000
00000000
00000000
00000000
007FFF80
00FFFF80
00881800
01081800
00081800
00081800
00081800
00081800
00081800
00081800
00081800
00081800
00181800
00381880
00F81900
00F01E00
00600C00
00000000
00000000
00000000
00000000
00000000
ENDCHAR

STARTCHAR chs_A6D1
ENCODING 42705
SWIDTH 960 0
DWIDTH 32 0
BBX 32 32 0 -2
BITMAP
00000000
00000000
00000000
00000000
00000000
00000000
00000000
00000000
00000000
00000000
0003F000
000C1800
00300C00
00300400
00300600
00300600
00300600
00300600
00300600
00300600
00300600
00300600
00300600
00300600
00300C00
003C1800
0033F000
00300000
00300000
00300000
00300000
00300000
ENDCHAR

STARTCHAR chs_A6D2
ENCODING 42706
SWIDTH 960 0
DWIDTH 32 0
BBX 32 32 0 -2
BITMAP
00000000
00000000
00000000
00000000
00000000
00000000
00000000
00000000
00000000
00000000
0003FFC0
000E3FC0
00181800
00300C00
00700E00
00600600
00E00700
00E00700
00E00700
00E00700
00E00700
00600600
00700E00
00300C00
00181800
000C3000
0007C000
00000000
00000000
00000000
00000000
00000000
ENDCHAR

STARTCHAR chs_A6D3
ENCODING 42707
SWIDTH 960 0
DWIDTH 32 0
BBX 32 32 0 -2
BITMAP
00000000
00000000
00000000
00000000
00000000
00000000
00000000
00000000
00000000
00000000
001FFE00
003FFE00
0060C000
0040C000
0080C000
0000C000
0000C000
0000C000
0000C000
0000C000
0000C000
0000C000
0000C000
0000C000
0000C800
0000F800
00007000
00000000
00000000
00000000
00000000
00000000
ENDCHAR

STARTCHAR chs_A6D4
ENCODING 42708
SWIDTH 960 0
DWIDTH 32 0
BBX 32 32 0 -2
BITMAP
00000000
00000000
00000000
00000000
00000000
00000000
00000000
00000000
00000000
00000000
00601800
00F03C00
00B01E00
01300600
00300200
00300200
00300200
00300200
00300200
00300200
00300200
00300200
00300600
00300400
00180C00
000C1800
0003E000
00000000
00000000
00000000
00000000
00000000
ENDCHAR

STARTCHAR chs_A6D5
ENCODING 42709
SWIDTH 960 0
DWIDTH 32 0
BBX 32 32 0 -2
BITMAP
00000000
00000000
00000000
00018000
00018000
00018000
00018000
00018000
00018000
00018000
000FF000
00199800
00318C00
00618600
00C18300
00C18300
01C18380
01C18380
01C18380
01C18380
01C18380
00C18300
00C18300
00618600
00718E00
00399C00
000FF000
00018000
00018000
00018000
00018000
00018000
ENDCHAR

STARTCHAR chs_A6D6
ENCODING 42710
SWIDTH 960 0
DWIDTH 32 0
BBX 32 32 0 -2
BITMAP
00000000
00000000
00000000
00000000
00000000
00000000
00000000
00000000
00000000
00000000
00600700
00900E00
00980E00
00081C00
00081C00
000C3800
00047000
00047000
0006E000
0002E000
0003C000
00038000
00078000
00074000
000E4000
001C4000
00386000
00703000
00E01800
00C00C80
01C00C80
03800700
ENDCHAR

STARTCHAR chs_A6D7
ENCODING 42711
SWIDTH 960 0
DWIDTH 32 0
BBX 32 32 0 -2
BITMAP
00000000
00000000
00000000
00018000
00018000
00018000
00018000
00018000
00018000
00018000
01C18C00
02618E00
04618E00
08618700
00618300
00618300
00618300
00618300
00618300
00618300
00618300
00618300
00618600
00718600
00398C00
001DB800
000FF000
00018000
00018000
00018000
00018000
00018000
ENDCHAR

STARTCHAR chs_A6D8
ENCODING 42712
SWIDTH 960 0
DWIDTH 32 0
BBX 32 32 0 -2
BITMAP
00000000
00000000
00000000
00000000
00000000
00000000
00000000
00000000
00000000
00000000
003C3C00
00E00700
01C00380
01800180
038001C0
038001C0
038181C0
038181C0
038181C0
038181C0
038181C0
038181C0
01818180
01C18380
00C18300
00624600
001C3800
00000000
00000000
00000000
00000000
00000000
ENDCHAR

STARTCHAR chs_A7A1
ENCODING 42913
SWIDTH 960 0
DWIDTH 32 0
BBX 32 32 0 -2
BITMAP
00000000
00000000
00000000
0001C000
0003E000
0002E000
0006E000
00047000
00047000
00087000
00083800
00183800
00103C00
00101C00
00201C00
00200E00
00600E00
007FFF00
00800700
00800700
00800780
01000380
010003C0
030001C0
020001E0
0F0001F0
3FE01FFC
00000000
00000000
00000000
00000000
00000000
ENDCHAR

STARTCHAR chs_A7A2
ENCODING 42914
SWIDTH 960 0
DWIDTH 32 0
BBX 32 32 0 -2
BITMAP
00000000
00000000
00000000
07FFFF00
01E00700
00E00300
00E00100
00E00100
00E00000
00E00000
00E00000
00E00000
00E00000
00E00000
00FFF000
00E03C00
00E00E00
00E00700
00E00300
00E00380
00E00380
00E00380
00E00380
00E00700
00E00E00
01E01C00
07FFF000
00000000
00000000
00000000
00000000
00000000
ENDCHAR

STARTCHAR chs_A7A3
ENCODING 42915
SWIDTH 960 0
DWIDTH 32 0
BBX 32 32 0 -2
BITMAP
00000000
00000000
00000000
03FFFC00
00F00F00
00700780
00700380
00700380
00700380
00700380
00700380
00700300
00700600
00700C00
007FFE00
00700780
007001C0
007000C0
007000E0
007000E0
007000E0
007000E0
007000E0
007000C0
007001C0
00F00780
07FFFE00
00000000
00000000
00000000
00000000
00000000
ENDCHAR

STARTCHAR chs_A7A4
ENCODING 42916
SWIDTH 960 0
DWIDTH 32 0
BBX 32 32 0 -2
BITMAP
00000000
00000000
00000000
03FFFFC0
007801C0
003800C0
00380040
00380040
00380040
00380000
00380000
00380000
00380000
00380000
00380000
00380000
00380000
00380000
00380000
00380000
00380000
00380000
00380000
00380000
00380000
007C0000
03FF8000
00000000
00000000
00000000
00000000
00000000
ENDCHAR

STARTCHAR chs_A7A5
ENCODING 42917
SWIDTH 960 0
DWIDTH 32 0
BBX 32 32 0 -2
BITMAP
00000000
00000000
00000000
007FFFE0
001C0F80
00080700
00080700
00080700
00080700
00080700
00080700
00080700
00080700
00080700
00100700
00100700
00100700
00100700
00200700
00200700
00400700
00400700
00800700
00800700
01000700
02000F80
0FFFFFE0
0E0000E0
0C000060
08000020
08000020
00000000
ENDCHAR

STARTCHAR chs_A7A6
ENCODING 42918
SWIDTH 960 0
DWIDTH 32 0
BBX 32 32 0 -2
BITMAP
00000000
00000000
00000000
07FFFFC0
00F801C0
007000C0
00700040
00700040
00700000
00700000
00700400
00700400
00700400
00700C00
007FFC00
00700C00
00700400
00700400
00700400
00700000
00700000
00700020
00700020
00700060
00700060
00F800E0
07FFFFE0
00000000
00000000
00000000
00000000
00000000
ENDCHAR

STARTCHAR chs_A7A7
ENCODING 42919
SWIDTH 960 0
DWIDTH 32 0
BBX 32 32 0 -2
BITMAP
00000000
00000000
00300C00
00300C00
00000000
00000000
07FFFFC0
00F801C0
007000C0
00700040
00700040
00700000
00700000
00700400
00700400
00700C00
007FFC00
00700C00
00700400
00700400
00700000
00700020
00700020
00700060
00700060
00F800E0
07FFFFE0
00000000
00000000
00000000
00000000
00000000
ENDCHAR

STARTCHAR chs_A7A8
ENCODING 42920
SWIDTH 960 0
DWIDTH 32 0
BBX 32 32 0 -2
BITMAP
00000000
00000000
00000000
0C1FF060
1E07C0F0
3E0380F8
33038198
01038100
01838300
00838200
00C38600
00638C00
00339800
001FF000
001FF000
003BB800
00739C00
00739C00
00E38E00
00E38E00
01C38700
01C38700
03838380
03838380
070381C0
0F07C1E0
3F1FF1F8
00000000
00000000
00000000
00000000
00000000
ENDCHAR

STARTCHAR chs_A7A9
ENCODING 42921
SWIDTH 960 0
DWIDTH 32 0
BBX 32 32 0 -2
BITMAP
00000000
00000000
00000000
011FF800
01701C00
01E00E00
01C00700
01800700
01000700
01000700
01000600
00000E00
00001C00
00003800
001FF000
00001E00
00000700
00000380
00000380
04000380
04000380
06000380
03000700
01800700
00E00E00
00783800
003FE000
00000000
00000000
00000000
00000000
00000000
ENDCHAR

STARTCHAR chs_A7AA
ENCODING 42922
SWIDTH 960 0
DWIDTH 32 0
BBX 32 32 0 -2
BITMAP
00000000
00000000
00000000
1FF81FF8
03E007C0
01C00380
01C00780
01C00780
01C00B80
01C01B80
01C01380
01C02380
01C06380
01C0C380
01C08380
01C10380
01C30380
01C60380
01C40380
01C80380
01D80380
01F00380
01E00380
01C00380
01C00380
03E007C0
1FF81FF8
00000000
00000000
00000000
00000000
00000000
ENDCHAR

STARTCHAR chs_A7AB
ENCODING 42923
SWIDTH 960 0
DWIDTH 32 0
BBX 32 32 0 -2
BITMAP
00000000
00000000
000C3000
000C3000
000C3000
0003C000
1FF00FF8
03E003C0
01C00380
01C00780
01C00F80
01C01B80
01C03380
01C02380
01C04380
01C0C380
01C18380
01C10380
01C30380
01C40380
01CC0380
01D80380
01F00380
01E00380
01C00380
03E007C0
1FF81FF8
00000000
00000000
00000000
00000000
00000000
ENDCHAR

STARTCHAR chs_A7AC
ENCODING 42924
SWIDTH 960 0
DWIDTH 32 0
BBX 32 32 0 -2
BITMAP
00000000
00000000
00000000
07FC0380
01F00FC0
00E01CC0
00E01800
00E03000
00E06000
00E0C000
00E08000
00E10000
00E20000
00EC0000
00FE0000
00E70000
00E38000
00E1C000
00E0E000
00E0E000
00E07000
00E03800
00E01C00
00E01E00
00E00F00
01F007C0
07FC07F0
00000000
00000000
00000000
00000000
00000000
ENDCHAR

STARTCHAR chs_A7AD
ENCODING 42925
SWIDTH 960 0
DWIDTH 32 0
BBX 32 32 0 -2
BITMAP
00000000
00000000
00000000
01FFFFF0
003007C0
00100380
00100380
00100380
00100380
00100380
00100380
00100380
00100380
00100380
00100380
00100380
00100380
00100380
00300380
00200380
00200380
00200380
0C600380
1E400380
1EC00380
1F8007C0
0F001FF8
00000000
00000000
00000000
00000000
00000000
ENDCHAR

STARTCHAR chs_A7AE
ENCODING 42926
SWIDTH 960 0
DWIDTH 32 0
BBX 32 32 0 -2
BITMAP
00000000
00000000
00000000
3F8001F8
0F8001E0
07C002E0
05C002E0
05C002E0
04E004E0
04E004E0
04E004E0
047008E0
047008E0
047008E0
043810E0
043810E0
043810E0
041C20E0
041C20E0
041C40E0
040E40E0
040EC0E0
040F80E0
040780E0
040700E0
0E0301F0
3F8207FC
00000000
00000000
00000000
00000000
00000000
ENDCHAR

STARTCHAR chs_A7AF
ENCODING 42927
SWIDTH 960 0
DWIDTH 32 0
BBX 32 32 0 -2
BITMAP
00000000
00000000
00000000
3FF81FFC
07C003E0
038001C0
038001C0
038001C0
038001C0
038001C0
038001C0
038001C0
038001C0
038001C0
03FFFFC0
038001C0
038001C0
038001C0
038001C0
038001C0
038001C0
038001C0
038001C0
038001C0
038001C0
07C003E0
3FF81FFC
00000000
00000000
00000000
00000000
00000000
ENDCHAR

STARTCHAR chs_A7B0
ENCODING 42928
SWIDTH 960 0
DWIDTH 32 0
BBX 32 32 0 -2
BITMAP
00000000
00000000
00000000
0007E000
00381C00
00E00700
01800180
030000C0
06000060
0C000030
0C000030
1C000038
1C000038
1C000038
1C000038
1C000038
1C000038
1C000038
1C000038
0C000030
0C000030
06000060
030000C0
01800180
00E00700
00381C00
0007E000
00000000
00000000
00000000
00000000
00000000
ENDCHAR

STARTCHAR chs_A7B1
ENCODING 42929
SWIDTH 960 0
DWIDTH 32 0
BBX 32 32 0 -2
BITMAP
00000000
00000000
00000000
3FFFFFFC
078001E0
038001C0
038001C0
038001C0
038001C0
038001C0
038001C0
038001C0
038001C0
038001C0
038001C0
038001C0
038001C0
038001C0
038001C0
038001C0
038001C0
038001C0
038001C0
038001C0
038001C0
07C003E0
3FF81FFC
00000000
00000000
00000000
00000000
00000000
ENDCHAR

STARTCHAR chs_A7B2
ENCODING 42930
SWIDTH 960 0
DWIDTH 32 0
BBX 32 32 0 -2
BITMAP
00000000
00000000
00000000
0FFFFC00
01E00700
00E00380
00E001C0
00E001C0
00E001C0
00E001C0
00E001C0
00E001C0
00E00380
00E00700
00FFFC00
00E00000
00E00000
00E00000
00E00000
00E00000
00E00000
00E00000
00E00000
00E00000
00E00000
01F00000
0FFE0000
00000000
00000000
00000000
00000000
00000000
ENDCHAR

STARTCHAR chs_A7B3
ENCODING 42931
SWIDTH 960 0
DWIDTH 32 0
BBX 32 32 0 -2
BITMAP
00000000
00000000
00000000
0007F840
001C0E40
003803C0
006001C0
00E000C0
01C00060
01C00060
03800020
03800020
03800000
03800000
03800000
03800000
03800000
03800000
03800000
03800000
01C00000
01C00020
00E00020
00E000C0
00380380
001C0E00
0007F800
00000000
00000000
00000000
00000000
00000000
ENDCHAR

STARTCHAR chs_A7B4
ENCODING 42932
SWIDTH 960 0
DWIDTH 32 0
BBX 32 32 0 -2
BITMAP
00000000
00000000
00000000
03FFFFE0
0381C0E0
0301C060
0601C030
0401C010
0401C010
0001C000
0001C000
0001C000
0001C000
0001C000
0001C000
0001C000
0001C000
0001C000
0001C000
0001C000
0001C000
0001C000
0001C000
0001C000
0001C000
0003E000
001FFC00
00000000
00000000
00000000
00000000
00000000
ENDCHAR

STARTCHAR chs_A7B5
ENCODING 42933
SWIDTH 960 0
DWIDTH 32 0
BBX 32 32 0 -2
BITMAP
00000000
00000000
00000000
3FF81FFC
0FC000E0
03800080
03C00180
01E00100
00E00200
00F00200
00700400
00780800
003C0800
001C1000
001E2000
000E2000
000F4000
00078000
00038000
00030000
00020000
00060000
00040000
03080000
07980000
07B00000
03E00000
00000000
00000000
00000000
00000000
00000000
ENDCHAR

STARTCHAR chs_A7B6
ENCODING 42934
SWIDTH 960 0
DWIDTH 32 0
BBX 32 32 0 -2
BITMAP
00000000
00000000
00000000
001FFC00
0003E000
0001C000
0001C000
00FFFF80
0381C0E0
0701C070
0E01C038
0E01C038
1C01C01C
1C01C01C
1C01C01C
1C01C01C
1C01C01C
1E01C01C
0E01C038
0E01C038
0701C070
0381C0E0
00FFFF80
0001C000
0001C000
0003E000
001FFC00
00000000
00000000
00000000
00000000
00000000
ENDCHAR

STARTCHAR chs_A7B7
ENCODING 42935
SWIDTH 960 0
DWIDTH 32 0
BBX 32 32 0 -2
BITMAP
00000000
00000000
00000000
3FF807FC
07C00070
03800060
01C000C0
00E00180
00700300
00380600
001C0C00
000E1800
00073000
0003E000
0003C000
0001C000
0001E000
00037000
00063800
000C1C00
00180E00
00300700
00600380
00C001C0
018000E0
038001F0
3FF80FFC
00000000
00000000
00000000
00000000
00000000
ENDCHAR

STARTCHAR chs_A7B8
ENCODING 42936
SWIDTH 960 0
DWIDTH 32 0
BBX 32 32 0 -2
BITMAP
00000000
00000000
00000000
1FFC3FF8
03E007C0
01C00380
01C00380
01C00380
01C00380
01C00380
01C00380
01C00380
01C00380
01C00380
01C00380
01C00380
01C00380
01C00380
01C00380
01C00380
01C00380
01C00380
01C00380
01C00380
01C00380
03E007C0
1FFFFFFC
0000001C
0000000C
00000004
00000004
00000000
ENDCHAR

STARTCHAR chs_A7B9
ENCODING 42937
SWIDTH 960 0
DWIDTH 32 0
BBX 32 32 0 -2
BITMAP
00000000
00000000
00000000
1FF81FF8
03E007C0
01C00380
01C00380
01C00380
01C00380
01C00380
01C00380
01C00380
01C00380
01C00380
01C00380
00E00380
003FFF80
00000380
00000380
00000380
00000380
00000380
00000380
00000380
00000380
000007C0
00003FF8
00000000
00000000
00000000
00000000
00000000
ENDCHAR

STARTCHAR chs_A7BA
ENCODING 42938
SWIDTH 960 0
DWIDTH 32 0
BBX 32 32 0 -2
BITMAP
00000000
00000000
00000000
7FDFF7FC
1F07C1F0
0E0380E0
0E0380E0
0E0380E0
0E0380E0
0E0380E0
0E0380E0
0E0380E0
0E0380E0
0E0380E0
0E0380E0
0E0380E0
0E0380E0
0E0380E0
0E0380E0
0E0380E0
0E0380E0
0E0380E0
0E0380E0
0E0380E0
0E0380E0
1F07C1F0
7FFFFFFC
00000000
00000000
00000000
00000000
00000000
ENDCHAR

STARTCHAR chs_A7BB
ENCODING 42939
SWIDTH 960 0
DWIDTH 32 0
BBX 32 32 0 -2
BITMAP
00000000
00000000
00000000
7FDFF7FC
1F07C1F0
0E0380E0
0E0380E0
0E0380E0
0E0380E0
0E0380E0
0E0380E0
0E0380E0
0E0380E0
0E0380E0
0E0380E0
0E0380E0
0E0380E0
0E0380E0
0E0380E0
0E0380E0
0E0380E0
0E0380E0
0E0380E0
0E0380E0
0E0380E0
1F07C1F0
7FFFFFFE
0000000E
00000006
00000002
00000002
00000000
ENDCHAR

STARTCHAR chs_A7BC
ENCODING 42940
SWIDTH 960 0
DWIDTH 32 0
BBX 32 32 0 -2
BITMAP
00000000
00000000
00000000
1FFFE000
1C3E0000
181C0000
101C0000
301C0000
201C0000
201C0000
001C0000
001C0000
001C0000
001FFF80
001C00E0
001C0070
001C0078
001C0038
001C0038
001C0038
001C0038
001C0038
001C0038
001C0070
001C0060
003C01C0
03FFFF00
00000000
00000000
00000000
00000000
00000000
ENDCHAR

STARTCHAR chs_A7BD
ENCODING 42941
SWIDTH 960 0
DWIDTH 32 0
BBX 32 32 0 -2
BITMAP
00000000
00000000
00000000
7FE003FE
1F0000F8
0E000070
0E000070
0E000070
0E000070
0E000070
0E000070
0E000070
0E000070
0FFF8070
0E00E070
0E007070
0E007870
0E003870
0E003870
0E003870
0E003870
0E003870
0E003870
0E007070
0E006070
1E01C0F8
7FFF03FE
00000000
00000000
00000000
00000000
00000000
ENDCHAR

STARTCHAR chs_A7BE
ENCODING 42942
SWIDTH 960 0
DWIDTH 32 0
BBX 32 32 0 -2
BITMAP
00000000
00000000
00000000
03FF8000
007C0000
00380000
00380000
00380000
00380000
00380000
00380000
00380000
00380000
003FFF00
003801C0
003800E0
003800F0
00380070
00380070
00380070
00380070
00380070
00380070
003800E0
003800C0
00780380
03FFFE00
00000000
00000000
00000000
00000000
00000000
ENDCHAR

STARTCHAR chs_A7BF
ENCODING 42943
SWIDTH 960 0
DWIDTH 32 0
BBX 32 32 0 -2
BITMAP
00000000
00000000
00000000
011FE000
01781800
01E00E00
01C00700
01800300
01000380
01000380
000001C0
000001C0
000001C0
000001C0
003FFFC0
000001C0
000001C0
000001C0
000001C0
00000180
00000380
04000380
03000700
01800E00
00E01C00
00387800
001FE000
00000000
00000000
00000000
00000000
00000000
ENDCHAR

STARTCHAR chs_A7C0
ENCODING 42944
SWIDTH 960 0
DWIDTH 32 0
BBX 32 32 0 -2
BITMAP
00000000
00000000
00000000
3FE07F00
0F81C1C0
070380E0
07030060
07070070
07070070
070E0038
070E0038
070E0038
070E0038
070E0038
07FE0038
070E0038
070E0038
070E0038
070E0038
070E0038
070E0038
07070070
07070070
07030060
070380E0
0F81C1C0
3FE07F00
00000000
00000000
00000000
00000000
00000000
ENDCHAR

STARTCHAR chs_A7C1
ENCODING 42945
SWIDTH 960 0
DWIDTH 32 0
BBX 32 32 0 -2
BITMAP
00000000
00000000
00000000
001FFFF0
00700780
00E00700
01C00700
01C00700
01C00700
01C00700
01C00700
01C00700
00E00700
00700700
001FFF00
00078700
00070700
000E0700
001E0700
001C0700
00380700
00380700
00700700
00700700
00E00700
01E00F80
0FC07FF0
00000000
00000000
00000000
00000000
00000000
ENDCHAR

STARTCHAR chs_A7D1
ENCODING 42961
SWIDTH 960 0
DWIDTH 32 0
BBX 32 32 0 -2
BITMAP
00000000
00000000
00000000
00000000
00000000
00000000
00000000
00000000
00000000
00000000
0007E000
001CF000
00383800
00701800
00701800
00301800
00001800
0003F800
000F1800
001C1800
00301800
00701800
00603800
0060D800
00619900
007F1E00
003E0600
00000000
00000000
00000000
00000000
00000000
ENDCHAR

STARTCHAR chs_A7D2
ENCODING 42962
SWIDTH 960 0
DWIDTH 32 0
BBX 32 32 0 -2
BITMAP
00000000
00000000
00000E00
0003F000
000E0000
00180000
00300000
00600000
00600000
00600000
0063C000
006C3000
00701800
00701800
00600C00
00600C00
00600C00
00600C00
00600C00
00600C00
00600C00
00600C00
00600C00
00301800
00301800
00183000
0007C000
00000000
00000000
00000000
00000000
00000000
ENDCHAR

STARTCHAR chs_A7D3
ENCODING 42963
SWIDTH 960 0
DWIDTH 32 0
BBX 32 32 0 -2
BITMAP
00000000
00000000
00000000
00000000
00000000
00000000
00000000
00000000
00000000
00000000
007FE000
00303000
00301800
00301800
00301800
00301800
00301800
00303000
003FE000
00301800
00301C00
00300C00
00300C00
00300C00
00300C00
00301800
007FF000
00000000
00000000
00000000
00000000
00000000
ENDCHAR

STARTCHAR chs_A7D4
ENCODING 42964
SWIDTH 960 0
DWIDTH 32 0
BBX 32 32 0 -2
BITMAP
00000000
00000000
00000000
00000000
00000000
00000000
00000000
00000000
00000000
00000000
003FFC00
000C0C00
000C0400
000C0400
000C0000
000C0000
000C0000
000C0000
000C0000
000C0000
000C0000
000C0000
000C0000
000C0000
000C0000
000C0000
003F0000
00000000
00000000
00000000
00000000
00000000
ENDCHAR

STARTCHAR chs_A7D5
ENCODING 42965
SWIDTH 960 0
DWIDTH 32 0
BBX 32 32 0 -2
BITMAP
00000000
00000000
00000000
00000000
00000000
00000000
00000000
00000000
00000000
00000000
001FFE00
00041800
00041800
00041800
00081800
00081800
00081800
00081800
00101800
00101800
00101800
00101800
00201800
00201800
00201800
00201800
00FFFE00
00C00600
00800200
00800200
00000000
00000000
ENDCHAR

STARTCHAR chs_A7D6
ENCODING 42966
SWIDTH 960 0
DWIDTH 32 0
BBX 32 32 0 -2
BITMAP
00000000
00000000
00000000
00000000
00000000
00000000
00000000
00000000
00000000
00000000
0007E000
000E3000
00181800
00300C00
00300C00
00300C00
00300C00
00300C00
003FFC00
00300000
00300000
00300000
00300000
00380400
001C0C00
000E1800
0007F000
00000000
00000000
00000000
00000000
00000000
ENDCHAR

STARTCHAR chs_A7D7
ENCODING 42967
SWIDTH 960 0
DWIDTH 32 0
BBX 32 32 0 -2
BITMAP
00000000
00000000
00000000
00000000
000C3000
000C3000
00000000
00000000
00000000
00000000
0007E000
000E3000
00181800
00300C00
00300C00
00300C00
00300C00
00300C00
003FFC00
00300000
00300000
00300000
00300000
00380400
001C0C00
000E1800
0007F000
00000000
00000000
00000000
00000000
00000000
ENDCHAR

STARTCHAR chs_A7D8
ENCODING 42968
SWIDTH 960 0
DWIDTH 32 0
BBX 32 32 0 -2
BITMAP
00000000
00000000
00000000
00000000
00000000
00000000
00000000
00000000
00000000
00000000
0303C0C0
078181E0
04818120
00418200
00218400
00118800
00099000
0005A000
0007E000
0007E000
000DB000
00199800
00318C00
00618600
00C18300
038181C0
07C3C3E0
00000000
00000000
00000000
00000000
00000000
ENDCHAR

STARTCHAR chs_A7D9
ENCODING 42969
SWIDTH 960 0
DWIDTH 32 0
BBX 32 32 0 -2
BITMAP
00000000
00000000
00000000
00000000
00000000
00000000
00000000
00000000
00000000
00000000
004FF000
00781800
00600C00
00400C00
00400C00
00000C00
00000C00
00001800
000FF000
00001800
00000C00
00000C00
00000C00
00700C00
00700C00
00381800
000FF000
00000000
00000000
00000000
00000000
00000000
ENDCHAR

STARTCHAR chs_A7DA
ENCODING 42970
SWIDTH 960 0
DWIDTH 32 0
BBX 32 32 0 -2
BITMAP
00000000
00000000
00000000
00000000
00000000
00000000
00000000
00000000
00000000
00000000
00F83F00
00301C00
00301C00
00302C00
00302C00
00304C00
00304C00
00308C00
00308C00
00310C00
00310C00
00320C00
00320C00
00340C00
00340C00
00380C00
00FC3F00
00000000
00000000
00000000
00000000
00000000
ENDCHAR

STARTCHAR chs_A7DB
ENCODING 42971
SWIDTH 960 0
DWIDTH 32 0
BBX 32 32 0 -2
BITMAP
00000000
00000000
00000000
00081000
00081000
00042000
0003C000
00000000
00000000
00000000
00F83F00
00301C00
00301C00
00302C00
00302C00
00304C00
00304C00
00308C00
00308C00
00310C00
00310C00
00320C00
00320C00
00340C00
00340C00
00380C00
00FC3F00
00000000
00000000
00000000
00000000
00000000
ENDCHAR

STARTCHAR chs_A7DC
ENCODING 42972
SWIDTH 960 0
DWIDTH 32 0
BBX 32 32 0 -2
BITMAP
00000000
00000000
00000000
00000000
00000000
00000000
00000000
00000000
00000000
00000000
00F80600
00300F00
00300B00
00301000
00302000
00304000
00308000
00310000
00370000
003B8000
0031C000
0030E000
00307000
00303800
00301C00
00300E00
00FC0780
00000000
00000000
00000000
00000000
00000000
ENDCHAR

STARTCHAR chs_A7DD
ENCODING 42973
SWIDTH 960 0
DWIDTH 32 0
BBX 32 32 0 -2
BITMAP
00000000
00000000
00000000
00000000
00000000
00000000
00000000
00000000
00000000
00000000
003FFF00
00020C00
00020C00
00020C00
00020C00
00020C00
00040C00
00040C00
00040C00
00040C00
00080C00
00080C00
00080C00
00080C00
00D00C00
00D00C00
00603F00
00000000
00000000
00000000
00000000
00000000
ENDCHAR

STARTCHAR chs_A7DE
ENCODING 42974
SWIDTH 960 0
DWIDTH 32 0
BBX 32 32 0 -2
BITMAP
00000000
00000000
00000000
00000000
00000000
00000000
00000000
00000000
00000000
00000000
00F00780
00580E00
00580E00
00581600
00581600
004C1600
004C2600
004C2600
004C2600
00464600
00464600
00464600
00468600
00438600
00430600
00410600
01F01F00
00000000
00000000
00000000
00000000
00000000
ENDCHAR

STARTCHAR chs_A7DF
ENCODING 42975
SWIDTH 960 0
DWIDTH 32 0
BBX 32 32 0 -2
BITMAP
00000000
00000000
00000000
00000000
00000000
00000000
00000000
00000000
00000000
00000000
00F81F00
00300C00
00300C00
00300C00
00300C00
00300C00
00300C00
00300C00
003FFC00
00300C00
00300C00
00300C00
00300C00
00300C00
00300C00
00300C00
00F81F00
00000000
00000000
00000000
00000000
00000000
ENDCHAR

STARTCHAR chs_A7E0
ENCODING 42976
SWIDTH 960 0
DWIDTH 32 0
BBX 32 32 0 -2
BITMAP
00000000
00000000
00000000
00000000
00000000
00000000
00000000
00000000
00000000
00000000
0007C000
00183000
00600C00
00600C00
00C00600
00C00600
01800300
01800300
01800300
01800300
01800300
00C00600
00C00600
00600C00
00600C00
00183000
0007C000
00000000
00000000
00000000
00000000
00000000
ENDCHAR

ENDFONT
